<svg xmlns="http://www.w3.org/2000/svg" xmlns:xlink="http://www.w3.org/1999/xlink" width="500" zoomAndPan="magnify" viewBox="0 0 375 374.999991" height="500" preserveAspectRatio="xMidYMid meet" version="1.0"><defs><clipPath id="164345a67f"><path d="M 9.539062 145 L 61 145 L 61 230 L 9.539062 230 Z M 9.539062 145 " clip-rule="nonzero"/></clipPath><clipPath id="9321631653"><path d="M 9.539062 9.539062 L 129 9.539062 L 129 129 L 9.539062 129 Z M 9.539062 9.539062 " clip-rule="nonzero"/></clipPath><clipPath id="c64e66aedf"><path d="M 9.539062 246 L 129 246 L 129 365.789062 L 9.539062 365.789062 Z M 9.539062 246 " clip-rule="nonzero"/></clipPath><clipPath id="eba7e19977"><path d="M 145 314 L 180 314 L 180 365.789062 L 145 365.789062 Z M 145 314 " clip-rule="nonzero"/></clipPath><clipPath id="5cd06e3b24"><path d="M 145 9.539062 L 230 9.539062 L 230 78 L 145 78 Z M 145 9.539062 " clip-rule="nonzero"/></clipPath><clipPath id="01fdc8dfce"><path d="M 212 348 L 230 348 L 230 365.789062 L 212 365.789062 Z M 212 348 " clip-rule="nonzero"/></clipPath><clipPath id="41a961184f"><path d="M 246 331 L 264 331 L 264 365.789062 L 246 365.789062 Z M 246 331 " clip-rule="nonzero"/></clipPath><clipPath id="e04f346a9d"><path d="M 280 348 L 298 348 L 298 365.789062 L 280 365.789062 Z M 280 348 " clip-rule="nonzero"/></clipPath><clipPath id="c545239fb7"><path d="M 314 331 L 365.789062 331 L 365.789062 365.789062 L 314 365.789062 Z M 314 331 " clip-rule="nonzero"/></clipPath><clipPath id="a323a069f9"><path d="M 280 162 L 365.789062 162 L 365.789062 196 L 280 196 Z M 280 162 " clip-rule="nonzero"/></clipPath><clipPath id="fa06896b3b"><path d="M 331 212 L 365.789062 212 L 365.789062 298 L 331 298 Z M 331 212 " clip-rule="nonzero"/></clipPath><clipPath id="ac461febcd"><path d="M 246 9.539062 L 365.789062 9.539062 L 365.789062 129 L 246 129 Z M 246 9.539062 " clip-rule="nonzero"/></clipPath><clipPath id="3d1724d6fe"><path d="M 348 314 L 365.789062 314 L 365.789062 332 L 348 332 Z M 348 314 " clip-rule="nonzero"/></clipPath><clipPath id="cdc16825ba"><path d="M 342 315 L 355.289062 315 L 355.289062 328 L 342 328 Z M 342 315 " clip-rule="nonzero"/></clipPath><clipPath id="4ac25b2740"><path d="M 342 303 L 355.289062 303 L 355.289062 316 L 342 316 Z M 342 303 " clip-rule="nonzero"/></clipPath><clipPath id="1404d65f4f"><path d="M 342 290 L 355.289062 290 L 355.289062 304 L 342 304 Z M 342 290 " clip-rule="nonzero"/></clipPath><clipPath id="5b6e100cb3"><path d="M 120 68.390625 L 133 68.390625 L 133 82 L 120 82 Z M 120 68.390625 " clip-rule="nonzero"/></clipPath><clipPath id="de26bd01e4"><path d="M 108 68.390625 L 121 68.390625 L 121 82 L 108 82 Z M 108 68.390625 " clip-rule="nonzero"/></clipPath><clipPath id="5861e90fc2"><path d="M 95 68.390625 L 109 68.390625 L 109 82 L 95 82 Z M 95 68.390625 " clip-rule="nonzero"/></clipPath><clipPath id="b0767004e4"><path d="M 83 68.390625 L 96 68.390625 L 96 82 L 83 82 Z M 83 68.390625 " clip-rule="nonzero"/></clipPath><clipPath id="4b707386a2"><path d="M 9.539062 179 L 22 179 L 22 193 L 9.539062 193 Z M 9.539062 179 " clip-rule="nonzero"/></clipPath><clipPath id="3e946d02d4"><path d="M 9.539062 167 L 22 167 L 22 180 L 9.539062 180 Z M 9.539062 167 " clip-rule="nonzero"/></clipPath><clipPath id="a39be45068"><path d="M 9.539062 155 L 22 155 L 22 168 L 9.539062 168 Z M 9.539062 155 " clip-rule="nonzero"/></clipPath><clipPath id="c6599260d0"><path d="M 9.539062 142 L 22 142 L 22 156 L 9.539062 156 Z M 9.539062 142 " clip-rule="nonzero"/></clipPath></defs><g clip-path="url(#164345a67f)"><path fill="#ffffff" d="M 26.484375 212.921875 L 43.433594 212.921875 L 43.433594 162.074219 L 60.382812 162.074219 L 60.382812 145.125 L 9.539062 145.125 L 9.539062 179.023438 L 26.484375 179.023438 L 26.484375 195.972656 L 9.539062 195.972656 L 9.539062 229.871094 L 26.484375 229.871094 Z M 26.484375 212.921875 " fill-opacity="1" fill-rule="nonzero"/></g><g clip-path="url(#9321631653)"><path fill="#ffffff" d="M 43.433594 128.179688 L 128.179688 128.179688 L 128.179688 9.539062 L 9.539062 9.539062 L 9.539062 128.179688 Z M 26.484375 26.484375 L 111.230469 26.484375 L 111.230469 111.230469 L 26.484375 111.230469 Z M 26.484375 26.484375 " fill-opacity="1" fill-rule="nonzero"/></g><path fill="#ffffff" d="M 77.332031 94.28125 L 94.28125 94.28125 L 94.28125 43.433594 L 43.433594 43.433594 L 43.433594 94.28125 Z M 77.332031 94.28125 " fill-opacity="1" fill-rule="nonzero"/><path fill="#ffffff" d="M 60.382812 179.023438 L 60.382812 212.921875 L 77.332031 212.921875 L 77.332031 229.871094 L 94.28125 229.871094 L 94.28125 179.023438 Z M 60.382812 179.023438 " fill-opacity="1" fill-rule="nonzero"/><path fill="#ffffff" d="M 60.382812 280.714844 L 43.433594 280.714844 L 43.433594 331.5625 L 94.28125 331.5625 L 94.28125 280.714844 Z M 60.382812 280.714844 " fill-opacity="1" fill-rule="nonzero"/><g clip-path="url(#c64e66aedf)"><path fill="#ffffff" d="M 94.28125 246.820312 L 9.539062 246.820312 L 9.539062 365.460938 L 128.179688 365.460938 L 128.179688 246.820312 Z M 111.230469 348.511719 L 26.484375 348.511719 L 26.484375 263.765625 L 111.230469 263.765625 Z M 111.230469 348.511719 " fill-opacity="1" fill-rule="nonzero"/></g><path fill="#ffffff" d="M 128.179688 162.074219 L 162.074219 162.074219 L 162.074219 179.023438 L 179.023438 179.023438 L 179.023438 162.074219 L 212.921875 162.074219 L 212.921875 145.125 L 229.871094 145.125 L 229.871094 77.332031 L 212.921875 77.332031 L 212.921875 128.179688 L 195.972656 128.179688 L 195.972656 145.125 L 179.023438 145.125 L 179.023438 128.179688 L 162.074219 128.179688 L 162.074219 111.230469 L 145.125 111.230469 L 145.125 145.125 L 77.332031 145.125 L 77.332031 162.074219 L 94.28125 162.074219 L 94.28125 179.023438 L 111.230469 179.023438 L 111.230469 162.074219 Z M 128.179688 162.074219 " fill-opacity="1" fill-rule="nonzero"/><path fill="#ffffff" d="M 111.230469 179.023438 L 111.230469 195.972656 L 128.179688 195.972656 L 128.179688 179.023438 Z M 111.230469 179.023438 " fill-opacity="1" fill-rule="nonzero"/><g clip-path="url(#eba7e19977)"><path fill="#ffffff" d="M 162.074219 314.613281 L 145.125 314.613281 L 145.125 365.460938 L 179.023438 365.460938 L 179.023438 331.5625 L 162.074219 331.5625 Z M 162.074219 314.613281 " fill-opacity="1" fill-rule="nonzero"/></g><path fill="#ffffff" d="M 179.023438 94.28125 L 195.972656 94.28125 L 195.972656 77.332031 L 179.023438 77.332031 Z M 179.023438 94.28125 " fill-opacity="1" fill-rule="nonzero"/><path fill="#ffffff" d="M 195.972656 111.230469 L 179.023438 111.230469 L 179.023438 128.179688 L 195.972656 128.179688 Z M 195.972656 111.230469 " fill-opacity="1" fill-rule="nonzero"/><path fill="#ffffff" d="M 195.972656 331.5625 L 195.972656 314.613281 L 179.023438 314.613281 L 179.023438 331.5625 Z M 195.972656 331.5625 " fill-opacity="1" fill-rule="nonzero"/><g clip-path="url(#5cd06e3b24)"><path fill="#ffffff" d="M 229.871094 60.382812 L 229.871094 43.433594 L 212.921875 43.433594 L 212.921875 26.484375 L 229.871094 26.484375 L 229.871094 9.539062 L 195.972656 9.539062 L 195.972656 26.484375 L 179.023438 26.484375 L 179.023438 9.539062 L 162.074219 9.539062 L 162.074219 43.433594 L 145.125 43.433594 L 145.125 60.382812 L 162.074219 60.382812 L 162.074219 77.332031 L 179.023438 77.332031 L 179.023438 43.433594 L 195.972656 43.433594 L 195.972656 77.332031 L 212.921875 77.332031 L 212.921875 60.382812 Z M 229.871094 60.382812 " fill-opacity="1" fill-rule="nonzero"/></g><path fill="#ffffff" d="M 212.921875 195.972656 L 229.871094 195.972656 L 229.871094 179.023438 L 212.921875 179.023438 Z M 212.921875 195.972656 " fill-opacity="1" fill-rule="nonzero"/><path fill="#ffffff" d="M 229.871094 212.921875 L 212.921875 212.921875 L 212.921875 229.871094 L 229.871094 229.871094 Z M 229.871094 212.921875 " fill-opacity="1" fill-rule="nonzero"/><path fill="#ffffff" d="M 212.921875 331.5625 L 229.871094 331.5625 L 229.871094 314.613281 L 212.921875 314.613281 Z M 212.921875 331.5625 " fill-opacity="1" fill-rule="nonzero"/><g clip-path="url(#01fdc8dfce)"><path fill="#ffffff" d="M 212.921875 365.460938 L 229.871094 365.460938 L 229.871094 348.511719 L 212.921875 348.511719 Z M 212.921875 365.460938 " fill-opacity="1" fill-rule="nonzero"/></g><path fill="#ffffff" d="M 246.820312 162.074219 L 246.820312 179.023438 L 263.765625 179.023438 L 263.765625 145.125 L 229.871094 145.125 L 229.871094 162.074219 Z M 246.820312 162.074219 " fill-opacity="1" fill-rule="nonzero"/><path fill="#ffffff" d="M 263.765625 195.972656 L 246.820312 195.972656 L 246.820312 229.871094 L 263.765625 229.871094 Z M 263.765625 195.972656 " fill-opacity="1" fill-rule="nonzero"/><g clip-path="url(#41a961184f)"><path fill="#ffffff" d="M 246.820312 365.460938 L 263.765625 365.460938 L 263.765625 331.5625 L 246.820312 331.5625 Z M 246.820312 365.460938 " fill-opacity="1" fill-rule="nonzero"/></g><path fill="#ffffff" d="M 280.714844 331.5625 L 297.664062 331.5625 L 297.664062 314.613281 L 280.714844 314.613281 Z M 280.714844 331.5625 " fill-opacity="1" fill-rule="nonzero"/><g clip-path="url(#e04f346a9d)"><path fill="#ffffff" d="M 280.714844 365.460938 L 297.664062 365.460938 L 297.664062 348.511719 L 280.714844 348.511719 Z M 280.714844 365.460938 " fill-opacity="1" fill-rule="nonzero"/></g><path fill="#ffffff" d="M 297.664062 43.433594 L 280.714844 43.433594 L 280.714844 94.28125 L 331.5625 94.28125 L 331.5625 43.433594 Z M 297.664062 43.433594 " fill-opacity="1" fill-rule="nonzero"/><path fill="#ffffff" d="M 314.613281 229.871094 L 314.613281 212.921875 L 280.714844 212.921875 L 280.714844 229.871094 Z M 314.613281 229.871094 " fill-opacity="1" fill-rule="nonzero"/><path fill="#ffffff" d="M 297.664062 246.820312 L 297.664062 263.765625 L 280.714844 263.765625 L 280.714844 229.871094 L 263.765625 229.871094 L 263.765625 246.820312 L 246.820312 246.820312 L 246.820312 229.871094 L 229.871094 229.871094 L 229.871094 263.765625 L 212.921875 263.765625 L 212.921875 229.871094 L 195.972656 229.871094 L 195.972656 195.972656 L 162.074219 195.972656 L 162.074219 179.023438 L 145.125 179.023438 L 145.125 195.972656 L 128.179688 195.972656 L 128.179688 212.921875 L 111.230469 212.921875 L 111.230469 229.871094 L 145.125 229.871094 L 145.125 212.921875 L 162.074219 212.921875 L 162.074219 229.871094 L 145.125 229.871094 L 145.125 297.664062 L 162.074219 297.664062 L 162.074219 314.613281 L 179.023438 314.613281 L 179.023438 280.71875 L 162.074219 280.71875 L 162.074219 246.820312 L 179.023438 246.820312 L 179.023438 263.765625 L 195.972656 263.765625 L 195.972656 297.664062 L 212.921875 297.664062 L 212.921875 280.714844 L 229.871094 280.714844 L 229.871094 297.664062 L 246.820312 297.664062 L 246.820312 314.613281 L 263.765625 314.613281 L 263.765625 297.664062 L 280.714844 297.664062 L 280.714844 280.714844 L 314.613281 280.714844 L 314.613281 246.820312 Z M 263.765625 280.714844 L 246.820312 280.714844 L 246.820312 263.765625 L 263.765625 263.765625 Z M 263.765625 280.714844 " fill-opacity="1" fill-rule="nonzero"/><path fill="#ffffff" d="M 314.613281 145.125 L 314.613281 162.074219 L 331.5625 162.074219 L 331.5625 145.125 Z M 314.613281 145.125 " fill-opacity="1" fill-rule="nonzero"/><path fill="#ffffff" d="M 331.5625 280.714844 L 314.613281 280.714844 L 314.613281 314.613281 L 348.511719 314.613281 L 348.511719 297.664062 L 331.5625 297.664062 Z M 331.5625 280.714844 " fill-opacity="1" fill-rule="nonzero"/><g clip-path="url(#c545239fb7)"><path fill="#ffffff" d="M 314.613281 331.5625 L 314.613281 365.460938 L 365.460938 365.460938 L 365.460938 348.511719 L 348.511719 348.511719 L 348.511719 331.5625 Z M 314.613281 331.5625 " fill-opacity="1" fill-rule="nonzero"/></g><g clip-path="url(#a323a069f9)"><path fill="#ffffff" d="M 331.5625 162.074219 L 331.5625 179.023438 L 280.714844 179.023438 L 280.714844 195.972656 L 365.460938 195.972656 L 365.460938 162.074219 Z M 331.5625 162.074219 " fill-opacity="1" fill-rule="nonzero"/></g><g clip-path="url(#fa06896b3b)"><path fill="#ffffff" d="M 348.511719 212.921875 L 331.5625 212.921875 L 331.5625 263.765625 L 348.511719 263.765625 L 348.511719 297.664062 L 365.460938 297.664062 L 365.460938 229.871094 L 348.511719 229.871094 Z M 348.511719 212.921875 " fill-opacity="1" fill-rule="nonzero"/></g><g clip-path="url(#ac461febcd)"><path fill="#ffffff" d="M 348.511719 9.539062 L 246.820312 9.539062 L 246.820312 128.179688 L 365.460938 128.179688 L 365.460938 9.539062 Z M 348.511719 111.230469 L 263.765625 111.230469 L 263.765625 26.484375 L 348.511719 26.484375 Z M 348.511719 111.230469 " fill-opacity="1" fill-rule="nonzero"/></g><g clip-path="url(#3d1724d6fe)"><path fill="#ffffff" d="M 365.460938 331.5625 L 365.460938 314.613281 L 348.511719 314.613281 L 348.511719 331.5625 Z M 365.460938 331.5625 " fill-opacity="1" fill-rule="nonzero"/></g><g clip-path="url(#cdc16825ba)"><path fill="#1d381e" d="M 355.1875 315.53125 L 355.1875 327.867188 L 342.835938 327.867188 L 342.835938 315.53125 L 355.1875 315.53125 " fill-opacity="1" fill-rule="nonzero"/></g><g clip-path="url(#4ac25b2740)"><path fill="#1d381e" d="M 355.1875 303.199219 L 355.1875 315.53125 L 342.835938 315.53125 L 342.835938 303.199219 L 355.1875 303.199219 " fill-opacity="1" fill-rule="nonzero"/></g><g clip-path="url(#1404d65f4f)"><path fill="#a1ca21" d="M 355.1875 290.875 L 355.1875 303.199219 L 342.835938 303.199219 L 342.835938 290.875 L 355.1875 290.875 " fill-opacity="1" fill-rule="nonzero"/></g><path fill="#1d381e" d="M 342.835938 327.867188 L 342.835938 340.199219 L 330.488281 340.199219 L 330.488281 327.867188 L 342.835938 327.867188 " fill-opacity="1" fill-rule="nonzero"/><path fill="#a1ca21" d="M 342.835938 315.53125 L 342.835938 327.867188 L 330.488281 327.867188 L 330.488281 315.53125 L 342.835938 315.53125 " fill-opacity="1" fill-rule="nonzero"/><path fill="#a1ca21" d="M 342.835938 303.199219 L 342.835938 315.53125 L 330.488281 315.53125 L 330.488281 303.199219 L 342.835938 303.199219 " fill-opacity="1" fill-rule="nonzero"/><path fill="#1d381e" d="M 342.835938 290.875 L 342.835938 303.199219 L 330.488281 303.199219 L 330.488281 290.875 L 342.835938 290.875 " fill-opacity="1" fill-rule="nonzero"/><path fill="#a8691d" d="M 342.835938 253.871094 L 342.835938 266.207031 L 330.488281 266.207031 L 330.488281 253.871094 L 342.835938 253.871094 " fill-opacity="1" fill-rule="nonzero"/><path fill="#a8691d" d="M 342.835938 241.546875 L 342.835938 253.871094 L 330.488281 253.871094 L 330.488281 241.546875 L 342.835938 241.546875 " fill-opacity="1" fill-rule="nonzero"/><path fill="#a8691d" d="M 342.835938 229.210938 L 342.835938 241.546875 L 330.488281 241.546875 L 330.488281 229.210938 L 342.835938 229.210938 " fill-opacity="1" fill-rule="nonzero"/><path fill="#1d381e" d="M 330.488281 327.867188 L 330.488281 340.199219 L 318.140625 340.199219 L 318.140625 327.867188 L 330.488281 327.867188 " fill-opacity="1" fill-rule="nonzero"/><path fill="#66c536" d="M 330.488281 315.53125 L 330.488281 327.867188 L 318.140625 327.867188 L 318.140625 315.53125 L 330.488281 315.53125 " fill-opacity="1" fill-rule="nonzero"/><path fill="#1d381e" d="M 330.488281 303.199219 L 330.488281 315.53125 L 318.140625 315.53125 L 318.140625 303.199219 L 330.488281 303.199219 " fill-opacity="1" fill-rule="nonzero"/><path fill="#a8691d" d="M 330.488281 266.207031 L 330.488281 278.539062 L 318.140625 278.539062 L 318.140625 266.207031 L 330.488281 266.207031 " fill-opacity="1" fill-rule="nonzero"/><path fill="#a8691d" d="M 330.488281 253.871094 L 330.488281 266.207031 L 318.140625 266.207031 L 318.140625 253.871094 L 330.488281 253.871094 " fill-opacity="1" fill-rule="nonzero"/><path fill="#d38d18" d="M 330.488281 241.546875 L 330.488281 253.871094 L 318.140625 253.871094 L 318.140625 241.546875 L 330.488281 241.546875 " fill-opacity="1" fill-rule="nonzero"/><path fill="#a8691d" d="M 330.488281 229.210938 L 330.488281 241.546875 L 318.140625 241.546875 L 318.140625 229.210938 L 330.488281 229.210938 " fill-opacity="1" fill-rule="nonzero"/><path fill="#a8691d" d="M 330.488281 216.878906 L 330.488281 229.210938 L 318.140625 229.210938 L 318.140625 216.878906 L 330.488281 216.878906 " fill-opacity="1" fill-rule="nonzero"/><path fill="#3e373d" d="M 318.140625 352.523438 L 318.140625 364.859375 L 305.796875 364.859375 L 305.796875 352.523438 L 318.140625 352.523438 " fill-opacity="1" fill-rule="nonzero"/><path fill="#1d381e" d="M 318.140625 340.199219 L 318.140625 352.523438 L 305.796875 352.523438 L 305.796875 340.199219 L 318.140625 340.199219 " fill-opacity="1" fill-rule="nonzero"/><path fill="#358e3f" d="M 318.140625 327.867188 L 318.140625 340.199219 L 305.796875 340.199219 L 305.796875 327.867188 L 318.140625 327.867188 " fill-opacity="1" fill-rule="nonzero"/><path fill="#66c536" d="M 318.140625 315.53125 L 318.140625 327.867188 L 305.796875 327.867188 L 305.796875 315.53125 L 318.140625 315.53125 " fill-opacity="1" fill-rule="nonzero"/><path fill="#1d381e" d="M 318.140625 303.199219 L 318.140625 315.53125 L 305.796875 315.53125 L 305.796875 303.199219 L 318.140625 303.199219 " fill-opacity="1" fill-rule="nonzero"/><path fill="#a8691d" d="M 318.140625 278.539062 L 318.140625 290.875 L 305.796875 290.875 L 305.796875 278.539062 L 318.140625 278.539062 " fill-opacity="1" fill-rule="nonzero"/><path fill="#a8691d" d="M 318.140625 266.207031 L 318.140625 278.539062 L 305.796875 278.539062 L 305.796875 266.207031 L 318.140625 266.207031 " fill-opacity="1" fill-rule="nonzero"/><path fill="#fad00d" d="M 318.140625 253.871094 L 318.140625 266.207031 L 305.796875 266.207031 L 305.796875 253.871094 L 318.140625 253.871094 " fill-opacity="1" fill-rule="nonzero"/><path fill="#e3a03a" d="M 318.140625 241.546875 L 318.140625 253.871094 L 305.796875 253.871094 L 305.796875 241.546875 L 318.140625 241.546875 " fill-opacity="1" fill-rule="nonzero"/><path fill="#d38d18" d="M 318.140625 229.210938 L 318.140625 241.546875 L 305.796875 241.546875 L 305.796875 229.210938 L 318.140625 229.210938 " fill-opacity="1" fill-rule="nonzero"/><path fill="#a8691d" d="M 318.140625 216.878906 L 318.140625 229.210938 L 305.796875 229.210938 L 305.796875 216.878906 L 318.140625 216.878906 " fill-opacity="1" fill-rule="nonzero"/><path fill="#a8691d" d="M 318.140625 204.542969 L 318.140625 216.878906 L 305.796875 216.878906 L 305.796875 204.542969 L 318.140625 204.542969 " fill-opacity="1" fill-rule="nonzero"/><path fill="#3e373d" d="M 305.796875 352.523438 L 305.796875 364.859375 L 293.453125 364.859375 L 293.453125 352.523438 L 305.796875 352.523438 " fill-opacity="1" fill-rule="nonzero"/><path fill="#358e3f" d="M 305.796875 340.199219 L 305.796875 352.523438 L 293.453125 352.523438 L 293.453125 340.199219 L 305.796875 340.199219 " fill-opacity="1" fill-rule="nonzero"/><path fill="#358e3f" d="M 305.796875 327.867188 L 305.796875 340.199219 L 293.453125 340.199219 L 293.453125 327.867188 L 305.796875 327.867188 " fill-opacity="1" fill-rule="nonzero"/><path fill="#1d381e" d="M 305.796875 315.53125 L 305.796875 327.867188 L 293.453125 327.867188 L 293.453125 315.53125 L 305.796875 315.53125 " fill-opacity="1" fill-rule="nonzero"/><path fill="#a8691d" d="M 305.796875 278.539062 L 305.796875 290.875 L 293.453125 290.875 L 293.453125 278.539062 L 305.796875 278.539062 " fill-opacity="1" fill-rule="nonzero"/><path fill="#e3a03a" d="M 305.796875 266.207031 L 305.796875 278.539062 L 293.453125 278.539062 L 293.453125 266.207031 L 305.796875 266.207031 " fill-opacity="1" fill-rule="nonzero"/><path fill="#e3a03a" d="M 305.796875 253.871094 L 305.796875 266.207031 L 293.453125 266.207031 L 293.453125 253.871094 L 305.796875 253.871094 " fill-opacity="1" fill-rule="nonzero"/><path fill="#fad00d" d="M 305.796875 241.546875 L 305.796875 253.871094 L 293.453125 253.871094 L 293.453125 241.546875 L 305.796875 241.546875 " fill-opacity="1" fill-rule="nonzero"/><path fill="#fad00d" d="M 305.796875 229.210938 L 305.796875 241.546875 L 293.453125 241.546875 L 293.453125 229.210938 L 305.796875 229.210938 " fill-opacity="1" fill-rule="nonzero"/><path fill="#e3a03a" d="M 305.796875 216.878906 L 305.796875 229.210938 L 293.453125 229.210938 L 293.453125 216.878906 L 305.796875 216.878906 " fill-opacity="1" fill-rule="nonzero"/><path fill="#a8691d" d="M 305.796875 204.542969 L 305.796875 216.878906 L 293.453125 216.878906 L 293.453125 204.542969 L 305.796875 204.542969 " fill-opacity="1" fill-rule="nonzero"/><path fill="#1d381e" d="M 293.453125 352.523438 L 293.453125 364.859375 L 281.101562 364.859375 L 281.101562 352.523438 L 293.453125 352.523438 " fill-opacity="1" fill-rule="nonzero"/><path fill="#358e3f" d="M 293.453125 340.199219 L 293.453125 352.523438 L 281.101562 352.523438 L 281.101562 340.199219 L 293.453125 340.199219 " fill-opacity="1" fill-rule="nonzero"/><path fill="#1d381e" d="M 293.453125 327.867188 L 293.453125 340.199219 L 281.101562 340.199219 L 281.101562 327.867188 L 293.453125 327.867188 " fill-opacity="1" fill-rule="nonzero"/><path fill="#358e3f" d="M 293.453125 315.53125 L 293.453125 327.867188 L 281.101562 327.867188 L 281.101562 315.53125 L 293.453125 315.53125 " fill-opacity="1" fill-rule="nonzero"/><path fill="#1d381e" d="M 293.453125 303.199219 L 293.453125 315.53125 L 281.101562 315.53125 L 281.101562 303.199219 L 293.453125 303.199219 " fill-opacity="1" fill-rule="nonzero"/><path fill="#1d381e" d="M 293.453125 290.875 L 293.453125 303.199219 L 281.101562 303.199219 L 281.101562 290.875 L 293.453125 290.875 " fill-opacity="1" fill-rule="nonzero"/><path fill="#a8691d" d="M 293.453125 278.539062 L 293.453125 290.875 L 281.101562 290.875 L 281.101562 278.539062 L 293.453125 278.539062 " fill-opacity="1" fill-rule="nonzero"/><path fill="#d38d18" d="M 293.453125 266.207031 L 293.453125 278.539062 L 281.101562 278.539062 L 281.101562 266.207031 L 293.453125 266.207031 " fill-opacity="1" fill-rule="nonzero"/><path fill="#fad00d" d="M 293.453125 253.871094 L 293.453125 266.207031 L 281.101562 266.207031 L 281.101562 253.871094 L 293.453125 253.871094 " fill-opacity="1" fill-rule="nonzero"/><path fill="#fad00d" d="M 293.453125 241.546875 L 293.453125 253.871094 L 281.101562 253.871094 L 281.101562 241.546875 L 293.453125 241.546875 " fill-opacity="1" fill-rule="nonzero"/><path fill="#fad00d" d="M 293.453125 229.210938 L 293.453125 241.546875 L 281.101562 241.546875 L 281.101562 229.210938 L 293.453125 229.210938 " fill-opacity="1" fill-rule="nonzero"/><path fill="#fad00d" d="M 293.453125 216.878906 L 293.453125 229.210938 L 281.101562 229.210938 L 281.101562 216.878906 L 293.453125 216.878906 " fill-opacity="1" fill-rule="nonzero"/><path fill="#a8691d" d="M 293.453125 204.542969 L 293.453125 216.878906 L 281.101562 216.878906 L 281.101562 204.542969 L 293.453125 204.542969 " fill-opacity="1" fill-rule="nonzero"/><path fill="#1d381e" d="M 281.101562 352.523438 L 281.101562 364.859375 L 268.757812 364.859375 L 268.757812 352.523438 L 281.101562 352.523438 " fill-opacity="1" fill-rule="nonzero"/><path fill="#1d381e" d="M 281.101562 340.199219 L 281.101562 352.523438 L 268.757812 352.523438 L 268.757812 340.199219 L 281.101562 340.199219 " fill-opacity="1" fill-rule="nonzero"/><path fill="#235528" d="M 281.101562 327.867188 L 281.101562 340.199219 L 268.757812 340.199219 L 268.757812 327.867188 L 281.101562 327.867188 " fill-opacity="1" fill-rule="nonzero"/><path fill="#235528" d="M 281.101562 315.53125 L 281.101562 327.867188 L 268.757812 327.867188 L 268.757812 315.53125 L 281.101562 315.53125 " fill-opacity="1" fill-rule="nonzero"/><path fill="#235528" d="M 281.101562 303.199219 L 281.101562 315.53125 L 268.757812 315.53125 L 268.757812 303.199219 L 281.101562 303.199219 " fill-opacity="1" fill-rule="nonzero"/><path fill="#235528" d="M 281.101562 290.875 L 281.101562 303.199219 L 268.757812 303.199219 L 268.757812 290.875 L 281.101562 290.875 " fill-opacity="1" fill-rule="nonzero"/><path fill="#a8691d" d="M 281.101562 278.539062 L 281.101562 290.875 L 268.757812 290.875 L 268.757812 278.539062 L 281.101562 278.539062 " fill-opacity="1" fill-rule="nonzero"/><path fill="#e3a03a" d="M 281.101562 266.207031 L 281.101562 278.539062 L 268.757812 278.539062 L 268.757812 266.207031 L 281.101562 266.207031 " fill-opacity="1" fill-rule="nonzero"/><path fill="#fad00d" d="M 281.101562 253.871094 L 281.101562 266.207031 L 268.757812 266.207031 L 268.757812 253.871094 L 281.101562 253.871094 " fill-opacity="1" fill-rule="nonzero"/><path fill="#fad00d" d="M 281.101562 241.546875 L 281.101562 253.871094 L 268.757812 253.871094 L 268.757812 241.546875 L 281.101562 241.546875 " fill-opacity="1" fill-rule="nonzero"/><path fill="#fad00d" d="M 281.101562 229.210938 L 281.101562 241.546875 L 268.757812 241.546875 L 268.757812 229.210938 L 281.101562 229.210938 " fill-opacity="1" fill-rule="nonzero"/><path fill="#fad00d" d="M 281.101562 216.878906 L 281.101562 229.210938 L 268.757812 229.210938 L 268.757812 216.878906 L 281.101562 216.878906 " fill-opacity="1" fill-rule="nonzero"/><path fill="#fad00d" d="M 281.101562 204.542969 L 281.101562 216.878906 L 268.757812 216.878906 L 268.757812 204.542969 L 281.101562 204.542969 " fill-opacity="1" fill-rule="nonzero"/><path fill="#a8691d" d="M 281.101562 192.210938 L 281.101562 204.542969 L 268.757812 204.542969 L 268.757812 192.210938 L 281.101562 192.210938 " fill-opacity="1" fill-rule="nonzero"/><path fill="#1d381e" d="M 268.757812 352.523438 L 268.757812 364.859375 L 256.40625 364.859375 L 256.40625 352.523438 L 268.757812 352.523438 " fill-opacity="1" fill-rule="nonzero"/><path fill="#827481" d="M 268.757812 340.199219 L 268.757812 352.523438 L 256.40625 352.523438 L 256.40625 340.199219 L 268.757812 340.199219 " fill-opacity="1" fill-rule="nonzero"/><path fill="#827481" d="M 268.757812 327.867188 L 268.757812 340.199219 L 256.40625 340.199219 L 256.40625 327.867188 L 268.757812 327.867188 " fill-opacity="1" fill-rule="nonzero"/><path fill="#827481" d="M 268.757812 315.53125 L 268.757812 327.867188 L 256.40625 327.867188 L 256.40625 315.53125 L 268.757812 315.53125 " fill-opacity="1" fill-rule="nonzero"/><path fill="#827481" d="M 268.757812 303.199219 L 268.757812 315.53125 L 256.40625 315.53125 L 256.40625 303.199219 L 268.757812 303.199219 " fill-opacity="1" fill-rule="nonzero"/><path fill="#827481" d="M 268.757812 290.875 L 268.757812 303.199219 L 256.40625 303.199219 L 256.40625 290.875 L 268.757812 290.875 " fill-opacity="1" fill-rule="nonzero"/><path fill="#a8691d" d="M 268.757812 278.539062 L 268.757812 290.875 L 256.40625 290.875 L 256.40625 278.539062 L 268.757812 278.539062 " fill-opacity="1" fill-rule="nonzero"/><path fill="#d38d18" d="M 268.757812 266.207031 L 268.757812 278.539062 L 256.40625 278.539062 L 256.40625 266.207031 L 268.757812 266.207031 " fill-opacity="1" fill-rule="nonzero"/><path fill="#fad00d" d="M 268.757812 253.871094 L 268.757812 266.207031 L 256.40625 266.207031 L 256.40625 253.871094 L 268.757812 253.871094 " fill-opacity="1" fill-rule="nonzero"/><path fill="#fad00d" d="M 268.757812 241.546875 L 268.757812 253.871094 L 256.40625 253.871094 L 256.40625 241.546875 L 268.757812 241.546875 " fill-opacity="1" fill-rule="nonzero"/><path fill="#e98119" d="M 268.757812 229.210938 L 268.757812 241.546875 L 256.40625 241.546875 L 256.40625 229.210938 L 268.757812 229.210938 " fill-opacity="1" fill-rule="nonzero"/><path fill="#a8691d" d="M 268.757812 216.878906 L 268.757812 229.210938 L 256.40625 229.210938 L 256.40625 216.878906 L 268.757812 216.878906 " fill-opacity="1" fill-rule="nonzero"/><path fill="#e98119" d="M 268.757812 204.542969 L 268.757812 216.878906 L 256.40625 216.878906 L 256.40625 204.542969 L 268.757812 204.542969 " fill-opacity="1" fill-rule="nonzero"/><path fill="#a8691d" d="M 268.757812 192.210938 L 268.757812 204.542969 L 256.40625 204.542969 L 256.40625 192.210938 L 268.757812 192.210938 " fill-opacity="1" fill-rule="nonzero"/><path fill="#3e373d" d="M 256.40625 352.523438 L 256.40625 364.859375 L 244.066406 364.859375 L 244.066406 352.523438 L 256.40625 352.523438 " fill-opacity="1" fill-rule="nonzero"/><path fill="#827481" d="M 256.40625 340.199219 L 256.40625 352.523438 L 244.066406 352.523438 L 244.066406 340.199219 L 256.40625 340.199219 " fill-opacity="1" fill-rule="nonzero"/><path fill="#b3acb1" d="M 256.40625 327.867188 L 256.40625 340.199219 L 244.066406 340.199219 L 244.066406 327.867188 L 256.40625 327.867188 " fill-opacity="1" fill-rule="nonzero"/><path fill="#b3acb1" d="M 256.40625 315.53125 L 256.40625 327.867188 L 244.066406 327.867188 L 244.066406 315.53125 L 256.40625 315.53125 " fill-opacity="1" fill-rule="nonzero"/><path fill="#b3acb1" d="M 256.40625 303.199219 L 256.40625 315.53125 L 244.066406 315.53125 L 244.066406 303.199219 L 256.40625 303.199219 " fill-opacity="1" fill-rule="nonzero"/><path fill="#827481" d="M 256.40625 290.875 L 256.40625 303.199219 L 244.066406 303.199219 L 244.066406 290.875 L 256.40625 290.875 " fill-opacity="1" fill-rule="nonzero"/><path fill="#a8691d" d="M 256.40625 278.539062 L 256.40625 290.875 L 244.066406 290.875 L 244.066406 278.539062 L 256.40625 278.539062 " fill-opacity="1" fill-rule="nonzero"/><path fill="#e3a03a" d="M 256.40625 266.207031 L 256.40625 278.539062 L 244.066406 278.539062 L 244.066406 266.207031 L 256.40625 266.207031 " fill-opacity="1" fill-rule="nonzero"/><path fill="#fad00d" d="M 256.40625 253.871094 L 256.40625 266.207031 L 244.066406 266.207031 L 244.066406 253.871094 L 256.40625 253.871094 " fill-opacity="1" fill-rule="nonzero"/><path fill="#fad00d" d="M 256.40625 241.546875 L 256.40625 253.871094 L 244.066406 253.871094 L 244.066406 241.546875 L 256.40625 241.546875 " fill-opacity="1" fill-rule="nonzero"/><path fill="#a8691d" d="M 256.40625 229.210938 L 256.40625 241.546875 L 244.066406 241.546875 L 244.066406 229.210938 L 256.40625 229.210938 " fill-opacity="1" fill-rule="nonzero"/><path fill="#e98119" d="M 256.40625 216.878906 L 256.40625 229.210938 L 244.066406 229.210938 L 244.066406 216.878906 L 256.40625 216.878906 " fill-opacity="1" fill-rule="nonzero"/><path fill="#a8691d" d="M 256.40625 204.542969 L 256.40625 216.878906 L 244.066406 216.878906 L 244.066406 204.542969 L 256.40625 204.542969 " fill-opacity="1" fill-rule="nonzero"/><path fill="#a8691d" d="M 256.40625 192.210938 L 256.40625 204.542969 L 244.066406 204.542969 L 244.066406 192.210938 L 256.40625 192.210938 " fill-opacity="1" fill-rule="nonzero"/><path fill="#3e373d" d="M 244.066406 352.523438 L 244.066406 364.859375 L 231.71875 364.859375 L 231.71875 352.523438 L 244.066406 352.523438 " fill-opacity="1" fill-rule="nonzero"/><path fill="#c9bec5" d="M 244.066406 340.199219 L 244.066406 352.523438 L 231.71875 352.523438 L 231.71875 340.199219 L 244.066406 340.199219 " fill-opacity="1" fill-rule="nonzero"/><path fill="#b3acb1" d="M 244.066406 327.867188 L 244.066406 340.199219 L 231.71875 340.199219 L 231.71875 327.867188 L 244.066406 327.867188 " fill-opacity="1" fill-rule="nonzero"/><path fill="#999799" d="M 244.066406 315.53125 L 244.066406 327.867188 L 231.71875 327.867188 L 231.71875 315.53125 L 244.066406 315.53125 " fill-opacity="1" fill-rule="nonzero"/><path fill="#c9bec5" d="M 244.066406 303.199219 L 244.066406 315.53125 L 231.71875 315.53125 L 231.71875 303.199219 L 244.066406 303.199219 " fill-opacity="1" fill-rule="nonzero"/><path fill="#999799" d="M 244.066406 290.875 L 244.066406 303.199219 L 231.71875 303.199219 L 231.71875 290.875 L 244.066406 290.875 " fill-opacity="1" fill-rule="nonzero"/><path fill="#a8691d" d="M 244.066406 278.539062 L 244.066406 290.875 L 231.71875 290.875 L 231.71875 278.539062 L 244.066406 278.539062 " fill-opacity="1" fill-rule="nonzero"/><path fill="#e3a03a" d="M 244.066406 266.207031 L 244.066406 278.539062 L 231.71875 278.539062 L 231.71875 266.207031 L 244.066406 266.207031 " fill-opacity="1" fill-rule="nonzero"/><path fill="#fad00d" d="M 244.066406 253.871094 L 244.066406 266.207031 L 231.71875 266.207031 L 231.71875 253.871094 L 244.066406 253.871094 " fill-opacity="1" fill-rule="nonzero"/><path fill="#fad00d" d="M 244.066406 241.546875 L 244.066406 253.871094 L 231.71875 253.871094 L 231.71875 241.546875 L 244.066406 241.546875 " fill-opacity="1" fill-rule="nonzero"/><path fill="#e3a03a" d="M 244.066406 229.210938 L 244.066406 241.546875 L 231.71875 241.546875 L 231.71875 229.210938 L 244.066406 229.210938 " fill-opacity="1" fill-rule="nonzero"/><path fill="#a8691d" d="M 244.066406 216.878906 L 244.066406 229.210938 L 231.71875 229.210938 L 231.71875 216.878906 L 244.066406 216.878906 " fill-opacity="1" fill-rule="nonzero"/><path fill="#e3a03a" d="M 244.066406 204.542969 L 244.066406 216.878906 L 231.71875 216.878906 L 231.71875 204.542969 L 244.066406 204.542969 " fill-opacity="1" fill-rule="nonzero"/><path fill="#a8691d" d="M 244.066406 192.210938 L 244.066406 204.542969 L 231.71875 204.542969 L 231.71875 192.210938 L 244.066406 192.210938 " fill-opacity="1" fill-rule="nonzero"/><path fill="#a8691d" d="M 244.066406 179.886719 L 244.066406 192.210938 L 231.71875 192.210938 L 231.71875 179.886719 L 244.066406 179.886719 " fill-opacity="1" fill-rule="nonzero"/><path fill="#3e373d" d="M 231.71875 352.523438 L 231.71875 364.859375 L 219.371094 364.859375 L 219.371094 352.523438 L 231.71875 352.523438 " fill-opacity="1" fill-rule="nonzero"/><path fill="#b3acb1" d="M 231.71875 340.199219 L 231.71875 352.523438 L 219.371094 352.523438 L 219.371094 340.199219 L 231.71875 340.199219 " fill-opacity="1" fill-rule="nonzero"/><path fill="#999799" d="M 231.71875 327.867188 L 231.71875 340.199219 L 219.371094 340.199219 L 219.371094 327.867188 L 231.71875 327.867188 " fill-opacity="1" fill-rule="nonzero"/><path fill="#c9bec5" d="M 231.71875 315.53125 L 231.71875 327.867188 L 219.371094 327.867188 L 219.371094 315.53125 L 231.71875 315.53125 " fill-opacity="1" fill-rule="nonzero"/><path fill="#999799" d="M 231.71875 303.199219 L 231.71875 315.53125 L 219.371094 315.53125 L 219.371094 303.199219 L 231.71875 303.199219 " fill-opacity="1" fill-rule="nonzero"/><path fill="#999799" d="M 231.71875 290.875 L 231.71875 303.199219 L 219.371094 303.199219 L 219.371094 290.875 L 231.71875 290.875 " fill-opacity="1" fill-rule="nonzero"/><path fill="#a8691d" d="M 231.71875 278.539062 L 231.71875 290.875 L 219.371094 290.875 L 219.371094 278.539062 L 231.71875 278.539062 " fill-opacity="1" fill-rule="nonzero"/><path fill="#e3a03a" d="M 231.71875 266.207031 L 231.71875 278.539062 L 219.371094 278.539062 L 219.371094 266.207031 L 231.71875 266.207031 " fill-opacity="1" fill-rule="nonzero"/><path fill="#fad00d" d="M 231.71875 253.871094 L 231.71875 266.207031 L 219.371094 266.207031 L 219.371094 253.871094 L 231.71875 253.871094 " fill-opacity="1" fill-rule="nonzero"/><path fill="#fad00d" d="M 231.71875 241.546875 L 231.71875 253.871094 L 219.371094 253.871094 L 219.371094 241.546875 L 231.71875 241.546875 " fill-opacity="1" fill-rule="nonzero"/><path fill="#fad00d" d="M 231.71875 229.210938 L 231.71875 241.546875 L 219.371094 241.546875 L 219.371094 229.210938 L 231.71875 229.210938 " fill-opacity="1" fill-rule="nonzero"/><path fill="#fad00d" d="M 231.71875 216.878906 L 231.71875 229.210938 L 219.371094 229.210938 L 219.371094 216.878906 L 231.71875 216.878906 " fill-opacity="1" fill-rule="nonzero"/><path fill="#fad00d" d="M 231.71875 204.542969 L 231.71875 216.878906 L 219.371094 216.878906 L 219.371094 204.542969 L 231.71875 204.542969 " fill-opacity="1" fill-rule="nonzero"/><path fill="#f5e258" d="M 231.71875 192.210938 L 231.71875 204.542969 L 219.371094 204.542969 L 219.371094 192.210938 L 231.71875 192.210938 " fill-opacity="1" fill-rule="nonzero"/><path fill="#a8691d" d="M 231.71875 179.886719 L 231.71875 192.210938 L 219.371094 192.210938 L 219.371094 179.886719 L 231.71875 179.886719 " fill-opacity="1" fill-rule="nonzero"/><path fill="#3e373d" d="M 219.371094 352.523438 L 219.371094 364.859375 L 207.019531 364.859375 L 207.019531 352.523438 L 219.371094 352.523438 " fill-opacity="1" fill-rule="nonzero"/><path fill="#c9bec5" d="M 219.371094 340.199219 L 219.371094 352.523438 L 207.019531 352.523438 L 207.019531 340.199219 L 219.371094 340.199219 " fill-opacity="1" fill-rule="nonzero"/><path fill="#b3acb1" d="M 219.371094 327.867188 L 219.371094 340.199219 L 207.019531 340.199219 L 207.019531 327.867188 L 219.371094 327.867188 " fill-opacity="1" fill-rule="nonzero"/><path fill="#999799" d="M 219.371094 315.53125 L 219.371094 327.867188 L 207.019531 327.867188 L 207.019531 315.53125 L 219.371094 315.53125 " fill-opacity="1" fill-rule="nonzero"/><path fill="#c9bec5" d="M 219.371094 303.199219 L 219.371094 315.53125 L 207.019531 315.53125 L 207.019531 303.199219 L 219.371094 303.199219 " fill-opacity="1" fill-rule="nonzero"/><path fill="#999799" d="M 219.371094 290.875 L 219.371094 303.199219 L 207.019531 303.199219 L 207.019531 290.875 L 219.371094 290.875 " fill-opacity="1" fill-rule="nonzero"/><path fill="#a8691d" d="M 219.371094 278.539062 L 219.371094 290.875 L 207.019531 290.875 L 207.019531 278.539062 L 219.371094 278.539062 " fill-opacity="1" fill-rule="nonzero"/><path fill="#e3a03a" d="M 219.371094 266.207031 L 219.371094 278.539062 L 207.019531 278.539062 L 207.019531 266.207031 L 219.371094 266.207031 " fill-opacity="1" fill-rule="nonzero"/><path fill="#fad00d" d="M 219.371094 253.871094 L 219.371094 266.207031 L 207.019531 266.207031 L 207.019531 253.871094 L 219.371094 253.871094 " fill-opacity="1" fill-rule="nonzero"/><path fill="#fad00d" d="M 219.371094 241.546875 L 219.371094 253.871094 L 207.019531 253.871094 L 207.019531 241.546875 L 219.371094 241.546875 " fill-opacity="1" fill-rule="nonzero"/><path fill="#fad00d" d="M 219.371094 229.210938 L 219.371094 241.546875 L 207.019531 241.546875 L 207.019531 229.210938 L 219.371094 229.210938 " fill-opacity="1" fill-rule="nonzero"/><path fill="#fad00d" d="M 219.371094 216.878906 L 219.371094 229.210938 L 207.019531 229.210938 L 207.019531 216.878906 L 219.371094 216.878906 " fill-opacity="1" fill-rule="nonzero"/><path fill="#fad00d" d="M 219.371094 204.542969 L 219.371094 216.878906 L 207.019531 216.878906 L 207.019531 204.542969 L 219.371094 204.542969 " fill-opacity="1" fill-rule="nonzero"/><path fill="#f5e258" d="M 219.371094 192.210938 L 219.371094 204.542969 L 207.019531 204.542969 L 207.019531 192.210938 L 219.371094 192.210938 " fill-opacity="1" fill-rule="nonzero"/><path fill="#a8691d" d="M 219.371094 179.886719 L 219.371094 192.210938 L 207.019531 192.210938 L 207.019531 179.886719 L 219.371094 179.886719 " fill-opacity="1" fill-rule="nonzero"/><path fill="#3e373d" d="M 207.019531 352.523438 L 207.019531 364.859375 L 194.679688 364.859375 L 194.679688 352.523438 L 207.019531 352.523438 " fill-opacity="1" fill-rule="nonzero"/><path fill="#c9bec5" d="M 207.019531 340.199219 L 207.019531 352.523438 L 194.679688 352.523438 L 194.679688 340.199219 L 207.019531 340.199219 " fill-opacity="1" fill-rule="nonzero"/><path fill="#c9bec5" d="M 207.019531 327.867188 L 207.019531 340.199219 L 194.679688 340.199219 L 194.679688 327.867188 L 207.019531 327.867188 " fill-opacity="1" fill-rule="nonzero"/><path fill="#c9bec5" d="M 207.019531 315.53125 L 207.019531 327.867188 L 194.679688 327.867188 L 194.679688 315.53125 L 207.019531 315.53125 " fill-opacity="1" fill-rule="nonzero"/><path fill="#999799" d="M 207.019531 303.199219 L 207.019531 315.53125 L 194.679688 315.53125 L 194.679688 303.199219 L 207.019531 303.199219 " fill-opacity="1" fill-rule="nonzero"/><path fill="#827481" d="M 207.019531 290.875 L 207.019531 303.199219 L 194.679688 303.199219 L 194.679688 290.875 L 207.019531 290.875 " fill-opacity="1" fill-rule="nonzero"/><path fill="#a8691d" d="M 207.019531 278.539062 L 207.019531 290.875 L 194.679688 290.875 L 194.679688 278.539062 L 207.019531 278.539062 " fill-opacity="1" fill-rule="nonzero"/><path fill="#e3a03a" d="M 207.019531 266.207031 L 207.019531 278.539062 L 194.679688 278.539062 L 194.679688 266.207031 L 207.019531 266.207031 " fill-opacity="1" fill-rule="nonzero"/><path fill="#fad00d" d="M 207.019531 253.871094 L 207.019531 266.207031 L 194.679688 266.207031 L 194.679688 253.871094 L 207.019531 253.871094 " fill-opacity="1" fill-rule="nonzero"/><path fill="#fad00d" d="M 207.019531 241.546875 L 207.019531 253.871094 L 194.679688 253.871094 L 194.679688 241.546875 L 207.019531 241.546875 " fill-opacity="1" fill-rule="nonzero"/><path fill="#fad00d" d="M 207.019531 229.210938 L 207.019531 241.546875 L 194.679688 241.546875 L 194.679688 229.210938 L 207.019531 229.210938 " fill-opacity="1" fill-rule="nonzero"/><path fill="#fad00d" d="M 207.019531 216.878906 L 207.019531 229.210938 L 194.679688 229.210938 L 194.679688 216.878906 L 207.019531 216.878906 " fill-opacity="1" fill-rule="nonzero"/><path fill="#f5e258" d="M 207.019531 204.542969 L 207.019531 216.878906 L 194.679688 216.878906 L 194.679688 204.542969 L 207.019531 204.542969 " fill-opacity="1" fill-rule="nonzero"/><path fill="#f5e258" d="M 207.019531 192.210938 L 207.019531 204.542969 L 194.679688 204.542969 L 194.679688 192.210938 L 207.019531 192.210938 " fill-opacity="1" fill-rule="nonzero"/><path fill="#a8691d" d="M 207.019531 179.886719 L 207.019531 192.210938 L 194.679688 192.210938 L 194.679688 179.886719 L 207.019531 179.886719 " fill-opacity="1" fill-rule="nonzero"/><path fill="#3e373d" d="M 194.679688 352.523438 L 194.679688 364.859375 L 182.332031 364.859375 L 182.332031 352.523438 L 194.679688 352.523438 " fill-opacity="1" fill-rule="nonzero"/><path fill="#ffffff" d="M 194.679688 340.199219 L 194.679688 352.523438 L 182.332031 352.523438 L 182.332031 340.199219 L 194.679688 340.199219 " fill-opacity="1" fill-rule="nonzero"/><path fill="#c9bec5" d="M 194.679688 327.867188 L 194.679688 340.199219 L 182.332031 340.199219 L 182.332031 327.867188 L 194.679688 327.867188 " fill-opacity="1" fill-rule="nonzero"/><path fill="#c9bec5" d="M 194.679688 315.53125 L 194.679688 327.867188 L 182.332031 327.867188 L 182.332031 315.53125 L 194.679688 315.53125 " fill-opacity="1" fill-rule="nonzero"/><path fill="#c9bec5" d="M 194.679688 303.199219 L 194.679688 315.53125 L 182.332031 315.53125 L 182.332031 303.199219 L 194.679688 303.199219 " fill-opacity="1" fill-rule="nonzero"/><path fill="#827481" d="M 194.679688 290.875 L 194.679688 303.199219 L 182.332031 303.199219 L 182.332031 290.875 L 194.679688 290.875 " fill-opacity="1" fill-rule="nonzero"/><path fill="#a8691d" d="M 194.679688 278.539062 L 194.679688 290.875 L 182.332031 290.875 L 182.332031 278.539062 L 194.679688 278.539062 " fill-opacity="1" fill-rule="nonzero"/><path fill="#e3a03a" d="M 194.679688 266.207031 L 194.679688 278.539062 L 182.332031 278.539062 L 182.332031 266.207031 L 194.679688 266.207031 " fill-opacity="1" fill-rule="nonzero"/><path fill="#fad00d" d="M 194.679688 253.871094 L 194.679688 266.207031 L 182.332031 266.207031 L 182.332031 253.871094 L 194.679688 253.871094 " fill-opacity="1" fill-rule="nonzero"/><path fill="#fad00d" d="M 194.679688 241.546875 L 194.679688 253.871094 L 182.332031 253.871094 L 182.332031 241.546875 L 194.679688 241.546875 " fill-opacity="1" fill-rule="nonzero"/><path fill="#fad00d" d="M 194.679688 229.210938 L 194.679688 241.546875 L 182.332031 241.546875 L 182.332031 229.210938 L 194.679688 229.210938 " fill-opacity="1" fill-rule="nonzero"/><path fill="#fad00d" d="M 194.679688 216.878906 L 194.679688 229.210938 L 182.332031 229.210938 L 182.332031 216.878906 L 194.679688 216.878906 " fill-opacity="1" fill-rule="nonzero"/><path fill="#f5e258" d="M 194.679688 204.542969 L 194.679688 216.878906 L 182.332031 216.878906 L 182.332031 204.542969 L 194.679688 204.542969 " fill-opacity="1" fill-rule="nonzero"/><path fill="#f5e258" d="M 194.679688 192.210938 L 194.679688 204.542969 L 182.332031 204.542969 L 182.332031 192.210938 L 194.679688 192.210938 " fill-opacity="1" fill-rule="nonzero"/><path fill="#a8691d" d="M 194.679688 179.886719 L 194.679688 192.210938 L 182.332031 192.210938 L 182.332031 179.886719 L 194.679688 179.886719 " fill-opacity="1" fill-rule="nonzero"/><path fill="#3e373d" d="M 182.332031 352.523438 L 182.332031 364.859375 L 169.980469 364.859375 L 169.980469 352.523438 L 182.332031 352.523438 " fill-opacity="1" fill-rule="nonzero"/><path fill="#ffffff" d="M 182.332031 340.199219 L 182.332031 352.523438 L 169.980469 352.523438 L 169.980469 340.199219 L 182.332031 340.199219 " fill-opacity="1" fill-rule="nonzero"/><path fill="#ffffff" d="M 182.332031 327.867188 L 182.332031 340.199219 L 169.980469 340.199219 L 169.980469 327.867188 L 182.332031 327.867188 " fill-opacity="1" fill-rule="nonzero"/><path fill="#c9bec5" d="M 182.332031 315.53125 L 182.332031 327.867188 L 169.980469 327.867188 L 169.980469 315.53125 L 182.332031 315.53125 " fill-opacity="1" fill-rule="nonzero"/><path fill="#c9bec5" d="M 182.332031 303.199219 L 182.332031 315.53125 L 169.980469 315.53125 L 169.980469 303.199219 L 182.332031 303.199219 " fill-opacity="1" fill-rule="nonzero"/><path fill="#ffffff" d="M 182.332031 290.875 L 182.332031 303.199219 L 169.980469 303.199219 L 169.980469 290.875 L 182.332031 290.875 " fill-opacity="1" fill-rule="nonzero"/><path fill="#a8691d" d="M 182.332031 278.539062 L 182.332031 290.875 L 169.980469 290.875 L 169.980469 278.539062 L 182.332031 278.539062 " fill-opacity="1" fill-rule="nonzero"/><path fill="#e98119" d="M 182.332031 266.207031 L 182.332031 278.539062 L 169.980469 278.539062 L 169.980469 266.207031 L 182.332031 266.207031 " fill-opacity="1" fill-rule="nonzero"/><path fill="#a8691d" d="M 182.332031 253.871094 L 182.332031 266.207031 L 169.980469 266.207031 L 169.980469 253.871094 L 182.332031 253.871094 " fill-opacity="1" fill-rule="nonzero"/><path fill="#e98119" d="M 182.332031 241.546875 L 182.332031 253.871094 L 169.980469 253.871094 L 169.980469 241.546875 L 182.332031 241.546875 " fill-opacity="1" fill-rule="nonzero"/><path fill="#fad00d" d="M 182.332031 229.210938 L 182.332031 241.546875 L 169.980469 241.546875 L 169.980469 229.210938 L 182.332031 229.210938 " fill-opacity="1" fill-rule="nonzero"/><path fill="#fad00d" d="M 182.332031 216.878906 L 182.332031 229.210938 L 169.980469 229.210938 L 169.980469 216.878906 L 182.332031 216.878906 " fill-opacity="1" fill-rule="nonzero"/><path fill="#f5e258" d="M 182.332031 204.542969 L 182.332031 216.878906 L 169.980469 216.878906 L 169.980469 204.542969 L 182.332031 204.542969 " fill-opacity="1" fill-rule="nonzero"/><path fill="#f5e258" d="M 182.332031 192.210938 L 182.332031 204.542969 L 169.980469 204.542969 L 169.980469 192.210938 L 182.332031 192.210938 " fill-opacity="1" fill-rule="nonzero"/><path fill="#a8691d" d="M 182.332031 179.886719 L 182.332031 192.210938 L 169.980469 192.210938 L 169.980469 179.886719 L 182.332031 179.886719 " fill-opacity="1" fill-rule="nonzero"/><path fill="#1d381e" d="M 169.980469 352.523438 L 169.980469 364.859375 L 157.636719 364.859375 L 157.636719 352.523438 L 169.980469 352.523438 " fill-opacity="1" fill-rule="nonzero"/><path fill="#827481" d="M 169.980469 340.199219 L 169.980469 352.523438 L 157.636719 352.523438 L 157.636719 340.199219 L 169.980469 340.199219 " fill-opacity="1" fill-rule="nonzero"/><path fill="#ffffff" d="M 169.980469 327.867188 L 169.980469 340.199219 L 157.636719 340.199219 L 157.636719 327.867188 L 169.980469 327.867188 " fill-opacity="1" fill-rule="nonzero"/><path fill="#ffffff" d="M 169.980469 315.53125 L 169.980469 327.867188 L 157.636719 327.867188 L 157.636719 315.53125 L 169.980469 315.53125 " fill-opacity="1" fill-rule="nonzero"/><path fill="#ffffff" d="M 169.980469 303.199219 L 169.980469 315.53125 L 157.636719 315.53125 L 157.636719 303.199219 L 169.980469 303.199219 " fill-opacity="1" fill-rule="nonzero"/><path fill="#235528" d="M 169.980469 290.875 L 169.980469 303.199219 L 157.636719 303.199219 L 157.636719 290.875 L 169.980469 290.875 " fill-opacity="1" fill-rule="nonzero"/><path fill="#a8691d" d="M 169.980469 278.539062 L 169.980469 290.875 L 157.636719 290.875 L 157.636719 278.539062 L 169.980469 278.539062 " fill-opacity="1" fill-rule="nonzero"/><path fill="#e3a03a" d="M 169.980469 266.207031 L 169.980469 278.539062 L 157.636719 278.539062 L 157.636719 266.207031 L 169.980469 266.207031 " fill-opacity="1" fill-rule="nonzero"/><path fill="#e3a03a" d="M 169.980469 253.871094 L 169.980469 266.207031 L 157.636719 266.207031 L 157.636719 253.871094 L 169.980469 253.871094 " fill-opacity="1" fill-rule="nonzero"/><path fill="#e98119" d="M 169.980469 241.546875 L 169.980469 253.871094 L 157.636719 253.871094 L 157.636719 241.546875 L 169.980469 241.546875 " fill-opacity="1" fill-rule="nonzero"/><path fill="#a8691d" d="M 169.980469 229.210938 L 169.980469 241.546875 L 157.636719 241.546875 L 157.636719 229.210938 L 169.980469 229.210938 " fill-opacity="1" fill-rule="nonzero"/><path fill="#f5e258" d="M 169.980469 216.878906 L 169.980469 229.210938 L 157.636719 229.210938 L 157.636719 216.878906 L 169.980469 216.878906 " fill-opacity="1" fill-rule="nonzero"/><path fill="#f5e258" d="M 169.980469 204.542969 L 169.980469 216.878906 L 157.636719 216.878906 L 157.636719 204.542969 L 169.980469 204.542969 " fill-opacity="1" fill-rule="nonzero"/><path fill="#a8691d" d="M 169.980469 192.210938 L 169.980469 204.542969 L 157.636719 204.542969 L 157.636719 192.210938 L 169.980469 192.210938 " fill-opacity="1" fill-rule="nonzero"/><path fill="#1d381e" d="M 169.980469 179.886719 L 169.980469 192.210938 L 157.636719 192.210938 L 157.636719 179.886719 L 169.980469 179.886719 " fill-opacity="1" fill-rule="nonzero"/><path fill="#1d381e" d="M 169.980469 167.550781 L 169.980469 179.886719 L 157.636719 179.886719 L 157.636719 167.550781 L 169.980469 167.550781 " fill-opacity="1" fill-rule="nonzero"/><path fill="#1d381e" d="M 157.636719 352.523438 L 157.636719 364.859375 L 145.296875 364.859375 L 145.296875 352.523438 L 157.636719 352.523438 " fill-opacity="1" fill-rule="nonzero"/><path fill="#827481" d="M 157.636719 340.199219 L 157.636719 352.523438 L 145.296875 352.523438 L 145.296875 340.199219 L 157.636719 340.199219 " fill-opacity="1" fill-rule="nonzero"/><path fill="#827481" d="M 157.636719 327.867188 L 157.636719 340.199219 L 145.296875 340.199219 L 145.296875 327.867188 L 157.636719 327.867188 " fill-opacity="1" fill-rule="nonzero"/><path fill="#827481" d="M 157.636719 315.53125 L 157.636719 327.867188 L 145.296875 327.867188 L 145.296875 315.53125 L 157.636719 315.53125 " fill-opacity="1" fill-rule="nonzero"/><path fill="#235528" d="M 157.636719 303.199219 L 157.636719 315.53125 L 145.296875 315.53125 L 145.296875 303.199219 L 157.636719 303.199219 " fill-opacity="1" fill-rule="nonzero"/><path fill="#235528" d="M 157.636719 290.875 L 157.636719 303.199219 L 145.296875 303.199219 L 145.296875 290.875 L 157.636719 290.875 " fill-opacity="1" fill-rule="nonzero"/><path fill="#a8691d" d="M 157.636719 278.539062 L 157.636719 290.875 L 145.296875 290.875 L 145.296875 278.539062 L 157.636719 278.539062 " fill-opacity="1" fill-rule="nonzero"/><path fill="#a8691d" d="M 157.636719 266.207031 L 157.636719 278.539062 L 145.296875 278.539062 L 145.296875 266.207031 L 157.636719 266.207031 " fill-opacity="1" fill-rule="nonzero"/><path fill="#e3a03a" d="M 157.636719 253.871094 L 157.636719 266.207031 L 145.296875 266.207031 L 145.296875 253.871094 L 157.636719 253.871094 " fill-opacity="1" fill-rule="nonzero"/><path fill="#a8691d" d="M 157.636719 241.546875 L 157.636719 253.871094 L 145.296875 253.871094 L 145.296875 241.546875 L 157.636719 241.546875 " fill-opacity="1" fill-rule="nonzero"/><path fill="#e3a03a" d="M 157.636719 229.210938 L 157.636719 241.546875 L 145.296875 241.546875 L 145.296875 229.210938 L 157.636719 229.210938 " fill-opacity="1" fill-rule="nonzero"/><path fill="#f5e258" d="M 157.636719 216.878906 L 157.636719 229.210938 L 145.296875 229.210938 L 145.296875 216.878906 L 157.636719 216.878906 " fill-opacity="1" fill-rule="nonzero"/><path fill="#f5e258" d="M 157.636719 204.542969 L 157.636719 216.878906 L 145.296875 216.878906 L 145.296875 204.542969 L 157.636719 204.542969 " fill-opacity="1" fill-rule="nonzero"/><path fill="#a8691d" d="M 157.636719 192.210938 L 157.636719 204.542969 L 145.296875 204.542969 L 145.296875 192.210938 L 157.636719 192.210938 " fill-opacity="1" fill-rule="nonzero"/><path fill="#358e3f" d="M 157.636719 179.886719 L 157.636719 192.210938 L 145.296875 192.210938 L 145.296875 179.886719 L 157.636719 179.886719 " fill-opacity="1" fill-rule="nonzero"/><path fill="#1d381e" d="M 157.636719 167.550781 L 157.636719 179.886719 L 145.296875 179.886719 L 145.296875 167.550781 L 157.636719 167.550781 " fill-opacity="1" fill-rule="nonzero"/><path fill="#1d381e" d="M 157.636719 155.21875 L 157.636719 167.550781 L 145.296875 167.550781 L 145.296875 155.21875 L 157.636719 155.21875 " fill-opacity="1" fill-rule="nonzero"/><path fill="#1d381e" d="M 145.296875 352.523438 L 145.296875 364.859375 L 132.945312 364.859375 L 132.945312 352.523438 L 145.296875 352.523438 " fill-opacity="1" fill-rule="nonzero"/><path fill="#1d381e" d="M 145.296875 340.199219 L 145.296875 352.523438 L 132.945312 352.523438 L 132.945312 340.199219 L 145.296875 340.199219 " fill-opacity="1" fill-rule="nonzero"/><path fill="#1d381e" d="M 145.296875 327.867188 L 145.296875 340.199219 L 132.945312 340.199219 L 132.945312 327.867188 L 145.296875 327.867188 " fill-opacity="1" fill-rule="nonzero"/><path fill="#235528" d="M 145.296875 315.53125 L 145.296875 327.867188 L 132.945312 327.867188 L 132.945312 315.53125 L 145.296875 315.53125 " fill-opacity="1" fill-rule="nonzero"/><path fill="#235528" d="M 145.296875 303.199219 L 145.296875 315.53125 L 132.945312 315.53125 L 132.945312 303.199219 L 145.296875 303.199219 " fill-opacity="1" fill-rule="nonzero"/><path fill="#358e3f" d="M 145.296875 290.875 L 145.296875 303.199219 L 132.945312 303.199219 L 132.945312 290.875 L 145.296875 290.875 " fill-opacity="1" fill-rule="nonzero"/><path fill="#a8691d" d="M 145.296875 278.539062 L 145.296875 290.875 L 132.945312 290.875 L 132.945312 278.539062 L 145.296875 278.539062 " fill-opacity="1" fill-rule="nonzero"/><path fill="#e98119" d="M 145.296875 266.207031 L 145.296875 278.539062 L 132.945312 278.539062 L 132.945312 266.207031 L 145.296875 266.207031 " fill-opacity="1" fill-rule="nonzero"/><path fill="#d38d18" d="M 145.296875 253.871094 L 145.296875 266.207031 L 132.945312 266.207031 L 132.945312 253.871094 L 145.296875 253.871094 " fill-opacity="1" fill-rule="nonzero"/><path fill="#fad00d" d="M 145.296875 241.546875 L 145.296875 253.871094 L 132.945312 253.871094 L 132.945312 241.546875 L 145.296875 241.546875 " fill-opacity="1" fill-rule="nonzero"/><path fill="#f5e258" d="M 145.296875 229.210938 L 145.296875 241.546875 L 132.945312 241.546875 L 132.945312 229.210938 L 145.296875 229.210938 " fill-opacity="1" fill-rule="nonzero"/><path fill="#f5e258" d="M 145.296875 216.878906 L 145.296875 229.210938 L 132.945312 229.210938 L 132.945312 216.878906 L 145.296875 216.878906 " fill-opacity="1" fill-rule="nonzero"/><path fill="#f5e258" d="M 145.296875 204.542969 L 145.296875 216.878906 L 132.945312 216.878906 L 132.945312 204.542969 L 145.296875 204.542969 " fill-opacity="1" fill-rule="nonzero"/><path fill="#a8691d" d="M 145.296875 192.210938 L 145.296875 204.542969 L 132.945312 204.542969 L 132.945312 192.210938 L 145.296875 192.210938 " fill-opacity="1" fill-rule="nonzero"/><path fill="#358e3f" d="M 145.296875 179.886719 L 145.296875 192.210938 L 132.945312 192.210938 L 132.945312 179.886719 L 145.296875 179.886719 " fill-opacity="1" fill-rule="nonzero"/><path fill="#66c536" d="M 145.296875 167.550781 L 145.296875 179.886719 L 132.945312 179.886719 L 132.945312 167.550781 L 145.296875 167.550781 " fill-opacity="1" fill-rule="nonzero"/><path fill="#66c536" d="M 145.296875 155.21875 L 145.296875 167.550781 L 132.945312 167.550781 L 132.945312 155.21875 L 145.296875 155.21875 " fill-opacity="1" fill-rule="nonzero"/><path fill="#1d381e" d="M 145.296875 142.882812 L 145.296875 155.21875 L 132.945312 155.21875 L 132.945312 142.882812 L 145.296875 142.882812 " fill-opacity="1" fill-rule="nonzero"/><path fill="#1d381e" d="M 145.296875 130.558594 L 145.296875 142.882812 L 132.945312 142.882812 L 132.945312 130.558594 L 145.296875 130.558594 " fill-opacity="1" fill-rule="nonzero"/><path fill="#b3319f" d="M 145.296875 105.890625 L 145.296875 118.222656 L 132.945312 118.222656 L 132.945312 105.890625 L 145.296875 105.890625 " fill-opacity="1" fill-rule="nonzero"/><path fill="#b3319f" d="M 145.296875 93.554688 L 145.296875 105.890625 L 132.945312 105.890625 L 132.945312 93.554688 L 145.296875 93.554688 " fill-opacity="1" fill-rule="nonzero"/><path fill="#b3319f" d="M 145.296875 81.234375 L 145.296875 93.554688 L 132.945312 93.554688 L 132.945312 81.234375 L 145.296875 81.234375 " fill-opacity="1" fill-rule="nonzero"/><path fill="#1d381e" d="M 132.945312 352.523438 L 132.945312 364.859375 L 120.601562 364.859375 L 120.601562 352.523438 L 132.945312 352.523438 " fill-opacity="1" fill-rule="nonzero"/><path fill="#358e3f" d="M 132.945312 340.199219 L 132.945312 352.523438 L 120.601562 352.523438 L 120.601562 340.199219 L 132.945312 340.199219 " fill-opacity="1" fill-rule="nonzero"/><path fill="#1d381e" d="M 132.945312 327.867188 L 132.945312 340.199219 L 120.601562 340.199219 L 120.601562 327.867188 L 132.945312 327.867188 " fill-opacity="1" fill-rule="nonzero"/><path fill="#1d381e" d="M 132.945312 315.53125 L 132.945312 327.867188 L 120.601562 327.867188 L 120.601562 315.53125 L 132.945312 315.53125 " fill-opacity="1" fill-rule="nonzero"/><path fill="#1d381e" d="M 132.945312 303.199219 L 132.945312 315.53125 L 120.601562 315.53125 L 120.601562 303.199219 L 132.945312 303.199219 " fill-opacity="1" fill-rule="nonzero"/><path fill="#1d381e" d="M 132.945312 290.875 L 132.945312 303.199219 L 120.601562 303.199219 L 120.601562 290.875 L 132.945312 290.875 " fill-opacity="1" fill-rule="nonzero"/><path fill="#a8691d" d="M 132.945312 278.539062 L 132.945312 290.875 L 120.601562 290.875 L 120.601562 278.539062 L 132.945312 278.539062 " fill-opacity="1" fill-rule="nonzero"/><path fill="#d38d18" d="M 132.945312 266.207031 L 132.945312 278.539062 L 120.601562 278.539062 L 120.601562 266.207031 L 132.945312 266.207031 " fill-opacity="1" fill-rule="nonzero"/><path fill="#e3a03a" d="M 132.945312 253.871094 L 132.945312 266.207031 L 120.601562 266.207031 L 120.601562 253.871094 L 132.945312 253.871094 " fill-opacity="1" fill-rule="nonzero"/><path fill="#f5e258" d="M 132.945312 241.546875 L 132.945312 253.871094 L 120.601562 253.871094 L 120.601562 241.546875 L 132.945312 241.546875 " fill-opacity="1" fill-rule="nonzero"/><path fill="#f5e258" d="M 132.945312 229.210938 L 132.945312 241.546875 L 120.601562 241.546875 L 120.601562 229.210938 L 132.945312 229.210938 " fill-opacity="1" fill-rule="nonzero"/><path fill="#f5e258" d="M 132.945312 216.878906 L 132.945312 229.210938 L 120.601562 229.210938 L 120.601562 216.878906 L 132.945312 216.878906 " fill-opacity="1" fill-rule="nonzero"/><path fill="#a8691d" d="M 132.945312 204.542969 L 132.945312 216.878906 L 120.601562 216.878906 L 120.601562 204.542969 L 132.945312 204.542969 " fill-opacity="1" fill-rule="nonzero"/><path fill="#358e3f" d="M 132.945312 192.210938 L 132.945312 204.542969 L 120.601562 204.542969 L 120.601562 192.210938 L 132.945312 192.210938 " fill-opacity="1" fill-rule="nonzero"/><path fill="#66c536" d="M 132.945312 179.886719 L 132.945312 192.210938 L 120.601562 192.210938 L 120.601562 179.886719 L 132.945312 179.886719 " fill-opacity="1" fill-rule="nonzero"/><path fill="#66c536" d="M 132.945312 167.550781 L 132.945312 179.886719 L 120.601562 179.886719 L 120.601562 167.550781 L 132.945312 167.550781 " fill-opacity="1" fill-rule="nonzero"/><path fill="#1d381e" d="M 132.945312 155.21875 L 132.945312 167.550781 L 120.601562 167.550781 L 120.601562 155.21875 L 132.945312 155.21875 " fill-opacity="1" fill-rule="nonzero"/><path fill="#b3319f" d="M 132.945312 118.222656 L 132.945312 130.558594 L 120.601562 130.558594 L 120.601562 118.222656 L 132.945312 118.222656 " fill-opacity="1" fill-rule="nonzero"/><path fill="#b3319f" d="M 132.945312 105.890625 L 132.945312 118.222656 L 120.601562 118.222656 L 120.601562 105.890625 L 132.945312 105.890625 " fill-opacity="1" fill-rule="nonzero"/><path fill="#da6cbd" d="M 132.945312 93.554688 L 132.945312 105.890625 L 120.601562 105.890625 L 120.601562 93.554688 L 132.945312 93.554688 " fill-opacity="1" fill-rule="nonzero"/><path fill="#b3319f" d="M 132.945312 81.234375 L 132.945312 93.554688 L 120.601562 93.554688 L 120.601562 81.234375 L 132.945312 81.234375 " fill-opacity="1" fill-rule="nonzero"/><g clip-path="url(#5b6e100cb3)"><path fill="#b3319f" d="M 132.945312 68.898438 L 132.945312 81.234375 L 120.601562 81.234375 L 120.601562 68.898438 L 132.945312 68.898438 " fill-opacity="1" fill-rule="nonzero"/></g><path fill="#1d381e" d="M 120.601562 352.523438 L 120.601562 364.859375 L 108.25 364.859375 L 108.25 352.523438 L 120.601562 352.523438 " fill-opacity="1" fill-rule="nonzero"/><path fill="#358e3f" d="M 120.601562 340.199219 L 120.601562 352.523438 L 108.25 352.523438 L 108.25 340.199219 L 120.601562 340.199219 " fill-opacity="1" fill-rule="nonzero"/><path fill="#358e3f" d="M 120.601562 327.867188 L 120.601562 340.199219 L 108.25 340.199219 L 108.25 327.867188 L 120.601562 327.867188 " fill-opacity="1" fill-rule="nonzero"/><path fill="#1d381e" d="M 120.601562 315.53125 L 120.601562 327.867188 L 108.25 327.867188 L 108.25 315.53125 L 120.601562 315.53125 " fill-opacity="1" fill-rule="nonzero"/><path fill="#235528" d="M 120.601562 303.199219 L 120.601562 315.53125 L 108.25 315.53125 L 108.25 303.199219 L 120.601562 303.199219 " fill-opacity="1" fill-rule="nonzero"/><path fill="#235528" d="M 120.601562 290.875 L 120.601562 303.199219 L 108.25 303.199219 L 108.25 290.875 L 120.601562 290.875 " fill-opacity="1" fill-rule="nonzero"/><path fill="#a8691d" d="M 120.601562 278.539062 L 120.601562 290.875 L 108.25 290.875 L 108.25 278.539062 L 120.601562 278.539062 " fill-opacity="1" fill-rule="nonzero"/><path fill="#d38d18" d="M 120.601562 266.207031 L 120.601562 278.539062 L 108.25 278.539062 L 108.25 266.207031 L 120.601562 266.207031 " fill-opacity="1" fill-rule="nonzero"/><path fill="#d38d18" d="M 120.601562 253.871094 L 120.601562 266.207031 L 108.25 266.207031 L 108.25 253.871094 L 120.601562 253.871094 " fill-opacity="1" fill-rule="nonzero"/><path fill="#f5e258" d="M 120.601562 241.546875 L 120.601562 253.871094 L 108.25 253.871094 L 108.25 241.546875 L 120.601562 241.546875 " fill-opacity="1" fill-rule="nonzero"/><path fill="#f5e258" d="M 120.601562 229.210938 L 120.601562 241.546875 L 108.25 241.546875 L 108.25 229.210938 L 120.601562 229.210938 " fill-opacity="1" fill-rule="nonzero"/><path fill="#f5e258" d="M 120.601562 216.878906 L 120.601562 229.210938 L 108.25 229.210938 L 108.25 216.878906 L 120.601562 216.878906 " fill-opacity="1" fill-rule="nonzero"/><path fill="#a8691d" d="M 120.601562 204.542969 L 120.601562 216.878906 L 108.25 216.878906 L 108.25 204.542969 L 120.601562 204.542969 " fill-opacity="1" fill-rule="nonzero"/><path fill="#1d381e" d="M 120.601562 192.210938 L 120.601562 204.542969 L 108.25 204.542969 L 108.25 192.210938 L 120.601562 192.210938 " fill-opacity="1" fill-rule="nonzero"/><path fill="#1d381e" d="M 120.601562 179.886719 L 120.601562 192.210938 L 108.25 192.210938 L 108.25 179.886719 L 120.601562 179.886719 " fill-opacity="1" fill-rule="nonzero"/><path fill="#1d381e" d="M 120.601562 167.550781 L 120.601562 179.886719 L 108.25 179.886719 L 108.25 167.550781 L 120.601562 167.550781 " fill-opacity="1" fill-rule="nonzero"/><path fill="#1d381e" d="M 120.601562 130.558594 L 120.601562 142.882812 L 108.25 142.882812 L 108.25 130.558594 L 120.601562 130.558594 " fill-opacity="1" fill-rule="nonzero"/><path fill="#b3319f" d="M 120.601562 118.222656 L 120.601562 130.558594 L 108.25 130.558594 L 108.25 118.222656 L 120.601562 118.222656 " fill-opacity="1" fill-rule="nonzero"/><path fill="#da6cbd" d="M 120.601562 105.890625 L 120.601562 118.222656 L 108.25 118.222656 L 108.25 105.890625 L 120.601562 105.890625 " fill-opacity="1" fill-rule="nonzero"/><path fill="#da6cbd" d="M 120.601562 93.554688 L 120.601562 105.890625 L 108.25 105.890625 L 108.25 93.554688 L 120.601562 93.554688 " fill-opacity="1" fill-rule="nonzero"/><path fill="#ffffff" d="M 120.601562 81.234375 L 120.601562 93.554688 L 108.25 93.554688 L 108.25 81.234375 L 120.601562 81.234375 " fill-opacity="1" fill-rule="nonzero"/><g clip-path="url(#de26bd01e4)"><path fill="#b3319f" d="M 120.601562 68.898438 L 120.601562 81.234375 L 108.25 81.234375 L 108.25 68.898438 L 120.601562 68.898438 " fill-opacity="1" fill-rule="nonzero"/></g><path fill="#1d381e" d="M 108.25 352.523438 L 108.25 364.859375 L 95.910156 364.859375 L 95.910156 352.523438 L 108.25 352.523438 " fill-opacity="1" fill-rule="nonzero"/><path fill="#1d381e" d="M 108.25 340.199219 L 108.25 352.523438 L 95.910156 352.523438 L 95.910156 340.199219 L 108.25 340.199219 " fill-opacity="1" fill-rule="nonzero"/><path fill="#66c536" d="M 108.25 327.867188 L 108.25 340.199219 L 95.910156 340.199219 L 95.910156 327.867188 L 108.25 327.867188 " fill-opacity="1" fill-rule="nonzero"/><path fill="#1d381e" d="M 108.25 315.53125 L 108.25 327.867188 L 95.910156 327.867188 L 95.910156 315.53125 L 108.25 315.53125 " fill-opacity="1" fill-rule="nonzero"/><path fill="#235528" d="M 108.25 303.199219 L 108.25 315.53125 L 95.910156 315.53125 L 95.910156 303.199219 L 108.25 303.199219 " fill-opacity="1" fill-rule="nonzero"/><path fill="#358e3f" d="M 108.25 290.875 L 108.25 303.199219 L 95.910156 303.199219 L 95.910156 290.875 L 108.25 290.875 " fill-opacity="1" fill-rule="nonzero"/><path fill="#a8691d" d="M 108.25 278.539062 L 108.25 290.875 L 95.910156 290.875 L 95.910156 278.539062 L 108.25 278.539062 " fill-opacity="1" fill-rule="nonzero"/><path fill="#a8691d" d="M 108.25 266.207031 L 108.25 278.539062 L 95.910156 278.539062 L 95.910156 266.207031 L 108.25 266.207031 " fill-opacity="1" fill-rule="nonzero"/><path fill="#fad00d" d="M 108.25 253.871094 L 108.25 266.207031 L 95.910156 266.207031 L 95.910156 253.871094 L 108.25 253.871094 " fill-opacity="1" fill-rule="nonzero"/><path fill="#f5e258" d="M 108.25 241.546875 L 108.25 253.871094 L 95.910156 253.871094 L 95.910156 241.546875 L 108.25 241.546875 " fill-opacity="1" fill-rule="nonzero"/><path fill="#d38d18" d="M 108.25 229.210938 L 108.25 241.546875 L 95.910156 241.546875 L 95.910156 229.210938 L 108.25 229.210938 " fill-opacity="1" fill-rule="nonzero"/><path fill="#a8691d" d="M 108.25 216.878906 L 108.25 229.210938 L 95.910156 229.210938 L 95.910156 216.878906 L 108.25 216.878906 " fill-opacity="1" fill-rule="nonzero"/><path fill="#a8691d" d="M 108.25 204.542969 L 108.25 216.878906 L 95.910156 216.878906 L 95.910156 204.542969 L 108.25 204.542969 " fill-opacity="1" fill-rule="nonzero"/><path fill="#358e3f" d="M 108.25 155.21875 L 108.25 167.550781 L 95.910156 167.550781 L 95.910156 155.21875 L 108.25 155.21875 " fill-opacity="1" fill-rule="nonzero"/><path fill="#1d381e" d="M 108.25 142.882812 L 108.25 155.21875 L 95.910156 155.21875 L 95.910156 142.882812 L 108.25 142.882812 " fill-opacity="1" fill-rule="nonzero"/><path fill="#1d381e" d="M 108.25 130.558594 L 108.25 142.882812 L 95.910156 142.882812 L 95.910156 130.558594 L 108.25 130.558594 " fill-opacity="1" fill-rule="nonzero"/><path fill="#b3319f" d="M 108.25 118.222656 L 108.25 130.558594 L 95.910156 130.558594 L 95.910156 118.222656 L 108.25 118.222656 " fill-opacity="1" fill-rule="nonzero"/><path fill="#b3319f" d="M 108.25 105.890625 L 108.25 118.222656 L 95.910156 118.222656 L 95.910156 105.890625 L 108.25 105.890625 " fill-opacity="1" fill-rule="nonzero"/><path fill="#da6cbd" d="M 108.25 93.554688 L 108.25 105.890625 L 95.910156 105.890625 L 95.910156 93.554688 L 108.25 93.554688 " fill-opacity="1" fill-rule="nonzero"/><path fill="#da6cbd" d="M 108.25 81.234375 L 108.25 93.554688 L 95.910156 93.554688 L 95.910156 81.234375 L 108.25 81.234375 " fill-opacity="1" fill-rule="nonzero"/><g clip-path="url(#5861e90fc2)"><path fill="#b3319f" d="M 108.25 68.898438 L 108.25 81.234375 L 95.910156 81.234375 L 95.910156 68.898438 L 108.25 68.898438 " fill-opacity="1" fill-rule="nonzero"/></g><path fill="#3e373d" d="M 95.910156 352.523438 L 95.910156 364.859375 L 83.558594 364.859375 L 83.558594 352.523438 L 95.910156 352.523438 " fill-opacity="1" fill-rule="nonzero"/><path fill="#1d381e" d="M 95.910156 340.199219 L 95.910156 352.523438 L 83.558594 352.523438 L 83.558594 340.199219 L 95.910156 340.199219 " fill-opacity="1" fill-rule="nonzero"/><path fill="#66c536" d="M 95.910156 327.867188 L 95.910156 340.199219 L 83.558594 340.199219 L 83.558594 327.867188 L 95.910156 327.867188 " fill-opacity="1" fill-rule="nonzero"/><path fill="#66c536" d="M 95.910156 315.53125 L 95.910156 327.867188 L 83.558594 327.867188 L 83.558594 315.53125 L 95.910156 315.53125 " fill-opacity="1" fill-rule="nonzero"/><path fill="#1d381e" d="M 95.910156 303.199219 L 95.910156 315.53125 L 83.558594 315.53125 L 83.558594 303.199219 L 95.910156 303.199219 " fill-opacity="1" fill-rule="nonzero"/><path fill="#358e3f" d="M 95.910156 290.875 L 95.910156 303.199219 L 83.558594 303.199219 L 83.558594 290.875 L 95.910156 290.875 " fill-opacity="1" fill-rule="nonzero"/><path fill="#358e3f" d="M 95.910156 278.539062 L 95.910156 290.875 L 83.558594 290.875 L 83.558594 278.539062 L 95.910156 278.539062 " fill-opacity="1" fill-rule="nonzero"/><path fill="#a8691d" d="M 95.910156 266.207031 L 95.910156 278.539062 L 83.558594 278.539062 L 83.558594 266.207031 L 95.910156 266.207031 " fill-opacity="1" fill-rule="nonzero"/><path fill="#a8691d" d="M 95.910156 253.871094 L 95.910156 266.207031 L 83.558594 266.207031 L 83.558594 253.871094 L 95.910156 253.871094 " fill-opacity="1" fill-rule="nonzero"/><path fill="#d38d18" d="M 95.910156 241.546875 L 95.910156 253.871094 L 83.558594 253.871094 L 83.558594 241.546875 L 95.910156 241.546875 " fill-opacity="1" fill-rule="nonzero"/><path fill="#a8691d" d="M 95.910156 229.210938 L 95.910156 241.546875 L 83.558594 241.546875 L 83.558594 229.210938 L 95.910156 229.210938 " fill-opacity="1" fill-rule="nonzero"/><path fill="#1d381e" d="M 95.910156 216.878906 L 95.910156 229.210938 L 83.558594 229.210938 L 83.558594 216.878906 L 95.910156 216.878906 " fill-opacity="1" fill-rule="nonzero"/><path fill="#1d381e" d="M 95.910156 204.542969 L 95.910156 216.878906 L 83.558594 216.878906 L 83.558594 204.542969 L 95.910156 204.542969 " fill-opacity="1" fill-rule="nonzero"/><path fill="#1d381e" d="M 95.910156 192.210938 L 95.910156 204.542969 L 83.558594 204.542969 L 83.558594 192.210938 L 95.910156 192.210938 " fill-opacity="1" fill-rule="nonzero"/><path fill="#358e3f" d="M 95.910156 179.886719 L 95.910156 192.210938 L 83.558594 192.210938 L 83.558594 179.886719 L 95.910156 179.886719 " fill-opacity="1" fill-rule="nonzero"/><path fill="#358e3f" d="M 95.910156 167.550781 L 95.910156 179.886719 L 83.558594 179.886719 L 83.558594 167.550781 L 95.910156 167.550781 " fill-opacity="1" fill-rule="nonzero"/><path fill="#358e3f" d="M 95.910156 155.21875 L 95.910156 167.550781 L 83.558594 167.550781 L 83.558594 155.21875 L 95.910156 155.21875 " fill-opacity="1" fill-rule="nonzero"/><path fill="#b3319f" d="M 95.910156 105.890625 L 95.910156 118.222656 L 83.558594 118.222656 L 83.558594 105.890625 L 95.910156 105.890625 " fill-opacity="1" fill-rule="nonzero"/><path fill="#b3319f" d="M 95.910156 93.554688 L 95.910156 105.890625 L 83.558594 105.890625 L 83.558594 93.554688 L 95.910156 93.554688 " fill-opacity="1" fill-rule="nonzero"/><path fill="#b3319f" d="M 95.910156 81.234375 L 95.910156 93.554688 L 83.558594 93.554688 L 83.558594 81.234375 L 95.910156 81.234375 " fill-opacity="1" fill-rule="nonzero"/><g clip-path="url(#b0767004e4)"><path fill="#b3319f" d="M 95.910156 68.898438 L 95.910156 81.234375 L 83.558594 81.234375 L 83.558594 68.898438 L 95.910156 68.898438 " fill-opacity="1" fill-rule="nonzero"/></g><path fill="#1d381e" d="M 83.558594 340.199219 L 83.558594 352.523438 L 71.210938 352.523438 L 71.210938 340.199219 L 83.558594 340.199219 " fill-opacity="1" fill-rule="nonzero"/><path fill="#66c536" d="M 83.558594 327.867188 L 83.558594 340.199219 L 71.210938 340.199219 L 71.210938 327.867188 L 83.558594 327.867188 " fill-opacity="1" fill-rule="nonzero"/><path fill="#a1ca21" d="M 83.558594 315.53125 L 83.558594 327.867188 L 71.210938 327.867188 L 71.210938 315.53125 L 83.558594 315.53125 " fill-opacity="1" fill-rule="nonzero"/><path fill="#1d381e" d="M 83.558594 303.199219 L 83.558594 315.53125 L 71.210938 315.53125 L 71.210938 303.199219 L 83.558594 303.199219 " fill-opacity="1" fill-rule="nonzero"/><path fill="#358e3f" d="M 83.558594 290.875 L 83.558594 303.199219 L 71.210938 303.199219 L 71.210938 290.875 L 83.558594 290.875 " fill-opacity="1" fill-rule="nonzero"/><path fill="#66c536" d="M 83.558594 278.539062 L 83.558594 290.875 L 71.210938 290.875 L 71.210938 278.539062 L 83.558594 278.539062 " fill-opacity="1" fill-rule="nonzero"/><path fill="#66c536" d="M 83.558594 266.207031 L 83.558594 278.539062 L 71.210938 278.539062 L 71.210938 266.207031 L 83.558594 266.207031 " fill-opacity="1" fill-rule="nonzero"/><path fill="#a8691d" d="M 83.558594 253.871094 L 83.558594 266.207031 L 71.210938 266.207031 L 71.210938 253.871094 L 83.558594 253.871094 " fill-opacity="1" fill-rule="nonzero"/><path fill="#a8691d" d="M 83.558594 241.546875 L 83.558594 253.871094 L 71.210938 253.871094 L 71.210938 241.546875 L 83.558594 241.546875 " fill-opacity="1" fill-rule="nonzero"/><path fill="#a8691d" d="M 83.558594 229.210938 L 83.558594 241.546875 L 71.210938 241.546875 L 71.210938 229.210938 L 83.558594 229.210938 " fill-opacity="1" fill-rule="nonzero"/><path fill="#1d381e" d="M 71.210938 327.867188 L 71.210938 340.199219 L 58.863281 340.199219 L 58.863281 327.867188 L 71.210938 327.867188 " fill-opacity="1" fill-rule="nonzero"/><path fill="#a1ca21" d="M 71.210938 315.53125 L 71.210938 327.867188 L 58.863281 327.867188 L 58.863281 315.53125 L 71.210938 315.53125 " fill-opacity="1" fill-rule="nonzero"/><path fill="#1d381e" d="M 71.210938 303.199219 L 71.210938 315.53125 L 58.863281 315.53125 L 58.863281 303.199219 L 71.210938 303.199219 " fill-opacity="1" fill-rule="nonzero"/><path fill="#1d381e" d="M 71.210938 290.875 L 71.210938 303.199219 L 58.863281 303.199219 L 58.863281 290.875 L 71.210938 290.875 " fill-opacity="1" fill-rule="nonzero"/><path fill="#358e3f" d="M 71.210938 278.539062 L 71.210938 290.875 L 58.863281 290.875 L 58.863281 278.539062 L 71.210938 278.539062 " fill-opacity="1" fill-rule="nonzero"/><path fill="#66c536" d="M 71.210938 266.207031 L 71.210938 278.539062 L 58.863281 278.539062 L 58.863281 266.207031 L 71.210938 266.207031 " fill-opacity="1" fill-rule="nonzero"/><path fill="#66c536" d="M 71.210938 253.871094 L 71.210938 266.207031 L 58.863281 266.207031 L 58.863281 253.871094 L 71.210938 253.871094 " fill-opacity="1" fill-rule="nonzero"/><path fill="#1d381e" d="M 71.210938 241.546875 L 71.210938 253.871094 L 58.863281 253.871094 L 58.863281 241.546875 L 71.210938 241.546875 " fill-opacity="1" fill-rule="nonzero"/><path fill="#358e3f" d="M 71.210938 229.210938 L 71.210938 241.546875 L 58.863281 241.546875 L 58.863281 229.210938 L 71.210938 229.210938 " fill-opacity="1" fill-rule="nonzero"/><path fill="#358e3f" d="M 71.210938 216.878906 L 71.210938 229.210938 L 58.863281 229.210938 L 58.863281 216.878906 L 71.210938 216.878906 " fill-opacity="1" fill-rule="nonzero"/><path fill="#358e3f" d="M 71.210938 204.542969 L 71.210938 216.878906 L 58.863281 216.878906 L 58.863281 204.542969 L 71.210938 204.542969 " fill-opacity="1" fill-rule="nonzero"/><path fill="#1d381e" d="M 71.210938 192.210938 L 71.210938 204.542969 L 58.863281 204.542969 L 58.863281 192.210938 L 71.210938 192.210938 " fill-opacity="1" fill-rule="nonzero"/><path fill="#b3319f" d="M 71.210938 179.886719 L 71.210938 192.210938 L 58.863281 192.210938 L 58.863281 179.886719 L 71.210938 179.886719 " fill-opacity="1" fill-rule="nonzero"/><path fill="#b3319f" d="M 71.210938 167.550781 L 71.210938 179.886719 L 58.863281 179.886719 L 58.863281 167.550781 L 71.210938 167.550781 " fill-opacity="1" fill-rule="nonzero"/><path fill="#b3319f" d="M 71.210938 155.21875 L 71.210938 167.550781 L 58.863281 167.550781 L 58.863281 155.21875 L 71.210938 155.21875 " fill-opacity="1" fill-rule="nonzero"/><path fill="#b3319f" d="M 71.210938 142.882812 L 71.210938 155.21875 L 58.863281 155.21875 L 58.863281 142.882812 L 71.210938 142.882812 " fill-opacity="1" fill-rule="nonzero"/><path fill="#1d381e" d="M 58.863281 315.53125 L 58.863281 327.867188 L 46.515625 327.867188 L 46.515625 315.53125 L 58.863281 315.53125 " fill-opacity="1" fill-rule="nonzero"/><path fill="#a1ca21" d="M 58.863281 303.199219 L 58.863281 315.53125 L 46.515625 315.53125 L 46.515625 303.199219 L 58.863281 303.199219 " fill-opacity="1" fill-rule="nonzero"/><path fill="#a1ca21" d="M 58.863281 290.875 L 58.863281 303.199219 L 46.515625 303.199219 L 46.515625 290.875 L 58.863281 290.875 " fill-opacity="1" fill-rule="nonzero"/><path fill="#1d381e" d="M 58.863281 278.539062 L 58.863281 290.875 L 46.515625 290.875 L 46.515625 278.539062 L 58.863281 278.539062 " fill-opacity="1" fill-rule="nonzero"/><path fill="#1d381e" d="M 58.863281 266.207031 L 58.863281 278.539062 L 46.515625 278.539062 L 46.515625 266.207031 L 58.863281 266.207031 " fill-opacity="1" fill-rule="nonzero"/><path fill="#a1ca21" d="M 58.863281 253.871094 L 58.863281 266.207031 L 46.515625 266.207031 L 46.515625 253.871094 L 58.863281 253.871094 " fill-opacity="1" fill-rule="nonzero"/><path fill="#1d381e" d="M 58.863281 241.546875 L 58.863281 253.871094 L 46.515625 253.871094 L 46.515625 241.546875 L 58.863281 241.546875 " fill-opacity="1" fill-rule="nonzero"/><path fill="#1d381e" d="M 58.863281 192.210938 L 58.863281 204.542969 L 46.515625 204.542969 L 46.515625 192.210938 L 58.863281 192.210938 " fill-opacity="1" fill-rule="nonzero"/><path fill="#b3319f" d="M 58.863281 179.886719 L 58.863281 192.210938 L 46.515625 192.210938 L 46.515625 179.886719 L 58.863281 179.886719 " fill-opacity="1" fill-rule="nonzero"/><path fill="#da6cbd" d="M 58.863281 167.550781 L 58.863281 179.886719 L 46.515625 179.886719 L 46.515625 167.550781 L 58.863281 167.550781 " fill-opacity="1" fill-rule="nonzero"/><path fill="#da6cbd" d="M 58.863281 155.21875 L 58.863281 167.550781 L 46.515625 167.550781 L 46.515625 155.21875 L 58.863281 155.21875 " fill-opacity="1" fill-rule="nonzero"/><path fill="#b3319f" d="M 58.863281 142.882812 L 58.863281 155.21875 L 46.515625 155.21875 L 46.515625 142.882812 L 58.863281 142.882812 " fill-opacity="1" fill-rule="nonzero"/><path fill="#b3319f" d="M 58.863281 130.558594 L 58.863281 142.882812 L 46.515625 142.882812 L 46.515625 130.558594 L 58.863281 130.558594 " fill-opacity="1" fill-rule="nonzero"/><path fill="#1d381e" d="M 46.515625 303.199219 L 46.515625 315.53125 L 34.175781 315.53125 L 34.175781 303.199219 L 46.515625 303.199219 " fill-opacity="1" fill-rule="nonzero"/><path fill="#a1ca21" d="M 46.515625 290.875 L 46.515625 303.199219 L 34.175781 303.199219 L 34.175781 290.875 L 46.515625 290.875 " fill-opacity="1" fill-rule="nonzero"/><path fill="#1d381e" d="M 46.515625 266.207031 L 46.515625 278.539062 L 34.175781 278.539062 L 34.175781 266.207031 L 46.515625 266.207031 " fill-opacity="1" fill-rule="nonzero"/><path fill="#a1ca21" d="M 46.515625 253.871094 L 46.515625 266.207031 L 34.175781 266.207031 L 34.175781 253.871094 L 46.515625 253.871094 " fill-opacity="1" fill-rule="nonzero"/><path fill="#a1ca21" d="M 46.515625 241.546875 L 46.515625 253.871094 L 34.175781 253.871094 L 34.175781 241.546875 L 46.515625 241.546875 " fill-opacity="1" fill-rule="nonzero"/><path fill="#1d381e" d="M 46.515625 229.210938 L 46.515625 241.546875 L 34.175781 241.546875 L 34.175781 229.210938 L 46.515625 229.210938 " fill-opacity="1" fill-rule="nonzero"/><path fill="#b3319f" d="M 46.515625 192.210938 L 46.515625 204.542969 L 34.175781 204.542969 L 34.175781 192.210938 L 46.515625 192.210938 " fill-opacity="1" fill-rule="nonzero"/><path fill="#b3319f" d="M 46.515625 179.886719 L 46.515625 192.210938 L 34.175781 192.210938 L 34.175781 179.886719 L 46.515625 179.886719 " fill-opacity="1" fill-rule="nonzero"/><path fill="#da6cbd" d="M 46.515625 167.550781 L 46.515625 179.886719 L 34.175781 179.886719 L 34.175781 167.550781 L 46.515625 167.550781 " fill-opacity="1" fill-rule="nonzero"/><path fill="#da6cbd" d="M 46.515625 155.21875 L 46.515625 167.550781 L 34.175781 167.550781 L 34.175781 155.21875 L 46.515625 155.21875 " fill-opacity="1" fill-rule="nonzero"/><path fill="#b3319f" d="M 46.515625 130.558594 L 46.515625 142.882812 L 34.175781 142.882812 L 34.175781 130.558594 L 46.515625 130.558594 " fill-opacity="1" fill-rule="nonzero"/><path fill="#1d381e" d="M 34.175781 290.875 L 34.175781 303.199219 L 21.824219 303.199219 L 21.824219 290.875 L 34.175781 290.875 " fill-opacity="1" fill-rule="nonzero"/><path fill="#1d381e" d="M 34.175781 253.871094 L 34.175781 266.207031 L 21.824219 266.207031 L 21.824219 253.871094 L 34.175781 253.871094 " fill-opacity="1" fill-rule="nonzero"/><path fill="#1d381e" d="M 34.175781 241.546875 L 34.175781 253.871094 L 21.824219 253.871094 L 21.824219 241.546875 L 34.175781 241.546875 " fill-opacity="1" fill-rule="nonzero"/><path fill="#1d381e" d="M 34.175781 229.210938 L 34.175781 241.546875 L 21.824219 241.546875 L 21.824219 229.210938 L 34.175781 229.210938 " fill-opacity="1" fill-rule="nonzero"/><path fill="#b3319f" d="M 34.175781 192.210938 L 34.175781 204.542969 L 21.824219 204.542969 L 21.824219 192.210938 L 34.175781 192.210938 " fill-opacity="1" fill-rule="nonzero"/><path fill="#da6cbd" d="M 34.175781 179.886719 L 34.175781 192.210938 L 21.824219 192.210938 L 21.824219 179.886719 L 34.175781 179.886719 " fill-opacity="1" fill-rule="nonzero"/><path fill="#da6cbd" d="M 34.175781 167.550781 L 34.175781 179.886719 L 21.824219 179.886719 L 21.824219 167.550781 L 34.175781 167.550781 " fill-opacity="1" fill-rule="nonzero"/><path fill="#da6cbd" d="M 34.175781 155.21875 L 34.175781 167.550781 L 21.824219 167.550781 L 21.824219 155.21875 L 34.175781 155.21875 " fill-opacity="1" fill-rule="nonzero"/><path fill="#b3319f" d="M 34.175781 142.882812 L 34.175781 155.21875 L 21.824219 155.21875 L 21.824219 142.882812 L 34.175781 142.882812 " fill-opacity="1" fill-rule="nonzero"/><path fill="#b3319f" d="M 34.175781 130.558594 L 34.175781 142.882812 L 21.824219 142.882812 L 21.824219 130.558594 L 34.175781 130.558594 " fill-opacity="1" fill-rule="nonzero"/><g clip-path="url(#4b707386a2)"><path fill="#b3319f" d="M 21.824219 179.886719 L 21.824219 192.210938 L 9.480469 192.210938 L 9.480469 179.886719 L 21.824219 179.886719 " fill-opacity="1" fill-rule="nonzero"/></g><g clip-path="url(#3e946d02d4)"><path fill="#b3319f" d="M 21.824219 167.550781 L 21.824219 179.886719 L 9.480469 179.886719 L 9.480469 167.550781 L 21.824219 167.550781 " fill-opacity="1" fill-rule="nonzero"/></g><g clip-path="url(#a39be45068)"><path fill="#b3319f" d="M 21.824219 155.21875 L 21.824219 167.550781 L 9.480469 167.550781 L 9.480469 155.21875 L 21.824219 155.21875 " fill-opacity="1" fill-rule="nonzero"/></g><g clip-path="url(#c6599260d0)"><path fill="#b3319f" d="M 21.824219 142.882812 L 21.824219 155.21875 L 9.480469 155.21875 L 9.480469 142.882812 L 21.824219 142.882812 " fill-opacity="1" fill-rule="nonzero"/></g></svg>