<svg xmlns="http://www.w3.org/2000/svg" xmlns:xlink="http://www.w3.org/1999/xlink" width="500" zoomAndPan="magnify" viewBox="0 0 375 374.999991" height="500" preserveAspectRatio="xMidYMid meet" version="1.0"><defs><clipPath id="71d85de9af"><path d="M 54.179688 155 L 93 155 L 93 220 L 54.179688 220 Z M 54.179688 155 " clip-rule="nonzero"/></clipPath><clipPath id="9e93df4f85"><path d="M 54.179688 54.179688 L 144 54.179688 L 144 144 L 54.179688 144 Z M 54.179688 54.179688 " clip-rule="nonzero"/></clipPath><clipPath id="b3ee29357c"><path d="M 54.179688 232 L 144 232 L 144 321.179688 L 54.179688 321.179688 Z M 54.179688 232 " clip-rule="nonzero"/></clipPath><clipPath id="6499929951"><path d="M 155 283 L 182 283 L 182 321.179688 L 155 321.179688 Z M 155 283 " clip-rule="nonzero"/></clipPath><clipPath id="0c1d93e6c4"><path d="M 155 54.179688 L 220 54.179688 L 220 106 L 155 106 Z M 155 54.179688 " clip-rule="nonzero"/></clipPath><clipPath id="5aac70ead1"><path d="M 206 308 L 220 308 L 220 321.179688 L 206 321.179688 Z M 206 308 " clip-rule="nonzero"/></clipPath><clipPath id="dd50885859"><path d="M 232 295 L 245 295 L 245 321.179688 L 232 321.179688 Z M 232 295 " clip-rule="nonzero"/></clipPath><clipPath id="4f6977df0b"><path d="M 257 308 L 271 308 L 271 321.179688 L 257 321.179688 Z M 257 308 " clip-rule="nonzero"/></clipPath><clipPath id="56f4b0f456"><path d="M 283 295 L 321.179688 295 L 321.179688 321.179688 L 283 321.179688 Z M 283 295 " clip-rule="nonzero"/></clipPath><clipPath id="776778867d"><path d="M 257 168 L 321.179688 168 L 321.179688 195 L 257 195 Z M 257 168 " clip-rule="nonzero"/></clipPath><clipPath id="683b3c16c0"><path d="M 295 206 L 321.179688 206 L 321.179688 271 L 295 271 Z M 295 206 " clip-rule="nonzero"/></clipPath><clipPath id="4125338163"><path d="M 232 54.179688 L 321.179688 54.179688 L 321.179688 144 L 232 144 Z M 232 54.179688 " clip-rule="nonzero"/></clipPath><clipPath id="83ba5c1e1b"><path d="M 308 283 L 321.179688 283 L 321.179688 296 L 308 296 Z M 308 283 " clip-rule="nonzero"/></clipPath><clipPath id="cd4553b1f2"><path d="M 303 283 L 312.929688 283 L 312.929688 293 L 303 293 Z M 303 283 " clip-rule="nonzero"/></clipPath><clipPath id="cb89511a29"><path d="M 303 274 L 312.929688 274 L 312.929688 284 L 303 284 Z M 303 274 " clip-rule="nonzero"/></clipPath><clipPath id="1a5ba586c4"><path d="M 303 265 L 312.929688 265 L 312.929688 275 L 303 275 Z M 303 265 " clip-rule="nonzero"/></clipPath><clipPath id="471c97d777"><path d="M 137 98.269531 L 147 98.269531 L 147 108 L 137 108 Z M 137 98.269531 " clip-rule="nonzero"/></clipPath><clipPath id="53432bfbba"><path d="M 128 98.269531 L 138 98.269531 L 138 108 L 128 108 Z M 128 98.269531 " clip-rule="nonzero"/></clipPath><clipPath id="4cf0ed3c87"><path d="M 118 98.269531 L 129 98.269531 L 129 108 L 118 108 Z M 118 98.269531 " clip-rule="nonzero"/></clipPath><clipPath id="01f727fce3"><path d="M 109 98.269531 L 119 98.269531 L 119 108 L 109 108 Z M 109 98.269531 " clip-rule="nonzero"/></clipPath><clipPath id="e0d04e09f0"><path d="M 54.179688 181 L 64 181 L 64 192 L 54.179688 192 Z M 54.179688 181 " clip-rule="nonzero"/></clipPath><clipPath id="ee02759367"><path d="M 54.179688 172 L 64 172 L 64 182 L 54.179688 182 Z M 54.179688 172 " clip-rule="nonzero"/></clipPath><clipPath id="5b406a81a9"><path d="M 54.179688 163 L 64 163 L 64 173 L 54.179688 173 Z M 54.179688 163 " clip-rule="nonzero"/></clipPath><clipPath id="79ed5ea4d5"><path d="M 54.179688 154 L 64 154 L 64 164 L 54.179688 164 Z M 54.179688 154 " clip-rule="nonzero"/></clipPath></defs><g clip-path="url(#71d85de9af)"><path fill="#000000" d="M 66.894531 206.75 L 79.609375 206.75 L 79.609375 168.609375 L 92.324219 168.609375 L 92.324219 155.894531 L 54.179688 155.894531 L 54.179688 181.324219 L 66.894531 181.324219 L 66.894531 194.039062 L 54.179688 194.039062 L 54.179688 219.464844 L 66.894531 219.464844 Z M 66.894531 206.75 " fill-opacity="1" fill-rule="nonzero"/></g><g clip-path="url(#9e93df4f85)"><path fill="#000000" d="M 79.609375 143.179688 L 143.179688 143.179688 L 143.179688 54.179688 L 54.179688 54.179688 L 54.179688 143.179688 Z M 66.894531 66.894531 L 130.464844 66.894531 L 130.464844 130.464844 L 66.894531 130.464844 Z M 66.894531 66.894531 " fill-opacity="1" fill-rule="nonzero"/></g><path fill="#000000" d="M 105.039062 117.75 L 117.75 117.75 L 117.75 79.609375 L 79.609375 79.609375 L 79.609375 117.75 Z M 105.039062 117.75 " fill-opacity="1" fill-rule="nonzero"/><path fill="#000000" d="M 92.324219 181.324219 L 92.324219 206.75 L 105.039062 206.75 L 105.039062 219.464844 L 117.75 219.464844 L 117.75 181.324219 Z M 92.324219 181.324219 " fill-opacity="1" fill-rule="nonzero"/><path fill="#000000" d="M 92.324219 257.609375 L 79.609375 257.609375 L 79.609375 295.75 L 117.75 295.75 L 117.75 257.609375 Z M 92.324219 257.609375 " fill-opacity="1" fill-rule="nonzero"/><g clip-path="url(#b3ee29357c)"><path fill="#000000" d="M 117.75 232.179688 L 54.179688 232.179688 L 54.179688 321.179688 L 143.179688 321.179688 L 143.179688 232.179688 Z M 130.464844 308.464844 L 66.894531 308.464844 L 66.894531 244.894531 L 130.464844 244.894531 Z M 130.464844 308.464844 " fill-opacity="1" fill-rule="nonzero"/></g><path fill="#000000" d="M 143.179688 168.609375 L 168.609375 168.609375 L 168.609375 181.324219 L 181.324219 181.324219 L 181.324219 168.609375 L 206.75 168.609375 L 206.75 155.894531 L 219.464844 155.894531 L 219.464844 105.039062 L 206.75 105.039062 L 206.75 143.179688 L 194.039062 143.179688 L 194.039062 155.894531 L 181.324219 155.894531 L 181.324219 143.179688 L 168.609375 143.179688 L 168.609375 130.464844 L 155.894531 130.464844 L 155.894531 155.894531 L 105.039062 155.894531 L 105.039062 168.609375 L 117.75 168.609375 L 117.75 181.324219 L 130.464844 181.324219 L 130.464844 168.609375 Z M 143.179688 168.609375 " fill-opacity="1" fill-rule="nonzero"/><path fill="#000000" d="M 130.464844 181.324219 L 130.464844 194.039062 L 143.179688 194.039062 L 143.179688 181.324219 Z M 130.464844 181.324219 " fill-opacity="1" fill-rule="nonzero"/><g clip-path="url(#6499929951)"><path fill="#000000" d="M 168.609375 283.039062 L 155.894531 283.039062 L 155.894531 321.179688 L 181.324219 321.179688 L 181.324219 295.75 L 168.609375 295.75 Z M 168.609375 283.039062 " fill-opacity="1" fill-rule="nonzero"/></g><path fill="#000000" d="M 181.324219 117.75 L 194.039062 117.75 L 194.039062 105.039062 L 181.324219 105.039062 Z M 181.324219 117.75 " fill-opacity="1" fill-rule="nonzero"/><path fill="#000000" d="M 194.039062 130.464844 L 181.324219 130.464844 L 181.324219 143.179688 L 194.039062 143.179688 Z M 194.039062 130.464844 " fill-opacity="1" fill-rule="nonzero"/><path fill="#000000" d="M 194.039062 295.75 L 194.039062 283.039062 L 181.324219 283.039062 L 181.324219 295.75 Z M 194.039062 295.75 " fill-opacity="1" fill-rule="nonzero"/><g clip-path="url(#0c1d93e6c4)"><path fill="#000000" d="M 219.464844 92.324219 L 219.464844 79.609375 L 206.75 79.609375 L 206.75 66.894531 L 219.464844 66.894531 L 219.464844 54.179688 L 194.039062 54.179688 L 194.039062 66.894531 L 181.324219 66.894531 L 181.324219 54.179688 L 168.609375 54.179688 L 168.609375 79.609375 L 155.894531 79.609375 L 155.894531 92.324219 L 168.609375 92.324219 L 168.609375 105.039062 L 181.324219 105.039062 L 181.324219 79.609375 L 194.039062 79.609375 L 194.039062 105.039062 L 206.75 105.039062 L 206.75 92.324219 Z M 219.464844 92.324219 " fill-opacity="1" fill-rule="nonzero"/></g><path fill="#000000" d="M 206.75 194.039062 L 219.464844 194.039062 L 219.464844 181.324219 L 206.75 181.324219 Z M 206.75 194.039062 " fill-opacity="1" fill-rule="nonzero"/><path fill="#000000" d="M 219.464844 206.75 L 206.75 206.75 L 206.75 219.464844 L 219.464844 219.464844 Z M 219.464844 206.75 " fill-opacity="1" fill-rule="nonzero"/><path fill="#000000" d="M 206.75 295.75 L 219.464844 295.75 L 219.464844 283.039062 L 206.75 283.039062 Z M 206.75 295.75 " fill-opacity="1" fill-rule="nonzero"/><g clip-path="url(#5aac70ead1)"><path fill="#000000" d="M 206.75 321.179688 L 219.464844 321.179688 L 219.464844 308.464844 L 206.75 308.464844 Z M 206.75 321.179688 " fill-opacity="1" fill-rule="nonzero"/></g><path fill="#000000" d="M 232.179688 168.609375 L 232.179688 181.324219 L 244.894531 181.324219 L 244.894531 155.894531 L 219.464844 155.894531 L 219.464844 168.609375 Z M 232.179688 168.609375 " fill-opacity="1" fill-rule="nonzero"/><path fill="#000000" d="M 244.894531 194.039062 L 232.179688 194.039062 L 232.179688 219.464844 L 244.894531 219.464844 Z M 244.894531 194.039062 " fill-opacity="1" fill-rule="nonzero"/><g clip-path="url(#dd50885859)"><path fill="#000000" d="M 232.179688 321.179688 L 244.894531 321.179688 L 244.894531 295.75 L 232.179688 295.75 Z M 232.179688 321.179688 " fill-opacity="1" fill-rule="nonzero"/></g><path fill="#000000" d="M 257.609375 295.75 L 270.324219 295.75 L 270.324219 283.039062 L 257.609375 283.039062 Z M 257.609375 295.75 " fill-opacity="1" fill-rule="nonzero"/><g clip-path="url(#4f6977df0b)"><path fill="#000000" d="M 257.609375 321.179688 L 270.324219 321.179688 L 270.324219 308.464844 L 257.609375 308.464844 Z M 257.609375 321.179688 " fill-opacity="1" fill-rule="nonzero"/></g><path fill="#000000" d="M 270.324219 79.609375 L 257.609375 79.609375 L 257.609375 117.75 L 295.75 117.75 L 295.75 79.609375 Z M 270.324219 79.609375 " fill-opacity="1" fill-rule="nonzero"/><path fill="#000000" d="M 283.039062 219.464844 L 283.039062 206.75 L 257.609375 206.75 L 257.609375 219.464844 Z M 283.039062 219.464844 " fill-opacity="1" fill-rule="nonzero"/><path fill="#000000" d="M 270.324219 232.179688 L 270.324219 244.894531 L 257.609375 244.894531 L 257.609375 219.464844 L 244.894531 219.464844 L 244.894531 232.179688 L 232.179688 232.179688 L 232.179688 219.464844 L 219.464844 219.464844 L 219.464844 244.894531 L 206.75 244.894531 L 206.75 219.464844 L 194.035156 219.464844 L 194.035156 194.039062 L 168.609375 194.039062 L 168.609375 181.324219 L 155.894531 181.324219 L 155.894531 194.039062 L 143.179688 194.039062 L 143.179688 206.75 L 130.464844 206.75 L 130.464844 219.464844 L 155.894531 219.464844 L 155.894531 206.75 L 168.609375 206.75 L 168.609375 219.464844 L 155.894531 219.464844 L 155.894531 270.324219 L 168.609375 270.324219 L 168.609375 283.039062 L 181.324219 283.039062 L 181.324219 257.609375 L 168.609375 257.609375 L 168.609375 232.179688 L 181.324219 232.179688 L 181.324219 244.894531 L 194.039062 244.894531 L 194.039062 270.324219 L 206.75 270.324219 L 206.75 257.609375 L 219.464844 257.609375 L 219.464844 270.324219 L 232.179688 270.324219 L 232.179688 283.039062 L 244.894531 283.039062 L 244.894531 270.324219 L 257.609375 270.324219 L 257.609375 257.609375 L 283.039062 257.609375 L 283.039062 232.179688 Z M 244.894531 257.609375 L 232.179688 257.609375 L 232.179688 244.894531 L 244.894531 244.894531 Z M 244.894531 257.609375 " fill-opacity="1" fill-rule="nonzero"/><path fill="#000000" d="M 283.039062 155.894531 L 283.039062 168.609375 L 295.75 168.609375 L 295.75 155.894531 Z M 283.039062 155.894531 " fill-opacity="1" fill-rule="nonzero"/><path fill="#000000" d="M 295.75 257.609375 L 283.039062 257.609375 L 283.039062 283.039062 L 308.464844 283.039062 L 308.464844 270.324219 L 295.75 270.324219 Z M 295.75 257.609375 " fill-opacity="1" fill-rule="nonzero"/><g clip-path="url(#56f4b0f456)"><path fill="#000000" d="M 283.039062 295.75 L 283.039062 321.179688 L 321.179688 321.179688 L 321.179688 308.464844 L 308.464844 308.464844 L 308.464844 295.75 Z M 283.039062 295.75 " fill-opacity="1" fill-rule="nonzero"/></g><g clip-path="url(#776778867d)"><path fill="#000000" d="M 295.75 168.609375 L 295.75 181.324219 L 257.609375 181.324219 L 257.609375 194.039062 L 321.179688 194.039062 L 321.179688 168.609375 Z M 295.75 168.609375 " fill-opacity="1" fill-rule="nonzero"/></g><g clip-path="url(#683b3c16c0)"><path fill="#000000" d="M 308.464844 206.75 L 295.75 206.75 L 295.75 244.894531 L 308.464844 244.894531 L 308.464844 270.324219 L 321.179688 270.324219 L 321.179688 219.464844 L 308.464844 219.464844 Z M 308.464844 206.75 " fill-opacity="1" fill-rule="nonzero"/></g><g clip-path="url(#4125338163)"><path fill="#000000" d="M 308.464844 54.179688 L 232.179688 54.179688 L 232.179688 143.179688 L 321.179688 143.179688 L 321.179688 54.179688 Z M 308.464844 130.464844 L 244.894531 130.464844 L 244.894531 66.894531 L 308.464844 66.894531 Z M 308.464844 130.464844 " fill-opacity="1" fill-rule="nonzero"/></g><g clip-path="url(#83ba5c1e1b)"><path fill="#000000" d="M 321.179688 295.75 L 321.179688 283.039062 L 308.464844 283.039062 L 308.464844 295.75 Z M 321.179688 295.75 " fill-opacity="1" fill-rule="nonzero"/></g><g clip-path="url(#cd4553b1f2)"><path fill="#1d381e" d="M 312.855469 283.628906 L 312.855469 292.882812 L 303.609375 292.882812 L 303.609375 283.628906 L 312.855469 283.628906 " fill-opacity="1" fill-rule="nonzero"/></g><g clip-path="url(#cb89511a29)"><path fill="#1d381e" d="M 312.855469 274.378906 L 312.855469 283.628906 L 303.609375 283.628906 L 303.609375 274.378906 L 312.855469 274.378906 " fill-opacity="1" fill-rule="nonzero"/></g><g clip-path="url(#1a5ba586c4)"><path fill="#a1ca21" d="M 312.855469 265.136719 L 312.855469 274.378906 L 303.609375 274.378906 L 303.609375 265.136719 L 312.855469 265.136719 " fill-opacity="1" fill-rule="nonzero"/></g><path fill="#1d381e" d="M 303.609375 292.882812 L 303.609375 302.128906 L 294.371094 302.128906 L 294.371094 292.882812 L 303.609375 292.882812 " fill-opacity="1" fill-rule="nonzero"/><path fill="#a1ca21" d="M 303.609375 283.628906 L 303.609375 292.882812 L 294.371094 292.882812 L 294.371094 283.628906 L 303.609375 283.628906 " fill-opacity="1" fill-rule="nonzero"/><path fill="#a1ca21" d="M 303.609375 274.378906 L 303.609375 283.628906 L 294.371094 283.628906 L 294.371094 274.378906 L 303.609375 274.378906 " fill-opacity="1" fill-rule="nonzero"/><path fill="#1d381e" d="M 303.609375 265.136719 L 303.609375 274.378906 L 294.371094 274.378906 L 294.371094 265.136719 L 303.609375 265.136719 " fill-opacity="1" fill-rule="nonzero"/><path fill="#a8691d" d="M 303.609375 237.382812 L 303.609375 246.632812 L 294.371094 246.632812 L 294.371094 237.382812 L 303.609375 237.382812 " fill-opacity="1" fill-rule="nonzero"/><path fill="#a8691d" d="M 303.609375 228.136719 L 303.609375 237.382812 L 294.371094 237.382812 L 294.371094 228.136719 L 303.609375 228.136719 " fill-opacity="1" fill-rule="nonzero"/><path fill="#a8691d" d="M 303.609375 218.882812 L 303.609375 228.136719 L 294.371094 228.136719 L 294.371094 218.882812 L 303.609375 218.882812 " fill-opacity="1" fill-rule="nonzero"/><path fill="#1d381e" d="M 294.371094 292.882812 L 294.371094 302.128906 L 285.128906 302.128906 L 285.128906 292.882812 L 294.371094 292.882812 " fill-opacity="1" fill-rule="nonzero"/><path fill="#66c536" d="M 294.371094 283.628906 L 294.371094 292.882812 L 285.128906 292.882812 L 285.128906 283.628906 L 294.371094 283.628906 " fill-opacity="1" fill-rule="nonzero"/><path fill="#1d381e" d="M 294.371094 274.378906 L 294.371094 283.628906 L 285.128906 283.628906 L 285.128906 274.378906 L 294.371094 274.378906 " fill-opacity="1" fill-rule="nonzero"/><path fill="#a8691d" d="M 294.371094 246.632812 L 294.371094 255.882812 L 285.128906 255.882812 L 285.128906 246.632812 L 294.371094 246.632812 " fill-opacity="1" fill-rule="nonzero"/><path fill="#a8691d" d="M 294.371094 237.382812 L 294.371094 246.632812 L 285.128906 246.632812 L 285.128906 237.382812 L 294.371094 237.382812 " fill-opacity="1" fill-rule="nonzero"/><path fill="#d38d18" d="M 294.371094 228.136719 L 294.371094 237.382812 L 285.128906 237.382812 L 285.128906 228.136719 L 294.371094 228.136719 " fill-opacity="1" fill-rule="nonzero"/><path fill="#a8691d" d="M 294.371094 218.882812 L 294.371094 228.136719 L 285.128906 228.136719 L 285.128906 218.882812 L 294.371094 218.882812 " fill-opacity="1" fill-rule="nonzero"/><path fill="#a8691d" d="M 294.371094 209.636719 L 294.371094 218.882812 L 285.128906 218.882812 L 285.128906 209.636719 L 294.371094 209.636719 " fill-opacity="1" fill-rule="nonzero"/><path fill="#3e373d" d="M 285.128906 311.375 L 285.128906 320.628906 L 275.894531 320.628906 L 275.894531 311.375 L 285.128906 311.375 " fill-opacity="1" fill-rule="nonzero"/><path fill="#1d381e" d="M 285.128906 302.128906 L 285.128906 311.375 L 275.894531 311.375 L 275.894531 302.128906 L 285.128906 302.128906 " fill-opacity="1" fill-rule="nonzero"/><path fill="#358e3f" d="M 285.128906 292.882812 L 285.128906 302.128906 L 275.894531 302.128906 L 275.894531 292.882812 L 285.128906 292.882812 " fill-opacity="1" fill-rule="nonzero"/><path fill="#66c536" d="M 285.128906 283.628906 L 285.128906 292.882812 L 275.894531 292.882812 L 275.894531 283.628906 L 285.128906 283.628906 " fill-opacity="1" fill-rule="nonzero"/><path fill="#1d381e" d="M 285.128906 274.378906 L 285.128906 283.628906 L 275.894531 283.628906 L 275.894531 274.378906 L 285.128906 274.378906 " fill-opacity="1" fill-rule="nonzero"/><path fill="#a8691d" d="M 285.128906 255.882812 L 285.128906 265.136719 L 275.894531 265.136719 L 275.894531 255.882812 L 285.128906 255.882812 " fill-opacity="1" fill-rule="nonzero"/><path fill="#a8691d" d="M 285.128906 246.632812 L 285.128906 255.882812 L 275.894531 255.882812 L 275.894531 246.632812 L 285.128906 246.632812 " fill-opacity="1" fill-rule="nonzero"/><path fill="#fad00d" d="M 285.128906 237.382812 L 285.128906 246.632812 L 275.894531 246.632812 L 275.894531 237.382812 L 285.128906 237.382812 " fill-opacity="1" fill-rule="nonzero"/><path fill="#e3a03a" d="M 285.128906 228.136719 L 285.128906 237.382812 L 275.894531 237.382812 L 275.894531 228.136719 L 285.128906 228.136719 " fill-opacity="1" fill-rule="nonzero"/><path fill="#d38d18" d="M 285.128906 218.882812 L 285.128906 228.136719 L 275.894531 228.136719 L 275.894531 218.882812 L 285.128906 218.882812 " fill-opacity="1" fill-rule="nonzero"/><path fill="#a8691d" d="M 285.128906 209.636719 L 285.128906 218.882812 L 275.894531 218.882812 L 275.894531 209.636719 L 285.128906 209.636719 " fill-opacity="1" fill-rule="nonzero"/><path fill="#a8691d" d="M 285.128906 200.382812 L 285.128906 209.636719 L 275.894531 209.636719 L 275.894531 200.382812 L 285.128906 200.382812 " fill-opacity="1" fill-rule="nonzero"/><path fill="#3e373d" d="M 275.894531 311.375 L 275.894531 320.628906 L 266.65625 320.628906 L 266.65625 311.375 L 275.894531 311.375 " fill-opacity="1" fill-rule="nonzero"/><path fill="#358e3f" d="M 275.894531 302.128906 L 275.894531 311.375 L 266.65625 311.375 L 266.65625 302.128906 L 275.894531 302.128906 " fill-opacity="1" fill-rule="nonzero"/><path fill="#358e3f" d="M 275.894531 292.882812 L 275.894531 302.128906 L 266.65625 302.128906 L 266.65625 292.882812 L 275.894531 292.882812 " fill-opacity="1" fill-rule="nonzero"/><path fill="#1d381e" d="M 275.894531 283.628906 L 275.894531 292.882812 L 266.65625 292.882812 L 266.65625 283.628906 L 275.894531 283.628906 " fill-opacity="1" fill-rule="nonzero"/><path fill="#a8691d" d="M 275.894531 255.882812 L 275.894531 265.136719 L 266.65625 265.136719 L 266.65625 255.882812 L 275.894531 255.882812 " fill-opacity="1" fill-rule="nonzero"/><path fill="#e3a03a" d="M 275.894531 246.632812 L 275.894531 255.882812 L 266.65625 255.882812 L 266.65625 246.632812 L 275.894531 246.632812 " fill-opacity="1" fill-rule="nonzero"/><path fill="#e3a03a" d="M 275.894531 237.382812 L 275.894531 246.632812 L 266.65625 246.632812 L 266.65625 237.382812 L 275.894531 237.382812 " fill-opacity="1" fill-rule="nonzero"/><path fill="#fad00d" d="M 275.894531 228.136719 L 275.894531 237.382812 L 266.65625 237.382812 L 266.65625 228.136719 L 275.894531 228.136719 " fill-opacity="1" fill-rule="nonzero"/><path fill="#fad00d" d="M 275.894531 218.882812 L 275.894531 228.136719 L 266.65625 228.136719 L 266.65625 218.882812 L 275.894531 218.882812 " fill-opacity="1" fill-rule="nonzero"/><path fill="#e3a03a" d="M 275.894531 209.636719 L 275.894531 218.882812 L 266.65625 218.882812 L 266.65625 209.636719 L 275.894531 209.636719 " fill-opacity="1" fill-rule="nonzero"/><path fill="#a8691d" d="M 275.894531 200.382812 L 275.894531 209.636719 L 266.65625 209.636719 L 266.65625 200.382812 L 275.894531 200.382812 " fill-opacity="1" fill-rule="nonzero"/><path fill="#1d381e" d="M 266.65625 311.375 L 266.65625 320.628906 L 257.410156 320.628906 L 257.410156 311.375 L 266.65625 311.375 " fill-opacity="1" fill-rule="nonzero"/><path fill="#358e3f" d="M 266.65625 302.128906 L 266.65625 311.375 L 257.410156 311.375 L 257.410156 302.128906 L 266.65625 302.128906 " fill-opacity="1" fill-rule="nonzero"/><path fill="#1d381e" d="M 266.65625 292.882812 L 266.65625 302.128906 L 257.410156 302.128906 L 257.410156 292.882812 L 266.65625 292.882812 " fill-opacity="1" fill-rule="nonzero"/><path fill="#358e3f" d="M 266.65625 283.628906 L 266.65625 292.882812 L 257.410156 292.882812 L 257.410156 283.628906 L 266.65625 283.628906 " fill-opacity="1" fill-rule="nonzero"/><path fill="#1d381e" d="M 266.65625 274.378906 L 266.65625 283.628906 L 257.410156 283.628906 L 257.410156 274.378906 L 266.65625 274.378906 " fill-opacity="1" fill-rule="nonzero"/><path fill="#1d381e" d="M 266.65625 265.136719 L 266.65625 274.378906 L 257.410156 274.378906 L 257.410156 265.136719 L 266.65625 265.136719 " fill-opacity="1" fill-rule="nonzero"/><path fill="#a8691d" d="M 266.65625 255.882812 L 266.65625 265.136719 L 257.410156 265.136719 L 257.410156 255.882812 L 266.65625 255.882812 " fill-opacity="1" fill-rule="nonzero"/><path fill="#d38d18" d="M 266.65625 246.632812 L 266.65625 255.882812 L 257.410156 255.882812 L 257.410156 246.632812 L 266.65625 246.632812 " fill-opacity="1" fill-rule="nonzero"/><path fill="#fad00d" d="M 266.65625 237.382812 L 266.65625 246.632812 L 257.410156 246.632812 L 257.410156 237.382812 L 266.65625 237.382812 " fill-opacity="1" fill-rule="nonzero"/><path fill="#fad00d" d="M 266.65625 228.136719 L 266.65625 237.382812 L 257.410156 237.382812 L 257.410156 228.136719 L 266.65625 228.136719 " fill-opacity="1" fill-rule="nonzero"/><path fill="#fad00d" d="M 266.65625 218.882812 L 266.65625 228.136719 L 257.410156 228.136719 L 257.410156 218.882812 L 266.65625 218.882812 " fill-opacity="1" fill-rule="nonzero"/><path fill="#fad00d" d="M 266.65625 209.636719 L 266.65625 218.882812 L 257.410156 218.882812 L 257.410156 209.636719 L 266.65625 209.636719 " fill-opacity="1" fill-rule="nonzero"/><path fill="#a8691d" d="M 266.65625 200.382812 L 266.65625 209.636719 L 257.410156 209.636719 L 257.410156 200.382812 L 266.65625 200.382812 " fill-opacity="1" fill-rule="nonzero"/><path fill="#1d381e" d="M 257.410156 311.375 L 257.410156 320.628906 L 248.171875 320.628906 L 248.171875 311.375 L 257.410156 311.375 " fill-opacity="1" fill-rule="nonzero"/><path fill="#1d381e" d="M 257.410156 302.128906 L 257.410156 311.375 L 248.171875 311.375 L 248.171875 302.128906 L 257.410156 302.128906 " fill-opacity="1" fill-rule="nonzero"/><path fill="#235528" d="M 257.410156 292.882812 L 257.410156 302.128906 L 248.171875 302.128906 L 248.171875 292.882812 L 257.410156 292.882812 " fill-opacity="1" fill-rule="nonzero"/><path fill="#235528" d="M 257.410156 283.628906 L 257.410156 292.882812 L 248.171875 292.882812 L 248.171875 283.628906 L 257.410156 283.628906 " fill-opacity="1" fill-rule="nonzero"/><path fill="#235528" d="M 257.410156 274.378906 L 257.410156 283.628906 L 248.171875 283.628906 L 248.171875 274.378906 L 257.410156 274.378906 " fill-opacity="1" fill-rule="nonzero"/><path fill="#235528" d="M 257.410156 265.136719 L 257.410156 274.378906 L 248.171875 274.378906 L 248.171875 265.136719 L 257.410156 265.136719 " fill-opacity="1" fill-rule="nonzero"/><path fill="#a8691d" d="M 257.410156 255.882812 L 257.410156 265.136719 L 248.171875 265.136719 L 248.171875 255.882812 L 257.410156 255.882812 " fill-opacity="1" fill-rule="nonzero"/><path fill="#e3a03a" d="M 257.410156 246.632812 L 257.410156 255.882812 L 248.171875 255.882812 L 248.171875 246.632812 L 257.410156 246.632812 " fill-opacity="1" fill-rule="nonzero"/><path fill="#fad00d" d="M 257.410156 237.382812 L 257.410156 246.632812 L 248.171875 246.632812 L 248.171875 237.382812 L 257.410156 237.382812 " fill-opacity="1" fill-rule="nonzero"/><path fill="#fad00d" d="M 257.410156 228.136719 L 257.410156 237.382812 L 248.171875 237.382812 L 248.171875 228.136719 L 257.410156 228.136719 " fill-opacity="1" fill-rule="nonzero"/><path fill="#fad00d" d="M 257.410156 218.882812 L 257.410156 228.136719 L 248.171875 228.136719 L 248.171875 218.882812 L 257.410156 218.882812 " fill-opacity="1" fill-rule="nonzero"/><path fill="#fad00d" d="M 257.410156 209.636719 L 257.410156 218.882812 L 248.171875 218.882812 L 248.171875 209.636719 L 257.410156 209.636719 " fill-opacity="1" fill-rule="nonzero"/><path fill="#fad00d" d="M 257.410156 200.382812 L 257.410156 209.636719 L 248.171875 209.636719 L 248.171875 200.382812 L 257.410156 200.382812 " fill-opacity="1" fill-rule="nonzero"/><path fill="#a8691d" d="M 257.410156 191.132812 L 257.410156 200.382812 L 248.171875 200.382812 L 248.171875 191.132812 L 257.410156 191.132812 " fill-opacity="1" fill-rule="nonzero"/><path fill="#1d381e" d="M 248.171875 311.375 L 248.171875 320.628906 L 238.929688 320.628906 L 238.929688 311.375 L 248.171875 311.375 " fill-opacity="1" fill-rule="nonzero"/><path fill="#827481" d="M 248.171875 302.128906 L 248.171875 311.375 L 238.929688 311.375 L 238.929688 302.128906 L 248.171875 302.128906 " fill-opacity="1" fill-rule="nonzero"/><path fill="#827481" d="M 248.171875 292.882812 L 248.171875 302.128906 L 238.929688 302.128906 L 238.929688 292.882812 L 248.171875 292.882812 " fill-opacity="1" fill-rule="nonzero"/><path fill="#827481" d="M 248.171875 283.628906 L 248.171875 292.882812 L 238.929688 292.882812 L 238.929688 283.628906 L 248.171875 283.628906 " fill-opacity="1" fill-rule="nonzero"/><path fill="#827481" d="M 248.171875 274.378906 L 248.171875 283.628906 L 238.929688 283.628906 L 238.929688 274.378906 L 248.171875 274.378906 " fill-opacity="1" fill-rule="nonzero"/><path fill="#827481" d="M 248.171875 265.136719 L 248.171875 274.378906 L 238.929688 274.378906 L 238.929688 265.136719 L 248.171875 265.136719 " fill-opacity="1" fill-rule="nonzero"/><path fill="#a8691d" d="M 248.171875 255.882812 L 248.171875 265.136719 L 238.929688 265.136719 L 238.929688 255.882812 L 248.171875 255.882812 " fill-opacity="1" fill-rule="nonzero"/><path fill="#d38d18" d="M 248.171875 246.632812 L 248.171875 255.882812 L 238.929688 255.882812 L 238.929688 246.632812 L 248.171875 246.632812 " fill-opacity="1" fill-rule="nonzero"/><path fill="#fad00d" d="M 248.171875 237.382812 L 248.171875 246.632812 L 238.929688 246.632812 L 238.929688 237.382812 L 248.171875 237.382812 " fill-opacity="1" fill-rule="nonzero"/><path fill="#fad00d" d="M 248.171875 228.136719 L 248.171875 237.382812 L 238.929688 237.382812 L 238.929688 228.136719 L 248.171875 228.136719 " fill-opacity="1" fill-rule="nonzero"/><path fill="#e98119" d="M 248.171875 218.882812 L 248.171875 228.136719 L 238.929688 228.136719 L 238.929688 218.882812 L 248.171875 218.882812 " fill-opacity="1" fill-rule="nonzero"/><path fill="#a8691d" d="M 248.171875 209.636719 L 248.171875 218.882812 L 238.929688 218.882812 L 238.929688 209.636719 L 248.171875 209.636719 " fill-opacity="1" fill-rule="nonzero"/><path fill="#e98119" d="M 248.171875 200.382812 L 248.171875 209.636719 L 238.929688 209.636719 L 238.929688 200.382812 L 248.171875 200.382812 " fill-opacity="1" fill-rule="nonzero"/><path fill="#a8691d" d="M 248.171875 191.132812 L 248.171875 200.382812 L 238.929688 200.382812 L 238.929688 191.132812 L 248.171875 191.132812 " fill-opacity="1" fill-rule="nonzero"/><path fill="#3e373d" d="M 238.929688 311.375 L 238.929688 320.628906 L 229.695312 320.628906 L 229.695312 311.375 L 238.929688 311.375 " fill-opacity="1" fill-rule="nonzero"/><path fill="#827481" d="M 238.929688 302.128906 L 238.929688 311.375 L 229.695312 311.375 L 229.695312 302.128906 L 238.929688 302.128906 " fill-opacity="1" fill-rule="nonzero"/><path fill="#b3acb1" d="M 238.929688 292.882812 L 238.929688 302.128906 L 229.695312 302.128906 L 229.695312 292.882812 L 238.929688 292.882812 " fill-opacity="1" fill-rule="nonzero"/><path fill="#b3acb1" d="M 238.929688 283.628906 L 238.929688 292.882812 L 229.695312 292.882812 L 229.695312 283.628906 L 238.929688 283.628906 " fill-opacity="1" fill-rule="nonzero"/><path fill="#b3acb1" d="M 238.929688 274.378906 L 238.929688 283.628906 L 229.695312 283.628906 L 229.695312 274.378906 L 238.929688 274.378906 " fill-opacity="1" fill-rule="nonzero"/><path fill="#827481" d="M 238.929688 265.136719 L 238.929688 274.378906 L 229.695312 274.378906 L 229.695312 265.136719 L 238.929688 265.136719 " fill-opacity="1" fill-rule="nonzero"/><path fill="#a8691d" d="M 238.929688 255.882812 L 238.929688 265.136719 L 229.695312 265.136719 L 229.695312 255.882812 L 238.929688 255.882812 " fill-opacity="1" fill-rule="nonzero"/><path fill="#e3a03a" d="M 238.929688 246.632812 L 238.929688 255.882812 L 229.695312 255.882812 L 229.695312 246.632812 L 238.929688 246.632812 " fill-opacity="1" fill-rule="nonzero"/><path fill="#fad00d" d="M 238.929688 237.382812 L 238.929688 246.632812 L 229.695312 246.632812 L 229.695312 237.382812 L 238.929688 237.382812 " fill-opacity="1" fill-rule="nonzero"/><path fill="#fad00d" d="M 238.929688 228.136719 L 238.929688 237.382812 L 229.695312 237.382812 L 229.695312 228.136719 L 238.929688 228.136719 " fill-opacity="1" fill-rule="nonzero"/><path fill="#a8691d" d="M 238.929688 218.882812 L 238.929688 228.136719 L 229.695312 228.136719 L 229.695312 218.882812 L 238.929688 218.882812 " fill-opacity="1" fill-rule="nonzero"/><path fill="#e98119" d="M 238.929688 209.636719 L 238.929688 218.882812 L 229.695312 218.882812 L 229.695312 209.636719 L 238.929688 209.636719 " fill-opacity="1" fill-rule="nonzero"/><path fill="#a8691d" d="M 238.929688 200.382812 L 238.929688 209.636719 L 229.695312 209.636719 L 229.695312 200.382812 L 238.929688 200.382812 " fill-opacity="1" fill-rule="nonzero"/><path fill="#a8691d" d="M 238.929688 191.132812 L 238.929688 200.382812 L 229.695312 200.382812 L 229.695312 191.132812 L 238.929688 191.132812 " fill-opacity="1" fill-rule="nonzero"/><path fill="#3e373d" d="M 229.695312 311.375 L 229.695312 320.628906 L 220.457031 320.628906 L 220.457031 311.375 L 229.695312 311.375 " fill-opacity="1" fill-rule="nonzero"/><path fill="#c9bec5" d="M 229.695312 302.128906 L 229.695312 311.375 L 220.457031 311.375 L 220.457031 302.128906 L 229.695312 302.128906 " fill-opacity="1" fill-rule="nonzero"/><path fill="#b3acb1" d="M 229.695312 292.882812 L 229.695312 302.128906 L 220.457031 302.128906 L 220.457031 292.882812 L 229.695312 292.882812 " fill-opacity="1" fill-rule="nonzero"/><path fill="#999799" d="M 229.695312 283.628906 L 229.695312 292.882812 L 220.457031 292.882812 L 220.457031 283.628906 L 229.695312 283.628906 " fill-opacity="1" fill-rule="nonzero"/><path fill="#c9bec5" d="M 229.695312 274.378906 L 229.695312 283.628906 L 220.457031 283.628906 L 220.457031 274.378906 L 229.695312 274.378906 " fill-opacity="1" fill-rule="nonzero"/><path fill="#999799" d="M 229.695312 265.136719 L 229.695312 274.378906 L 220.457031 274.378906 L 220.457031 265.136719 L 229.695312 265.136719 " fill-opacity="1" fill-rule="nonzero"/><path fill="#a8691d" d="M 229.695312 255.882812 L 229.695312 265.136719 L 220.457031 265.136719 L 220.457031 255.882812 L 229.695312 255.882812 " fill-opacity="1" fill-rule="nonzero"/><path fill="#e3a03a" d="M 229.695312 246.632812 L 229.695312 255.882812 L 220.457031 255.882812 L 220.457031 246.632812 L 229.695312 246.632812 " fill-opacity="1" fill-rule="nonzero"/><path fill="#fad00d" d="M 229.695312 237.382812 L 229.695312 246.632812 L 220.457031 246.632812 L 220.457031 237.382812 L 229.695312 237.382812 " fill-opacity="1" fill-rule="nonzero"/><path fill="#fad00d" d="M 229.695312 228.136719 L 229.695312 237.382812 L 220.457031 237.382812 L 220.457031 228.136719 L 229.695312 228.136719 " fill-opacity="1" fill-rule="nonzero"/><path fill="#e3a03a" d="M 229.695312 218.882812 L 229.695312 228.136719 L 220.457031 228.136719 L 220.457031 218.882812 L 229.695312 218.882812 " fill-opacity="1" fill-rule="nonzero"/><path fill="#a8691d" d="M 229.695312 209.636719 L 229.695312 218.882812 L 220.457031 218.882812 L 220.457031 209.636719 L 229.695312 209.636719 " fill-opacity="1" fill-rule="nonzero"/><path fill="#e3a03a" d="M 229.695312 200.382812 L 229.695312 209.636719 L 220.457031 209.636719 L 220.457031 200.382812 L 229.695312 200.382812 " fill-opacity="1" fill-rule="nonzero"/><path fill="#a8691d" d="M 229.695312 191.132812 L 229.695312 200.382812 L 220.457031 200.382812 L 220.457031 191.132812 L 229.695312 191.132812 " fill-opacity="1" fill-rule="nonzero"/><path fill="#a8691d" d="M 229.695312 181.890625 L 229.695312 191.132812 L 220.457031 191.132812 L 220.457031 181.890625 L 229.695312 181.890625 " fill-opacity="1" fill-rule="nonzero"/><path fill="#3e373d" d="M 220.457031 311.375 L 220.457031 320.628906 L 211.210938 320.628906 L 211.210938 311.375 L 220.457031 311.375 " fill-opacity="1" fill-rule="nonzero"/><path fill="#b3acb1" d="M 220.457031 302.128906 L 220.457031 311.375 L 211.210938 311.375 L 211.210938 302.128906 L 220.457031 302.128906 " fill-opacity="1" fill-rule="nonzero"/><path fill="#999799" d="M 220.457031 292.882812 L 220.457031 302.128906 L 211.210938 302.128906 L 211.210938 292.882812 L 220.457031 292.882812 " fill-opacity="1" fill-rule="nonzero"/><path fill="#c9bec5" d="M 220.457031 283.628906 L 220.457031 292.882812 L 211.210938 292.882812 L 211.210938 283.628906 L 220.457031 283.628906 " fill-opacity="1" fill-rule="nonzero"/><path fill="#999799" d="M 220.457031 274.378906 L 220.457031 283.628906 L 211.210938 283.628906 L 211.210938 274.378906 L 220.457031 274.378906 " fill-opacity="1" fill-rule="nonzero"/><path fill="#999799" d="M 220.457031 265.136719 L 220.457031 274.378906 L 211.210938 274.378906 L 211.210938 265.136719 L 220.457031 265.136719 " fill-opacity="1" fill-rule="nonzero"/><path fill="#a8691d" d="M 220.457031 255.882812 L 220.457031 265.136719 L 211.210938 265.136719 L 211.210938 255.882812 L 220.457031 255.882812 " fill-opacity="1" fill-rule="nonzero"/><path fill="#e3a03a" d="M 220.457031 246.632812 L 220.457031 255.882812 L 211.210938 255.882812 L 211.210938 246.632812 L 220.457031 246.632812 " fill-opacity="1" fill-rule="nonzero"/><path fill="#fad00d" d="M 220.457031 237.382812 L 220.457031 246.632812 L 211.210938 246.632812 L 211.210938 237.382812 L 220.457031 237.382812 " fill-opacity="1" fill-rule="nonzero"/><path fill="#fad00d" d="M 220.457031 228.136719 L 220.457031 237.382812 L 211.210938 237.382812 L 211.210938 228.136719 L 220.457031 228.136719 " fill-opacity="1" fill-rule="nonzero"/><path fill="#fad00d" d="M 220.457031 218.882812 L 220.457031 228.136719 L 211.210938 228.136719 L 211.210938 218.882812 L 220.457031 218.882812 " fill-opacity="1" fill-rule="nonzero"/><path fill="#fad00d" d="M 220.457031 209.636719 L 220.457031 218.882812 L 211.210938 218.882812 L 211.210938 209.636719 L 220.457031 209.636719 " fill-opacity="1" fill-rule="nonzero"/><path fill="#fad00d" d="M 220.457031 200.382812 L 220.457031 209.636719 L 211.210938 209.636719 L 211.210938 200.382812 L 220.457031 200.382812 " fill-opacity="1" fill-rule="nonzero"/><path fill="#f5e258" d="M 220.457031 191.132812 L 220.457031 200.382812 L 211.210938 200.382812 L 211.210938 191.132812 L 220.457031 191.132812 " fill-opacity="1" fill-rule="nonzero"/><path fill="#a8691d" d="M 220.457031 181.890625 L 220.457031 191.132812 L 211.210938 191.132812 L 211.210938 181.890625 L 220.457031 181.890625 " fill-opacity="1" fill-rule="nonzero"/><path fill="#3e373d" d="M 211.210938 311.375 L 211.210938 320.628906 L 201.96875 320.628906 L 201.96875 311.375 L 211.210938 311.375 " fill-opacity="1" fill-rule="nonzero"/><path fill="#c9bec5" d="M 211.210938 302.128906 L 211.210938 311.375 L 201.96875 311.375 L 201.96875 302.128906 L 211.210938 302.128906 " fill-opacity="1" fill-rule="nonzero"/><path fill="#b3acb1" d="M 211.210938 292.882812 L 211.210938 302.128906 L 201.96875 302.128906 L 201.96875 292.882812 L 211.210938 292.882812 " fill-opacity="1" fill-rule="nonzero"/><path fill="#999799" d="M 211.210938 283.628906 L 211.210938 292.882812 L 201.96875 292.882812 L 201.96875 283.628906 L 211.210938 283.628906 " fill-opacity="1" fill-rule="nonzero"/><path fill="#c9bec5" d="M 211.210938 274.378906 L 211.210938 283.628906 L 201.96875 283.628906 L 201.96875 274.378906 L 211.210938 274.378906 " fill-opacity="1" fill-rule="nonzero"/><path fill="#999799" d="M 211.210938 265.136719 L 211.210938 274.378906 L 201.96875 274.378906 L 201.96875 265.136719 L 211.210938 265.136719 " fill-opacity="1" fill-rule="nonzero"/><path fill="#a8691d" d="M 211.210938 255.882812 L 211.210938 265.136719 L 201.96875 265.136719 L 201.96875 255.882812 L 211.210938 255.882812 " fill-opacity="1" fill-rule="nonzero"/><path fill="#e3a03a" d="M 211.210938 246.632812 L 211.210938 255.882812 L 201.96875 255.882812 L 201.96875 246.632812 L 211.210938 246.632812 " fill-opacity="1" fill-rule="nonzero"/><path fill="#fad00d" d="M 211.210938 237.382812 L 211.210938 246.632812 L 201.96875 246.632812 L 201.96875 237.382812 L 211.210938 237.382812 " fill-opacity="1" fill-rule="nonzero"/><path fill="#fad00d" d="M 211.210938 228.136719 L 211.210938 237.382812 L 201.96875 237.382812 L 201.96875 228.136719 L 211.210938 228.136719 " fill-opacity="1" fill-rule="nonzero"/><path fill="#fad00d" d="M 211.210938 218.882812 L 211.210938 228.136719 L 201.96875 228.136719 L 201.96875 218.882812 L 211.210938 218.882812 " fill-opacity="1" fill-rule="nonzero"/><path fill="#fad00d" d="M 211.210938 209.636719 L 211.210938 218.882812 L 201.96875 218.882812 L 201.96875 209.636719 L 211.210938 209.636719 " fill-opacity="1" fill-rule="nonzero"/><path fill="#fad00d" d="M 211.210938 200.382812 L 211.210938 209.636719 L 201.96875 209.636719 L 201.96875 200.382812 L 211.210938 200.382812 " fill-opacity="1" fill-rule="nonzero"/><path fill="#f5e258" d="M 211.210938 191.132812 L 211.210938 200.382812 L 201.96875 200.382812 L 201.96875 191.132812 L 211.210938 191.132812 " fill-opacity="1" fill-rule="nonzero"/><path fill="#a8691d" d="M 211.210938 181.890625 L 211.210938 191.132812 L 201.96875 191.132812 L 201.96875 181.890625 L 211.210938 181.890625 " fill-opacity="1" fill-rule="nonzero"/><path fill="#3e373d" d="M 201.96875 311.375 L 201.96875 320.628906 L 192.734375 320.628906 L 192.734375 311.375 L 201.96875 311.375 " fill-opacity="1" fill-rule="nonzero"/><path fill="#c9bec5" d="M 201.96875 302.128906 L 201.96875 311.375 L 192.734375 311.375 L 192.734375 302.128906 L 201.96875 302.128906 " fill-opacity="1" fill-rule="nonzero"/><path fill="#c9bec5" d="M 201.96875 292.882812 L 201.96875 302.128906 L 192.734375 302.128906 L 192.734375 292.882812 L 201.96875 292.882812 " fill-opacity="1" fill-rule="nonzero"/><path fill="#c9bec5" d="M 201.96875 283.628906 L 201.96875 292.882812 L 192.734375 292.882812 L 192.734375 283.628906 L 201.96875 283.628906 " fill-opacity="1" fill-rule="nonzero"/><path fill="#999799" d="M 201.96875 274.378906 L 201.96875 283.628906 L 192.734375 283.628906 L 192.734375 274.378906 L 201.96875 274.378906 " fill-opacity="1" fill-rule="nonzero"/><path fill="#827481" d="M 201.96875 265.136719 L 201.96875 274.378906 L 192.734375 274.378906 L 192.734375 265.136719 L 201.96875 265.136719 " fill-opacity="1" fill-rule="nonzero"/><path fill="#a8691d" d="M 201.96875 255.882812 L 201.96875 265.136719 L 192.734375 265.136719 L 192.734375 255.882812 L 201.96875 255.882812 " fill-opacity="1" fill-rule="nonzero"/><path fill="#e3a03a" d="M 201.96875 246.632812 L 201.96875 255.882812 L 192.734375 255.882812 L 192.734375 246.632812 L 201.96875 246.632812 " fill-opacity="1" fill-rule="nonzero"/><path fill="#fad00d" d="M 201.96875 237.382812 L 201.96875 246.632812 L 192.734375 246.632812 L 192.734375 237.382812 L 201.96875 237.382812 " fill-opacity="1" fill-rule="nonzero"/><path fill="#fad00d" d="M 201.96875 228.136719 L 201.96875 237.382812 L 192.734375 237.382812 L 192.734375 228.136719 L 201.96875 228.136719 " fill-opacity="1" fill-rule="nonzero"/><path fill="#fad00d" d="M 201.96875 218.882812 L 201.96875 228.136719 L 192.734375 228.136719 L 192.734375 218.882812 L 201.96875 218.882812 " fill-opacity="1" fill-rule="nonzero"/><path fill="#fad00d" d="M 201.96875 209.636719 L 201.96875 218.882812 L 192.734375 218.882812 L 192.734375 209.636719 L 201.96875 209.636719 " fill-opacity="1" fill-rule="nonzero"/><path fill="#f5e258" d="M 201.96875 200.382812 L 201.96875 209.636719 L 192.734375 209.636719 L 192.734375 200.382812 L 201.96875 200.382812 " fill-opacity="1" fill-rule="nonzero"/><path fill="#f5e258" d="M 201.96875 191.132812 L 201.96875 200.382812 L 192.734375 200.382812 L 192.734375 191.132812 L 201.96875 191.132812 " fill-opacity="1" fill-rule="nonzero"/><path fill="#a8691d" d="M 201.96875 181.890625 L 201.96875 191.132812 L 192.734375 191.132812 L 192.734375 181.890625 L 201.96875 181.890625 " fill-opacity="1" fill-rule="nonzero"/><path fill="#3e373d" d="M 192.734375 311.375 L 192.734375 320.628906 L 183.496094 320.628906 L 183.496094 311.375 L 192.734375 311.375 " fill-opacity="1" fill-rule="nonzero"/><path fill="#ffffff" d="M 192.734375 302.128906 L 192.734375 311.375 L 183.496094 311.375 L 183.496094 302.128906 L 192.734375 302.128906 " fill-opacity="1" fill-rule="nonzero"/><path fill="#c9bec5" d="M 192.734375 292.882812 L 192.734375 302.128906 L 183.496094 302.128906 L 183.496094 292.882812 L 192.734375 292.882812 " fill-opacity="1" fill-rule="nonzero"/><path fill="#c9bec5" d="M 192.734375 283.628906 L 192.734375 292.882812 L 183.496094 292.882812 L 183.496094 283.628906 L 192.734375 283.628906 " fill-opacity="1" fill-rule="nonzero"/><path fill="#c9bec5" d="M 192.734375 274.378906 L 192.734375 283.628906 L 183.496094 283.628906 L 183.496094 274.378906 L 192.734375 274.378906 " fill-opacity="1" fill-rule="nonzero"/><path fill="#827481" d="M 192.734375 265.136719 L 192.734375 274.378906 L 183.496094 274.378906 L 183.496094 265.136719 L 192.734375 265.136719 " fill-opacity="1" fill-rule="nonzero"/><path fill="#a8691d" d="M 192.734375 255.882812 L 192.734375 265.136719 L 183.496094 265.136719 L 183.496094 255.882812 L 192.734375 255.882812 " fill-opacity="1" fill-rule="nonzero"/><path fill="#e3a03a" d="M 192.734375 246.632812 L 192.734375 255.882812 L 183.496094 255.882812 L 183.496094 246.632812 L 192.734375 246.632812 " fill-opacity="1" fill-rule="nonzero"/><path fill="#fad00d" d="M 192.734375 237.382812 L 192.734375 246.632812 L 183.496094 246.632812 L 183.496094 237.382812 L 192.734375 237.382812 " fill-opacity="1" fill-rule="nonzero"/><path fill="#fad00d" d="M 192.734375 228.136719 L 192.734375 237.382812 L 183.496094 237.382812 L 183.496094 228.136719 L 192.734375 228.136719 " fill-opacity="1" fill-rule="nonzero"/><path fill="#fad00d" d="M 192.734375 218.882812 L 192.734375 228.136719 L 183.496094 228.136719 L 183.496094 218.882812 L 192.734375 218.882812 " fill-opacity="1" fill-rule="nonzero"/><path fill="#fad00d" d="M 192.734375 209.636719 L 192.734375 218.882812 L 183.496094 218.882812 L 183.496094 209.636719 L 192.734375 209.636719 " fill-opacity="1" fill-rule="nonzero"/><path fill="#f5e258" d="M 192.734375 200.382812 L 192.734375 209.636719 L 183.496094 209.636719 L 183.496094 200.382812 L 192.734375 200.382812 " fill-opacity="1" fill-rule="nonzero"/><path fill="#f5e258" d="M 192.734375 191.132812 L 192.734375 200.382812 L 183.496094 200.382812 L 183.496094 191.132812 L 192.734375 191.132812 " fill-opacity="1" fill-rule="nonzero"/><path fill="#a8691d" d="M 192.734375 181.890625 L 192.734375 191.132812 L 183.496094 191.132812 L 183.496094 181.890625 L 192.734375 181.890625 " fill-opacity="1" fill-rule="nonzero"/><path fill="#3e373d" d="M 183.496094 311.375 L 183.496094 320.628906 L 174.253906 320.628906 L 174.253906 311.375 L 183.496094 311.375 " fill-opacity="1" fill-rule="nonzero"/><path fill="#ffffff" d="M 183.496094 302.128906 L 183.496094 311.375 L 174.253906 311.375 L 174.253906 302.128906 L 183.496094 302.128906 " fill-opacity="1" fill-rule="nonzero"/><path fill="#ffffff" d="M 183.496094 292.882812 L 183.496094 302.128906 L 174.253906 302.128906 L 174.253906 292.882812 L 183.496094 292.882812 " fill-opacity="1" fill-rule="nonzero"/><path fill="#c9bec5" d="M 183.496094 283.628906 L 183.496094 292.882812 L 174.253906 292.882812 L 174.253906 283.628906 L 183.496094 283.628906 " fill-opacity="1" fill-rule="nonzero"/><path fill="#c9bec5" d="M 183.496094 274.378906 L 183.496094 283.628906 L 174.253906 283.628906 L 174.253906 274.378906 L 183.496094 274.378906 " fill-opacity="1" fill-rule="nonzero"/><path fill="#ffffff" d="M 183.496094 265.136719 L 183.496094 274.378906 L 174.253906 274.378906 L 174.253906 265.136719 L 183.496094 265.136719 " fill-opacity="1" fill-rule="nonzero"/><path fill="#a8691d" d="M 183.496094 255.882812 L 183.496094 265.136719 L 174.253906 265.136719 L 174.253906 255.882812 L 183.496094 255.882812 " fill-opacity="1" fill-rule="nonzero"/><path fill="#e98119" d="M 183.496094 246.632812 L 183.496094 255.882812 L 174.253906 255.882812 L 174.253906 246.632812 L 183.496094 246.632812 " fill-opacity="1" fill-rule="nonzero"/><path fill="#a8691d" d="M 183.496094 237.382812 L 183.496094 246.632812 L 174.253906 246.632812 L 174.253906 237.382812 L 183.496094 237.382812 " fill-opacity="1" fill-rule="nonzero"/><path fill="#e98119" d="M 183.496094 228.136719 L 183.496094 237.382812 L 174.253906 237.382812 L 174.253906 228.136719 L 183.496094 228.136719 " fill-opacity="1" fill-rule="nonzero"/><path fill="#fad00d" d="M 183.496094 218.882812 L 183.496094 228.136719 L 174.253906 228.136719 L 174.253906 218.882812 L 183.496094 218.882812 " fill-opacity="1" fill-rule="nonzero"/><path fill="#fad00d" d="M 183.496094 209.636719 L 183.496094 218.882812 L 174.253906 218.882812 L 174.253906 209.636719 L 183.496094 209.636719 " fill-opacity="1" fill-rule="nonzero"/><path fill="#f5e258" d="M 183.496094 200.382812 L 183.496094 209.636719 L 174.253906 209.636719 L 174.253906 200.382812 L 183.496094 200.382812 " fill-opacity="1" fill-rule="nonzero"/><path fill="#f5e258" d="M 183.496094 191.132812 L 183.496094 200.382812 L 174.253906 200.382812 L 174.253906 191.132812 L 183.496094 191.132812 " fill-opacity="1" fill-rule="nonzero"/><path fill="#a8691d" d="M 183.496094 181.890625 L 183.496094 191.132812 L 174.253906 191.132812 L 174.253906 181.890625 L 183.496094 181.890625 " fill-opacity="1" fill-rule="nonzero"/><path fill="#1d381e" d="M 174.253906 311.375 L 174.253906 320.628906 L 165.011719 320.628906 L 165.011719 311.375 L 174.253906 311.375 " fill-opacity="1" fill-rule="nonzero"/><path fill="#827481" d="M 174.253906 302.128906 L 174.253906 311.375 L 165.011719 311.375 L 165.011719 302.128906 L 174.253906 302.128906 " fill-opacity="1" fill-rule="nonzero"/><path fill="#ffffff" d="M 174.253906 292.882812 L 174.253906 302.128906 L 165.011719 302.128906 L 165.011719 292.882812 L 174.253906 292.882812 " fill-opacity="1" fill-rule="nonzero"/><path fill="#ffffff" d="M 174.253906 283.628906 L 174.253906 292.882812 L 165.011719 292.882812 L 165.011719 283.628906 L 174.253906 283.628906 " fill-opacity="1" fill-rule="nonzero"/><path fill="#ffffff" d="M 174.253906 274.378906 L 174.253906 283.628906 L 165.011719 283.628906 L 165.011719 274.378906 L 174.253906 274.378906 " fill-opacity="1" fill-rule="nonzero"/><path fill="#235528" d="M 174.253906 265.136719 L 174.253906 274.378906 L 165.011719 274.378906 L 165.011719 265.136719 L 174.253906 265.136719 " fill-opacity="1" fill-rule="nonzero"/><path fill="#a8691d" d="M 174.253906 255.882812 L 174.253906 265.136719 L 165.011719 265.136719 L 165.011719 255.882812 L 174.253906 255.882812 " fill-opacity="1" fill-rule="nonzero"/><path fill="#e3a03a" d="M 174.253906 246.632812 L 174.253906 255.882812 L 165.011719 255.882812 L 165.011719 246.632812 L 174.253906 246.632812 " fill-opacity="1" fill-rule="nonzero"/><path fill="#e3a03a" d="M 174.253906 237.382812 L 174.253906 246.632812 L 165.011719 246.632812 L 165.011719 237.382812 L 174.253906 237.382812 " fill-opacity="1" fill-rule="nonzero"/><path fill="#e98119" d="M 174.253906 228.136719 L 174.253906 237.382812 L 165.011719 237.382812 L 165.011719 228.136719 L 174.253906 228.136719 " fill-opacity="1" fill-rule="nonzero"/><path fill="#a8691d" d="M 174.253906 218.882812 L 174.253906 228.136719 L 165.011719 228.136719 L 165.011719 218.882812 L 174.253906 218.882812 " fill-opacity="1" fill-rule="nonzero"/><path fill="#f5e258" d="M 174.253906 209.636719 L 174.253906 218.882812 L 165.011719 218.882812 L 165.011719 209.636719 L 174.253906 209.636719 " fill-opacity="1" fill-rule="nonzero"/><path fill="#f5e258" d="M 174.253906 200.382812 L 174.253906 209.636719 L 165.011719 209.636719 L 165.011719 200.382812 L 174.253906 200.382812 " fill-opacity="1" fill-rule="nonzero"/><path fill="#a8691d" d="M 174.253906 191.132812 L 174.253906 200.382812 L 165.011719 200.382812 L 165.011719 191.132812 L 174.253906 191.132812 " fill-opacity="1" fill-rule="nonzero"/><path fill="#1d381e" d="M 174.253906 181.890625 L 174.253906 191.132812 L 165.011719 191.132812 L 165.011719 181.890625 L 174.253906 181.890625 " fill-opacity="1" fill-rule="nonzero"/><path fill="#1d381e" d="M 174.253906 172.636719 L 174.253906 181.890625 L 165.011719 181.890625 L 165.011719 172.636719 L 174.253906 172.636719 " fill-opacity="1" fill-rule="nonzero"/><path fill="#1d381e" d="M 165.011719 311.375 L 165.011719 320.628906 L 155.777344 320.628906 L 155.777344 311.375 L 165.011719 311.375 " fill-opacity="1" fill-rule="nonzero"/><path fill="#827481" d="M 165.011719 302.128906 L 165.011719 311.375 L 155.777344 311.375 L 155.777344 302.128906 L 165.011719 302.128906 " fill-opacity="1" fill-rule="nonzero"/><path fill="#827481" d="M 165.011719 292.882812 L 165.011719 302.128906 L 155.777344 302.128906 L 155.777344 292.882812 L 165.011719 292.882812 " fill-opacity="1" fill-rule="nonzero"/><path fill="#827481" d="M 165.011719 283.628906 L 165.011719 292.882812 L 155.777344 292.882812 L 155.777344 283.628906 L 165.011719 283.628906 " fill-opacity="1" fill-rule="nonzero"/><path fill="#235528" d="M 165.011719 274.378906 L 165.011719 283.628906 L 155.777344 283.628906 L 155.777344 274.378906 L 165.011719 274.378906 " fill-opacity="1" fill-rule="nonzero"/><path fill="#235528" d="M 165.011719 265.136719 L 165.011719 274.378906 L 155.777344 274.378906 L 155.777344 265.136719 L 165.011719 265.136719 " fill-opacity="1" fill-rule="nonzero"/><path fill="#a8691d" d="M 165.011719 255.882812 L 165.011719 265.136719 L 155.777344 265.136719 L 155.777344 255.882812 L 165.011719 255.882812 " fill-opacity="1" fill-rule="nonzero"/><path fill="#a8691d" d="M 165.011719 246.632812 L 165.011719 255.882812 L 155.777344 255.882812 L 155.777344 246.632812 L 165.011719 246.632812 " fill-opacity="1" fill-rule="nonzero"/><path fill="#e3a03a" d="M 165.011719 237.382812 L 165.011719 246.632812 L 155.777344 246.632812 L 155.777344 237.382812 L 165.011719 237.382812 " fill-opacity="1" fill-rule="nonzero"/><path fill="#a8691d" d="M 165.011719 228.136719 L 165.011719 237.382812 L 155.777344 237.382812 L 155.777344 228.136719 L 165.011719 228.136719 " fill-opacity="1" fill-rule="nonzero"/><path fill="#e3a03a" d="M 165.011719 218.882812 L 165.011719 228.136719 L 155.777344 228.136719 L 155.777344 218.882812 L 165.011719 218.882812 " fill-opacity="1" fill-rule="nonzero"/><path fill="#f5e258" d="M 165.011719 209.636719 L 165.011719 218.882812 L 155.777344 218.882812 L 155.777344 209.636719 L 165.011719 209.636719 " fill-opacity="1" fill-rule="nonzero"/><path fill="#f5e258" d="M 165.011719 200.382812 L 165.011719 209.636719 L 155.777344 209.636719 L 155.777344 200.382812 L 165.011719 200.382812 " fill-opacity="1" fill-rule="nonzero"/><path fill="#a8691d" d="M 165.011719 191.132812 L 165.011719 200.382812 L 155.777344 200.382812 L 155.777344 191.132812 L 165.011719 191.132812 " fill-opacity="1" fill-rule="nonzero"/><path fill="#358e3f" d="M 165.011719 181.890625 L 165.011719 191.132812 L 155.777344 191.132812 L 155.777344 181.890625 L 165.011719 181.890625 " fill-opacity="1" fill-rule="nonzero"/><path fill="#1d381e" d="M 165.011719 172.636719 L 165.011719 181.890625 L 155.777344 181.890625 L 155.777344 172.636719 L 165.011719 172.636719 " fill-opacity="1" fill-rule="nonzero"/><path fill="#1d381e" d="M 165.011719 163.386719 L 165.011719 172.636719 L 155.777344 172.636719 L 155.777344 163.386719 L 165.011719 163.386719 " fill-opacity="1" fill-rule="nonzero"/><path fill="#1d381e" d="M 155.777344 311.375 L 155.777344 320.628906 L 146.535156 320.628906 L 146.535156 311.375 L 155.777344 311.375 " fill-opacity="1" fill-rule="nonzero"/><path fill="#1d381e" d="M 155.777344 302.128906 L 155.777344 311.375 L 146.535156 311.375 L 146.535156 302.128906 L 155.777344 302.128906 " fill-opacity="1" fill-rule="nonzero"/><path fill="#1d381e" d="M 155.777344 292.882812 L 155.777344 302.128906 L 146.535156 302.128906 L 146.535156 292.882812 L 155.777344 292.882812 " fill-opacity="1" fill-rule="nonzero"/><path fill="#235528" d="M 155.777344 283.628906 L 155.777344 292.882812 L 146.535156 292.882812 L 146.535156 283.628906 L 155.777344 283.628906 " fill-opacity="1" fill-rule="nonzero"/><path fill="#235528" d="M 155.777344 274.378906 L 155.777344 283.628906 L 146.535156 283.628906 L 146.535156 274.378906 L 155.777344 274.378906 " fill-opacity="1" fill-rule="nonzero"/><path fill="#358e3f" d="M 155.777344 265.136719 L 155.777344 274.378906 L 146.535156 274.378906 L 146.535156 265.136719 L 155.777344 265.136719 " fill-opacity="1" fill-rule="nonzero"/><path fill="#a8691d" d="M 155.777344 255.882812 L 155.777344 265.136719 L 146.535156 265.136719 L 146.535156 255.882812 L 155.777344 255.882812 " fill-opacity="1" fill-rule="nonzero"/><path fill="#e98119" d="M 155.777344 246.632812 L 155.777344 255.882812 L 146.535156 255.882812 L 146.535156 246.632812 L 155.777344 246.632812 " fill-opacity="1" fill-rule="nonzero"/><path fill="#d38d18" d="M 155.777344 237.382812 L 155.777344 246.632812 L 146.535156 246.632812 L 146.535156 237.382812 L 155.777344 237.382812 " fill-opacity="1" fill-rule="nonzero"/><path fill="#fad00d" d="M 155.777344 228.136719 L 155.777344 237.382812 L 146.535156 237.382812 L 146.535156 228.136719 L 155.777344 228.136719 " fill-opacity="1" fill-rule="nonzero"/><path fill="#f5e258" d="M 155.777344 218.882812 L 155.777344 228.136719 L 146.535156 228.136719 L 146.535156 218.882812 L 155.777344 218.882812 " fill-opacity="1" fill-rule="nonzero"/><path fill="#f5e258" d="M 155.777344 209.636719 L 155.777344 218.882812 L 146.535156 218.882812 L 146.535156 209.636719 L 155.777344 209.636719 " fill-opacity="1" fill-rule="nonzero"/><path fill="#f5e258" d="M 155.777344 200.382812 L 155.777344 209.636719 L 146.535156 209.636719 L 146.535156 200.382812 L 155.777344 200.382812 " fill-opacity="1" fill-rule="nonzero"/><path fill="#a8691d" d="M 155.777344 191.132812 L 155.777344 200.382812 L 146.535156 200.382812 L 146.535156 191.132812 L 155.777344 191.132812 " fill-opacity="1" fill-rule="nonzero"/><path fill="#358e3f" d="M 155.777344 181.890625 L 155.777344 191.132812 L 146.535156 191.132812 L 146.535156 181.890625 L 155.777344 181.890625 " fill-opacity="1" fill-rule="nonzero"/><path fill="#66c536" d="M 155.777344 172.636719 L 155.777344 181.890625 L 146.535156 181.890625 L 146.535156 172.636719 L 155.777344 172.636719 " fill-opacity="1" fill-rule="nonzero"/><path fill="#66c536" d="M 155.777344 163.386719 L 155.777344 172.636719 L 146.535156 172.636719 L 146.535156 163.386719 L 155.777344 163.386719 " fill-opacity="1" fill-rule="nonzero"/><path fill="#1d381e" d="M 155.777344 154.136719 L 155.777344 163.386719 L 146.535156 163.386719 L 146.535156 154.136719 L 155.777344 154.136719 " fill-opacity="1" fill-rule="nonzero"/><path fill="#1d381e" d="M 155.777344 144.890625 L 155.777344 154.136719 L 146.535156 154.136719 L 146.535156 144.890625 L 155.777344 144.890625 " fill-opacity="1" fill-rule="nonzero"/><path fill="#b3319f" d="M 155.777344 126.390625 L 155.777344 135.640625 L 146.535156 135.640625 L 146.535156 126.390625 L 155.777344 126.390625 " fill-opacity="1" fill-rule="nonzero"/><path fill="#b3319f" d="M 155.777344 117.136719 L 155.777344 126.390625 L 146.535156 126.390625 L 146.535156 117.136719 L 155.777344 117.136719 " fill-opacity="1" fill-rule="nonzero"/><path fill="#b3319f" d="M 155.777344 107.898438 L 155.777344 117.136719 L 146.535156 117.136719 L 146.535156 107.898438 L 155.777344 107.898438 " fill-opacity="1" fill-rule="nonzero"/><path fill="#1d381e" d="M 146.535156 311.375 L 146.535156 320.628906 L 137.296875 320.628906 L 137.296875 311.375 L 146.535156 311.375 " fill-opacity="1" fill-rule="nonzero"/><path fill="#358e3f" d="M 146.535156 302.128906 L 146.535156 311.375 L 137.296875 311.375 L 137.296875 302.128906 L 146.535156 302.128906 " fill-opacity="1" fill-rule="nonzero"/><path fill="#1d381e" d="M 146.535156 292.882812 L 146.535156 302.128906 L 137.296875 302.128906 L 137.296875 292.882812 L 146.535156 292.882812 " fill-opacity="1" fill-rule="nonzero"/><path fill="#1d381e" d="M 146.535156 283.628906 L 146.535156 292.882812 L 137.296875 292.882812 L 137.296875 283.628906 L 146.535156 283.628906 " fill-opacity="1" fill-rule="nonzero"/><path fill="#1d381e" d="M 146.535156 274.378906 L 146.535156 283.628906 L 137.296875 283.628906 L 137.296875 274.378906 L 146.535156 274.378906 " fill-opacity="1" fill-rule="nonzero"/><path fill="#1d381e" d="M 146.535156 265.136719 L 146.535156 274.378906 L 137.296875 274.378906 L 137.296875 265.136719 L 146.535156 265.136719 " fill-opacity="1" fill-rule="nonzero"/><path fill="#a8691d" d="M 146.535156 255.882812 L 146.535156 265.136719 L 137.296875 265.136719 L 137.296875 255.882812 L 146.535156 255.882812 " fill-opacity="1" fill-rule="nonzero"/><path fill="#d38d18" d="M 146.535156 246.632812 L 146.535156 255.882812 L 137.296875 255.882812 L 137.296875 246.632812 L 146.535156 246.632812 " fill-opacity="1" fill-rule="nonzero"/><path fill="#e3a03a" d="M 146.535156 237.382812 L 146.535156 246.632812 L 137.296875 246.632812 L 137.296875 237.382812 L 146.535156 237.382812 " fill-opacity="1" fill-rule="nonzero"/><path fill="#f5e258" d="M 146.535156 228.136719 L 146.535156 237.382812 L 137.296875 237.382812 L 137.296875 228.136719 L 146.535156 228.136719 " fill-opacity="1" fill-rule="nonzero"/><path fill="#f5e258" d="M 146.535156 218.882812 L 146.535156 228.136719 L 137.296875 228.136719 L 137.296875 218.882812 L 146.535156 218.882812 " fill-opacity="1" fill-rule="nonzero"/><path fill="#f5e258" d="M 146.535156 209.636719 L 146.535156 218.882812 L 137.296875 218.882812 L 137.296875 209.636719 L 146.535156 209.636719 " fill-opacity="1" fill-rule="nonzero"/><path fill="#a8691d" d="M 146.535156 200.382812 L 146.535156 209.636719 L 137.296875 209.636719 L 137.296875 200.382812 L 146.535156 200.382812 " fill-opacity="1" fill-rule="nonzero"/><path fill="#358e3f" d="M 146.535156 191.132812 L 146.535156 200.382812 L 137.296875 200.382812 L 137.296875 191.132812 L 146.535156 191.132812 " fill-opacity="1" fill-rule="nonzero"/><path fill="#66c536" d="M 146.535156 181.890625 L 146.535156 191.132812 L 137.296875 191.132812 L 137.296875 181.890625 L 146.535156 181.890625 " fill-opacity="1" fill-rule="nonzero"/><path fill="#66c536" d="M 146.535156 172.636719 L 146.535156 181.890625 L 137.296875 181.890625 L 137.296875 172.636719 L 146.535156 172.636719 " fill-opacity="1" fill-rule="nonzero"/><path fill="#1d381e" d="M 146.535156 163.386719 L 146.535156 172.636719 L 137.296875 172.636719 L 137.296875 163.386719 L 146.535156 163.386719 " fill-opacity="1" fill-rule="nonzero"/><path fill="#b3319f" d="M 146.535156 135.640625 L 146.535156 144.890625 L 137.296875 144.890625 L 137.296875 135.640625 L 146.535156 135.640625 " fill-opacity="1" fill-rule="nonzero"/><path fill="#b3319f" d="M 146.535156 126.390625 L 146.535156 135.640625 L 137.296875 135.640625 L 137.296875 126.390625 L 146.535156 126.390625 " fill-opacity="1" fill-rule="nonzero"/><path fill="#da6cbd" d="M 146.535156 117.136719 L 146.535156 126.390625 L 137.296875 126.390625 L 137.296875 117.136719 L 146.535156 117.136719 " fill-opacity="1" fill-rule="nonzero"/><path fill="#b3319f" d="M 146.535156 107.898438 L 146.535156 117.136719 L 137.296875 117.136719 L 137.296875 107.898438 L 146.535156 107.898438 " fill-opacity="1" fill-rule="nonzero"/><g clip-path="url(#471c97d777)"><path fill="#b3319f" d="M 146.535156 98.644531 L 146.535156 107.898438 L 137.296875 107.898438 L 137.296875 98.644531 L 146.535156 98.644531 " fill-opacity="1" fill-rule="nonzero"/></g><path fill="#1d381e" d="M 137.296875 311.375 L 137.296875 320.628906 L 128.054688 320.628906 L 128.054688 311.375 L 137.296875 311.375 " fill-opacity="1" fill-rule="nonzero"/><path fill="#358e3f" d="M 137.296875 302.128906 L 137.296875 311.375 L 128.054688 311.375 L 128.054688 302.128906 L 137.296875 302.128906 " fill-opacity="1" fill-rule="nonzero"/><path fill="#358e3f" d="M 137.296875 292.882812 L 137.296875 302.128906 L 128.054688 302.128906 L 128.054688 292.882812 L 137.296875 292.882812 " fill-opacity="1" fill-rule="nonzero"/><path fill="#1d381e" d="M 137.296875 283.628906 L 137.296875 292.882812 L 128.054688 292.882812 L 128.054688 283.628906 L 137.296875 283.628906 " fill-opacity="1" fill-rule="nonzero"/><path fill="#235528" d="M 137.296875 274.378906 L 137.296875 283.628906 L 128.054688 283.628906 L 128.054688 274.378906 L 137.296875 274.378906 " fill-opacity="1" fill-rule="nonzero"/><path fill="#235528" d="M 137.296875 265.136719 L 137.296875 274.378906 L 128.054688 274.378906 L 128.054688 265.136719 L 137.296875 265.136719 " fill-opacity="1" fill-rule="nonzero"/><path fill="#a8691d" d="M 137.296875 255.882812 L 137.296875 265.136719 L 128.054688 265.136719 L 128.054688 255.882812 L 137.296875 255.882812 " fill-opacity="1" fill-rule="nonzero"/><path fill="#d38d18" d="M 137.296875 246.632812 L 137.296875 255.882812 L 128.054688 255.882812 L 128.054688 246.632812 L 137.296875 246.632812 " fill-opacity="1" fill-rule="nonzero"/><path fill="#d38d18" d="M 137.296875 237.382812 L 137.296875 246.632812 L 128.054688 246.632812 L 128.054688 237.382812 L 137.296875 237.382812 " fill-opacity="1" fill-rule="nonzero"/><path fill="#f5e258" d="M 137.296875 228.136719 L 137.296875 237.382812 L 128.054688 237.382812 L 128.054688 228.136719 L 137.296875 228.136719 " fill-opacity="1" fill-rule="nonzero"/><path fill="#f5e258" d="M 137.296875 218.882812 L 137.296875 228.136719 L 128.054688 228.136719 L 128.054688 218.882812 L 137.296875 218.882812 " fill-opacity="1" fill-rule="nonzero"/><path fill="#f5e258" d="M 137.296875 209.636719 L 137.296875 218.882812 L 128.054688 218.882812 L 128.054688 209.636719 L 137.296875 209.636719 " fill-opacity="1" fill-rule="nonzero"/><path fill="#a8691d" d="M 137.296875 200.382812 L 137.296875 209.636719 L 128.054688 209.636719 L 128.054688 200.382812 L 137.296875 200.382812 " fill-opacity="1" fill-rule="nonzero"/><path fill="#1d381e" d="M 137.296875 191.132812 L 137.296875 200.382812 L 128.054688 200.382812 L 128.054688 191.132812 L 137.296875 191.132812 " fill-opacity="1" fill-rule="nonzero"/><path fill="#1d381e" d="M 137.296875 181.890625 L 137.296875 191.132812 L 128.054688 191.132812 L 128.054688 181.890625 L 137.296875 181.890625 " fill-opacity="1" fill-rule="nonzero"/><path fill="#1d381e" d="M 137.296875 172.636719 L 137.296875 181.890625 L 128.054688 181.890625 L 128.054688 172.636719 L 137.296875 172.636719 " fill-opacity="1" fill-rule="nonzero"/><path fill="#1d381e" d="M 137.296875 144.890625 L 137.296875 154.136719 L 128.054688 154.136719 L 128.054688 144.890625 L 137.296875 144.890625 " fill-opacity="1" fill-rule="nonzero"/><path fill="#b3319f" d="M 137.296875 135.640625 L 137.296875 144.890625 L 128.054688 144.890625 L 128.054688 135.640625 L 137.296875 135.640625 " fill-opacity="1" fill-rule="nonzero"/><path fill="#da6cbd" d="M 137.296875 126.390625 L 137.296875 135.640625 L 128.054688 135.640625 L 128.054688 126.390625 L 137.296875 126.390625 " fill-opacity="1" fill-rule="nonzero"/><path fill="#da6cbd" d="M 137.296875 117.136719 L 137.296875 126.390625 L 128.054688 126.390625 L 128.054688 117.136719 L 137.296875 117.136719 " fill-opacity="1" fill-rule="nonzero"/><path fill="#ffffff" d="M 137.296875 107.898438 L 137.296875 117.136719 L 128.054688 117.136719 L 128.054688 107.898438 L 137.296875 107.898438 " fill-opacity="1" fill-rule="nonzero"/><g clip-path="url(#53432bfbba)"><path fill="#b3319f" d="M 137.296875 98.644531 L 137.296875 107.898438 L 128.054688 107.898438 L 128.054688 98.644531 L 137.296875 98.644531 " fill-opacity="1" fill-rule="nonzero"/></g><path fill="#1d381e" d="M 128.054688 311.375 L 128.054688 320.628906 L 118.816406 320.628906 L 118.816406 311.375 L 128.054688 311.375 " fill-opacity="1" fill-rule="nonzero"/><path fill="#1d381e" d="M 128.054688 302.128906 L 128.054688 311.375 L 118.816406 311.375 L 118.816406 302.128906 L 128.054688 302.128906 " fill-opacity="1" fill-rule="nonzero"/><path fill="#66c536" d="M 128.054688 292.882812 L 128.054688 302.128906 L 118.816406 302.128906 L 118.816406 292.882812 L 128.054688 292.882812 " fill-opacity="1" fill-rule="nonzero"/><path fill="#1d381e" d="M 128.054688 283.628906 L 128.054688 292.882812 L 118.816406 292.882812 L 118.816406 283.628906 L 128.054688 283.628906 " fill-opacity="1" fill-rule="nonzero"/><path fill="#235528" d="M 128.054688 274.378906 L 128.054688 283.628906 L 118.816406 283.628906 L 118.816406 274.378906 L 128.054688 274.378906 " fill-opacity="1" fill-rule="nonzero"/><path fill="#358e3f" d="M 128.054688 265.136719 L 128.054688 274.378906 L 118.816406 274.378906 L 118.816406 265.136719 L 128.054688 265.136719 " fill-opacity="1" fill-rule="nonzero"/><path fill="#a8691d" d="M 128.054688 255.882812 L 128.054688 265.136719 L 118.816406 265.136719 L 118.816406 255.882812 L 128.054688 255.882812 " fill-opacity="1" fill-rule="nonzero"/><path fill="#a8691d" d="M 128.054688 246.632812 L 128.054688 255.882812 L 118.816406 255.882812 L 118.816406 246.632812 L 128.054688 246.632812 " fill-opacity="1" fill-rule="nonzero"/><path fill="#fad00d" d="M 128.054688 237.382812 L 128.054688 246.632812 L 118.816406 246.632812 L 118.816406 237.382812 L 128.054688 237.382812 " fill-opacity="1" fill-rule="nonzero"/><path fill="#f5e258" d="M 128.054688 228.136719 L 128.054688 237.382812 L 118.816406 237.382812 L 118.816406 228.136719 L 128.054688 228.136719 " fill-opacity="1" fill-rule="nonzero"/><path fill="#d38d18" d="M 128.054688 218.882812 L 128.054688 228.136719 L 118.816406 228.136719 L 118.816406 218.882812 L 128.054688 218.882812 " fill-opacity="1" fill-rule="nonzero"/><path fill="#a8691d" d="M 128.054688 209.636719 L 128.054688 218.882812 L 118.816406 218.882812 L 118.816406 209.636719 L 128.054688 209.636719 " fill-opacity="1" fill-rule="nonzero"/><path fill="#a8691d" d="M 128.054688 200.382812 L 128.054688 209.636719 L 118.816406 209.636719 L 118.816406 200.382812 L 128.054688 200.382812 " fill-opacity="1" fill-rule="nonzero"/><path fill="#358e3f" d="M 128.054688 163.386719 L 128.054688 172.636719 L 118.816406 172.636719 L 118.816406 163.386719 L 128.054688 163.386719 " fill-opacity="1" fill-rule="nonzero"/><path fill="#1d381e" d="M 128.054688 154.136719 L 128.054688 163.386719 L 118.816406 163.386719 L 118.816406 154.136719 L 128.054688 154.136719 " fill-opacity="1" fill-rule="nonzero"/><path fill="#1d381e" d="M 128.054688 144.890625 L 128.054688 154.136719 L 118.816406 154.136719 L 118.816406 144.890625 L 128.054688 144.890625 " fill-opacity="1" fill-rule="nonzero"/><path fill="#b3319f" d="M 128.054688 135.640625 L 128.054688 144.890625 L 118.816406 144.890625 L 118.816406 135.640625 L 128.054688 135.640625 " fill-opacity="1" fill-rule="nonzero"/><path fill="#b3319f" d="M 128.054688 126.390625 L 128.054688 135.640625 L 118.816406 135.640625 L 118.816406 126.390625 L 128.054688 126.390625 " fill-opacity="1" fill-rule="nonzero"/><path fill="#da6cbd" d="M 128.054688 117.136719 L 128.054688 126.390625 L 118.816406 126.390625 L 118.816406 117.136719 L 128.054688 117.136719 " fill-opacity="1" fill-rule="nonzero"/><path fill="#da6cbd" d="M 128.054688 107.898438 L 128.054688 117.136719 L 118.816406 117.136719 L 118.816406 107.898438 L 128.054688 107.898438 " fill-opacity="1" fill-rule="nonzero"/><g clip-path="url(#4cf0ed3c87)"><path fill="#b3319f" d="M 128.054688 98.644531 L 128.054688 107.898438 L 118.816406 107.898438 L 118.816406 98.644531 L 128.054688 98.644531 " fill-opacity="1" fill-rule="nonzero"/></g><path fill="#3e373d" d="M 118.816406 311.375 L 118.816406 320.628906 L 109.574219 320.628906 L 109.574219 311.375 L 118.816406 311.375 " fill-opacity="1" fill-rule="nonzero"/><path fill="#1d381e" d="M 118.816406 302.128906 L 118.816406 311.375 L 109.574219 311.375 L 109.574219 302.128906 L 118.816406 302.128906 " fill-opacity="1" fill-rule="nonzero"/><path fill="#66c536" d="M 118.816406 292.882812 L 118.816406 302.128906 L 109.574219 302.128906 L 109.574219 292.882812 L 118.816406 292.882812 " fill-opacity="1" fill-rule="nonzero"/><path fill="#66c536" d="M 118.816406 283.628906 L 118.816406 292.882812 L 109.574219 292.882812 L 109.574219 283.628906 L 118.816406 283.628906 " fill-opacity="1" fill-rule="nonzero"/><path fill="#1d381e" d="M 118.816406 274.378906 L 118.816406 283.628906 L 109.574219 283.628906 L 109.574219 274.378906 L 118.816406 274.378906 " fill-opacity="1" fill-rule="nonzero"/><path fill="#358e3f" d="M 118.816406 265.136719 L 118.816406 274.378906 L 109.574219 274.378906 L 109.574219 265.136719 L 118.816406 265.136719 " fill-opacity="1" fill-rule="nonzero"/><path fill="#358e3f" d="M 118.816406 255.882812 L 118.816406 265.136719 L 109.574219 265.136719 L 109.574219 255.882812 L 118.816406 255.882812 " fill-opacity="1" fill-rule="nonzero"/><path fill="#a8691d" d="M 118.816406 246.632812 L 118.816406 255.882812 L 109.574219 255.882812 L 109.574219 246.632812 L 118.816406 246.632812 " fill-opacity="1" fill-rule="nonzero"/><path fill="#a8691d" d="M 118.816406 237.382812 L 118.816406 246.632812 L 109.574219 246.632812 L 109.574219 237.382812 L 118.816406 237.382812 " fill-opacity="1" fill-rule="nonzero"/><path fill="#d38d18" d="M 118.816406 228.136719 L 118.816406 237.382812 L 109.574219 237.382812 L 109.574219 228.136719 L 118.816406 228.136719 " fill-opacity="1" fill-rule="nonzero"/><path fill="#a8691d" d="M 118.816406 218.882812 L 118.816406 228.136719 L 109.574219 228.136719 L 109.574219 218.882812 L 118.816406 218.882812 " fill-opacity="1" fill-rule="nonzero"/><path fill="#1d381e" d="M 118.816406 209.636719 L 118.816406 218.882812 L 109.574219 218.882812 L 109.574219 209.636719 L 118.816406 209.636719 " fill-opacity="1" fill-rule="nonzero"/><path fill="#1d381e" d="M 118.816406 200.382812 L 118.816406 209.636719 L 109.574219 209.636719 L 109.574219 200.382812 L 118.816406 200.382812 " fill-opacity="1" fill-rule="nonzero"/><path fill="#1d381e" d="M 118.816406 191.132812 L 118.816406 200.382812 L 109.574219 200.382812 L 109.574219 191.132812 L 118.816406 191.132812 " fill-opacity="1" fill-rule="nonzero"/><path fill="#358e3f" d="M 118.816406 181.890625 L 118.816406 191.132812 L 109.574219 191.132812 L 109.574219 181.890625 L 118.816406 181.890625 " fill-opacity="1" fill-rule="nonzero"/><path fill="#358e3f" d="M 118.816406 172.636719 L 118.816406 181.890625 L 109.574219 181.890625 L 109.574219 172.636719 L 118.816406 172.636719 " fill-opacity="1" fill-rule="nonzero"/><path fill="#358e3f" d="M 118.816406 163.386719 L 118.816406 172.636719 L 109.574219 172.636719 L 109.574219 163.386719 L 118.816406 163.386719 " fill-opacity="1" fill-rule="nonzero"/><path fill="#b3319f" d="M 118.816406 126.390625 L 118.816406 135.640625 L 109.574219 135.640625 L 109.574219 126.390625 L 118.816406 126.390625 " fill-opacity="1" fill-rule="nonzero"/><path fill="#b3319f" d="M 118.816406 117.136719 L 118.816406 126.390625 L 109.574219 126.390625 L 109.574219 117.136719 L 118.816406 117.136719 " fill-opacity="1" fill-rule="nonzero"/><path fill="#b3319f" d="M 118.816406 107.898438 L 118.816406 117.136719 L 109.574219 117.136719 L 109.574219 107.898438 L 118.816406 107.898438 " fill-opacity="1" fill-rule="nonzero"/><g clip-path="url(#01f727fce3)"><path fill="#b3319f" d="M 118.816406 98.644531 L 118.816406 107.898438 L 109.574219 107.898438 L 109.574219 98.644531 L 118.816406 98.644531 " fill-opacity="1" fill-rule="nonzero"/></g><path fill="#1d381e" d="M 109.574219 302.128906 L 109.574219 311.375 L 100.335938 311.375 L 100.335938 302.128906 L 109.574219 302.128906 " fill-opacity="1" fill-rule="nonzero"/><path fill="#66c536" d="M 109.574219 292.882812 L 109.574219 302.128906 L 100.335938 302.128906 L 100.335938 292.882812 L 109.574219 292.882812 " fill-opacity="1" fill-rule="nonzero"/><path fill="#a1ca21" d="M 109.574219 283.628906 L 109.574219 292.882812 L 100.335938 292.882812 L 100.335938 283.628906 L 109.574219 283.628906 " fill-opacity="1" fill-rule="nonzero"/><path fill="#1d381e" d="M 109.574219 274.378906 L 109.574219 283.628906 L 100.335938 283.628906 L 100.335938 274.378906 L 109.574219 274.378906 " fill-opacity="1" fill-rule="nonzero"/><path fill="#358e3f" d="M 109.574219 265.136719 L 109.574219 274.378906 L 100.335938 274.378906 L 100.335938 265.136719 L 109.574219 265.136719 " fill-opacity="1" fill-rule="nonzero"/><path fill="#66c536" d="M 109.574219 255.882812 L 109.574219 265.136719 L 100.335938 265.136719 L 100.335938 255.882812 L 109.574219 255.882812 " fill-opacity="1" fill-rule="nonzero"/><path fill="#66c536" d="M 109.574219 246.632812 L 109.574219 255.882812 L 100.335938 255.882812 L 100.335938 246.632812 L 109.574219 246.632812 " fill-opacity="1" fill-rule="nonzero"/><path fill="#a8691d" d="M 109.574219 237.382812 L 109.574219 246.632812 L 100.335938 246.632812 L 100.335938 237.382812 L 109.574219 237.382812 " fill-opacity="1" fill-rule="nonzero"/><path fill="#a8691d" d="M 109.574219 228.136719 L 109.574219 237.382812 L 100.335938 237.382812 L 100.335938 228.136719 L 109.574219 228.136719 " fill-opacity="1" fill-rule="nonzero"/><path fill="#a8691d" d="M 109.574219 218.882812 L 109.574219 228.136719 L 100.335938 228.136719 L 100.335938 218.882812 L 109.574219 218.882812 " fill-opacity="1" fill-rule="nonzero"/><path fill="#1d381e" d="M 100.335938 292.882812 L 100.335938 302.128906 L 91.09375 302.128906 L 91.09375 292.882812 L 100.335938 292.882812 " fill-opacity="1" fill-rule="nonzero"/><path fill="#a1ca21" d="M 100.335938 283.628906 L 100.335938 292.882812 L 91.09375 292.882812 L 91.09375 283.628906 L 100.335938 283.628906 " fill-opacity="1" fill-rule="nonzero"/><path fill="#1d381e" d="M 100.335938 274.378906 L 100.335938 283.628906 L 91.09375 283.628906 L 91.09375 274.378906 L 100.335938 274.378906 " fill-opacity="1" fill-rule="nonzero"/><path fill="#1d381e" d="M 100.335938 265.136719 L 100.335938 274.378906 L 91.09375 274.378906 L 91.09375 265.136719 L 100.335938 265.136719 " fill-opacity="1" fill-rule="nonzero"/><path fill="#358e3f" d="M 100.335938 255.882812 L 100.335938 265.136719 L 91.09375 265.136719 L 91.09375 255.882812 L 100.335938 255.882812 " fill-opacity="1" fill-rule="nonzero"/><path fill="#66c536" d="M 100.335938 246.632812 L 100.335938 255.882812 L 91.09375 255.882812 L 91.09375 246.632812 L 100.335938 246.632812 " fill-opacity="1" fill-rule="nonzero"/><path fill="#66c536" d="M 100.335938 237.382812 L 100.335938 246.632812 L 91.09375 246.632812 L 91.09375 237.382812 L 100.335938 237.382812 " fill-opacity="1" fill-rule="nonzero"/><path fill="#1d381e" d="M 100.335938 228.136719 L 100.335938 237.382812 L 91.09375 237.382812 L 91.09375 228.136719 L 100.335938 228.136719 " fill-opacity="1" fill-rule="nonzero"/><path fill="#358e3f" d="M 100.335938 218.882812 L 100.335938 228.136719 L 91.09375 228.136719 L 91.09375 218.882812 L 100.335938 218.882812 " fill-opacity="1" fill-rule="nonzero"/><path fill="#358e3f" d="M 100.335938 209.636719 L 100.335938 218.882812 L 91.09375 218.882812 L 91.09375 209.636719 L 100.335938 209.636719 " fill-opacity="1" fill-rule="nonzero"/><path fill="#358e3f" d="M 100.335938 200.382812 L 100.335938 209.636719 L 91.09375 209.636719 L 91.09375 200.382812 L 100.335938 200.382812 " fill-opacity="1" fill-rule="nonzero"/><path fill="#1d381e" d="M 100.335938 191.132812 L 100.335938 200.382812 L 91.09375 200.382812 L 91.09375 191.132812 L 100.335938 191.132812 " fill-opacity="1" fill-rule="nonzero"/><path fill="#b3319f" d="M 100.335938 181.890625 L 100.335938 191.132812 L 91.09375 191.132812 L 91.09375 181.890625 L 100.335938 181.890625 " fill-opacity="1" fill-rule="nonzero"/><path fill="#b3319f" d="M 100.335938 172.636719 L 100.335938 181.890625 L 91.09375 181.890625 L 91.09375 172.636719 L 100.335938 172.636719 " fill-opacity="1" fill-rule="nonzero"/><path fill="#b3319f" d="M 100.335938 163.386719 L 100.335938 172.636719 L 91.09375 172.636719 L 91.09375 163.386719 L 100.335938 163.386719 " fill-opacity="1" fill-rule="nonzero"/><path fill="#b3319f" d="M 100.335938 154.136719 L 100.335938 163.386719 L 91.09375 163.386719 L 91.09375 154.136719 L 100.335938 154.136719 " fill-opacity="1" fill-rule="nonzero"/><path fill="#1d381e" d="M 91.09375 283.628906 L 91.09375 292.882812 L 81.855469 292.882812 L 81.855469 283.628906 L 91.09375 283.628906 " fill-opacity="1" fill-rule="nonzero"/><path fill="#a1ca21" d="M 91.09375 274.378906 L 91.09375 283.628906 L 81.855469 283.628906 L 81.855469 274.378906 L 91.09375 274.378906 " fill-opacity="1" fill-rule="nonzero"/><path fill="#a1ca21" d="M 91.09375 265.136719 L 91.09375 274.378906 L 81.855469 274.378906 L 81.855469 265.136719 L 91.09375 265.136719 " fill-opacity="1" fill-rule="nonzero"/><path fill="#1d381e" d="M 91.09375 255.882812 L 91.09375 265.136719 L 81.855469 265.136719 L 81.855469 255.882812 L 91.09375 255.882812 " fill-opacity="1" fill-rule="nonzero"/><path fill="#1d381e" d="M 91.09375 246.632812 L 91.09375 255.882812 L 81.855469 255.882812 L 81.855469 246.632812 L 91.09375 246.632812 " fill-opacity="1" fill-rule="nonzero"/><path fill="#a1ca21" d="M 91.09375 237.382812 L 91.09375 246.632812 L 81.855469 246.632812 L 81.855469 237.382812 L 91.09375 237.382812 " fill-opacity="1" fill-rule="nonzero"/><path fill="#1d381e" d="M 91.09375 228.136719 L 91.09375 237.382812 L 81.855469 237.382812 L 81.855469 228.136719 L 91.09375 228.136719 " fill-opacity="1" fill-rule="nonzero"/><path fill="#1d381e" d="M 91.09375 191.132812 L 91.09375 200.382812 L 81.855469 200.382812 L 81.855469 191.132812 L 91.09375 191.132812 " fill-opacity="1" fill-rule="nonzero"/><path fill="#b3319f" d="M 91.09375 181.890625 L 91.09375 191.132812 L 81.855469 191.132812 L 81.855469 181.890625 L 91.09375 181.890625 " fill-opacity="1" fill-rule="nonzero"/><path fill="#da6cbd" d="M 91.09375 172.636719 L 91.09375 181.890625 L 81.855469 181.890625 L 81.855469 172.636719 L 91.09375 172.636719 " fill-opacity="1" fill-rule="nonzero"/><path fill="#da6cbd" d="M 91.09375 163.386719 L 91.09375 172.636719 L 81.855469 172.636719 L 81.855469 163.386719 L 91.09375 163.386719 " fill-opacity="1" fill-rule="nonzero"/><path fill="#b3319f" d="M 91.09375 154.136719 L 91.09375 163.386719 L 81.855469 163.386719 L 81.855469 154.136719 L 91.09375 154.136719 " fill-opacity="1" fill-rule="nonzero"/><path fill="#b3319f" d="M 91.09375 144.890625 L 91.09375 154.136719 L 81.855469 154.136719 L 81.855469 144.890625 L 91.09375 144.890625 " fill-opacity="1" fill-rule="nonzero"/><path fill="#1d381e" d="M 81.855469 274.378906 L 81.855469 283.628906 L 72.617188 283.628906 L 72.617188 274.378906 L 81.855469 274.378906 " fill-opacity="1" fill-rule="nonzero"/><path fill="#a1ca21" d="M 81.855469 265.136719 L 81.855469 274.378906 L 72.617188 274.378906 L 72.617188 265.136719 L 81.855469 265.136719 " fill-opacity="1" fill-rule="nonzero"/><path fill="#1d381e" d="M 81.855469 246.632812 L 81.855469 255.882812 L 72.617188 255.882812 L 72.617188 246.632812 L 81.855469 246.632812 " fill-opacity="1" fill-rule="nonzero"/><path fill="#a1ca21" d="M 81.855469 237.382812 L 81.855469 246.632812 L 72.617188 246.632812 L 72.617188 237.382812 L 81.855469 237.382812 " fill-opacity="1" fill-rule="nonzero"/><path fill="#a1ca21" d="M 81.855469 228.136719 L 81.855469 237.382812 L 72.617188 237.382812 L 72.617188 228.136719 L 81.855469 228.136719 " fill-opacity="1" fill-rule="nonzero"/><path fill="#1d381e" d="M 81.855469 218.882812 L 81.855469 228.136719 L 72.617188 228.136719 L 72.617188 218.882812 L 81.855469 218.882812 " fill-opacity="1" fill-rule="nonzero"/><path fill="#b3319f" d="M 81.855469 191.132812 L 81.855469 200.382812 L 72.617188 200.382812 L 72.617188 191.132812 L 81.855469 191.132812 " fill-opacity="1" fill-rule="nonzero"/><path fill="#b3319f" d="M 81.855469 181.890625 L 81.855469 191.132812 L 72.617188 191.132812 L 72.617188 181.890625 L 81.855469 181.890625 " fill-opacity="1" fill-rule="nonzero"/><path fill="#da6cbd" d="M 81.855469 172.636719 L 81.855469 181.890625 L 72.617188 181.890625 L 72.617188 172.636719 L 81.855469 172.636719 " fill-opacity="1" fill-rule="nonzero"/><path fill="#da6cbd" d="M 81.855469 163.386719 L 81.855469 172.636719 L 72.617188 172.636719 L 72.617188 163.386719 L 81.855469 163.386719 " fill-opacity="1" fill-rule="nonzero"/><path fill="#b3319f" d="M 81.855469 144.890625 L 81.855469 154.136719 L 72.617188 154.136719 L 72.617188 144.890625 L 81.855469 144.890625 " fill-opacity="1" fill-rule="nonzero"/><path fill="#1d381e" d="M 72.617188 265.136719 L 72.617188 274.378906 L 63.375 274.378906 L 63.375 265.136719 L 72.617188 265.136719 " fill-opacity="1" fill-rule="nonzero"/><path fill="#1d381e" d="M 72.617188 237.382812 L 72.617188 246.632812 L 63.375 246.632812 L 63.375 237.382812 L 72.617188 237.382812 " fill-opacity="1" fill-rule="nonzero"/><path fill="#1d381e" d="M 72.617188 228.136719 L 72.617188 237.382812 L 63.375 237.382812 L 63.375 228.136719 L 72.617188 228.136719 " fill-opacity="1" fill-rule="nonzero"/><path fill="#1d381e" d="M 72.617188 218.882812 L 72.617188 228.136719 L 63.375 228.136719 L 63.375 218.882812 L 72.617188 218.882812 " fill-opacity="1" fill-rule="nonzero"/><path fill="#b3319f" d="M 72.617188 191.132812 L 72.617188 200.382812 L 63.375 200.382812 L 63.375 191.132812 L 72.617188 191.132812 " fill-opacity="1" fill-rule="nonzero"/><path fill="#da6cbd" d="M 72.617188 181.890625 L 72.617188 191.132812 L 63.375 191.132812 L 63.375 181.890625 L 72.617188 181.890625 " fill-opacity="1" fill-rule="nonzero"/><path fill="#da6cbd" d="M 72.617188 172.636719 L 72.617188 181.890625 L 63.375 181.890625 L 63.375 172.636719 L 72.617188 172.636719 " fill-opacity="1" fill-rule="nonzero"/><path fill="#da6cbd" d="M 72.617188 163.386719 L 72.617188 172.636719 L 63.375 172.636719 L 63.375 163.386719 L 72.617188 163.386719 " fill-opacity="1" fill-rule="nonzero"/><path fill="#b3319f" d="M 72.617188 154.136719 L 72.617188 163.386719 L 63.375 163.386719 L 63.375 154.136719 L 72.617188 154.136719 " fill-opacity="1" fill-rule="nonzero"/><path fill="#b3319f" d="M 72.617188 144.890625 L 72.617188 154.136719 L 63.375 154.136719 L 63.375 144.890625 L 72.617188 144.890625 " fill-opacity="1" fill-rule="nonzero"/><g clip-path="url(#e0d04e09f0)"><path fill="#b3319f" d="M 63.375 181.890625 L 63.375 191.132812 L 54.136719 191.132812 L 54.136719 181.890625 L 63.375 181.890625 " fill-opacity="1" fill-rule="nonzero"/></g><g clip-path="url(#ee02759367)"><path fill="#b3319f" d="M 63.375 172.636719 L 63.375 181.890625 L 54.136719 181.890625 L 54.136719 172.636719 L 63.375 172.636719 " fill-opacity="1" fill-rule="nonzero"/></g><g clip-path="url(#5b406a81a9)"><path fill="#b3319f" d="M 63.375 163.386719 L 63.375 172.636719 L 54.136719 172.636719 L 54.136719 163.386719 L 63.375 163.386719 " fill-opacity="1" fill-rule="nonzero"/></g><g clip-path="url(#79ed5ea4d5)"><path fill="#b3319f" d="M 63.375 154.136719 L 63.375 163.386719 L 54.136719 163.386719 L 54.136719 154.136719 L 63.375 154.136719 " fill-opacity="1" fill-rule="nonzero"/></g></svg>